<?xml version="1.0" standalone="no"?>
<!DOCTYPE svg PUBLIC "-//W3C//DTD SVG 1.1//EN" "http://www.w3.org/Graphics/SVG/1.1/DTD/svg11.dtd" >
<svg xmlns="http://www.w3.org/2000/svg">
<metadata></metadata>
<defs>
<font id="newjuneprolightregular" horiz-adv-x="1187" >
<font-face units-per-em="2048" ascent="1597" descent="-451" />
<missing-glyph horiz-adv-x="522" />
<glyph unicode="IJ" horiz-adv-x="1193" d="M178 0v1524h96v-1524h-96zM498 20l14 89q142 -31 190 -31q116 0 171 65t55 203v1178h92v-1184q0 -171 -81.5 -259.5t-236.5 -88.5q-76 0 -204 28z" />
<glyph unicode="ij" horiz-adv-x="952" d="M158 1489q0 37 18.5 58.5t50.5 21.5q34 0 53 -21.5t19 -58.5q0 -36 -19.5 -57t-52.5 -21q-32 0 -50.5 21t-18.5 57zM182 0v1114h92v-1114h-92zM481 -289q197 3 197 248v1155h94v-1159q0 -154 -78 -240t-213 -86v82zM653 1489q0 37 19 58.5t51 21.5t51 -21.5t19 -58.5 q0 -35 -19 -56.5t-51 -21.5t-51 21.5t-19 56.5z" />
<glyph unicode="&#x27;n" horiz-adv-x="1175" d="M147 1348l70 249h100l-77 -272q-11 -43 -54 -43q-25 0 -36.5 18.5t-2.5 47.5zM164 0v961q0 77 76 96q219 65 368 65q208 0 308 -108t100 -291v-723h-90v715q0 321 -326 321q-137 0 -346 -63v-973h-90z" />
<glyph unicode="ff" horiz-adv-x="1423" d="M61 1010v82h191v125q0 172 89 260t249 88q73 0 160.5 -18.5t130 -33t120.5 -43.5q77 95 230 95q64 0 203 -29l-15 -84q-129 27 -188 27q-110 0 -161.5 -63.5t-51.5 -201.5v-122h362v-82h-362v-1010h-92v1010h-584v-1010h-90v1010h-191zM342 1092h584v129q0 107 35 182 q-226 82 -371 82q-248 0 -248 -273v-120z" />
<glyph unicode="fi" horiz-adv-x="1214" d="M63 1010v82h189v129q0 169 79.5 256.5t225.5 87.5q66 0 201 -29l-15 -84q-126 27 -188 27q-109 0 -160.5 -63.5t-52.5 -201.5v-122h692v-1092h-96v1010h-596v-1010h-90v1010h-189zM915 1495q0 37 19 58.5t51 21.5q34 0 53 -21.5t19 -58.5q0 -36 -19.5 -57t-52.5 -21 q-32 0 -51 21.5t-19 56.5z" />
<glyph unicode="fl" horiz-adv-x="1193" d="M61 1010v82h191v125q0 171 87 259.5t243 88.5q119 0 356 -37l92 28v-1556h-92v1444q-217 37 -358 37q-119 0 -178.5 -66t-59.5 -203v-120h365v-82h-365v-1010h-90v1010h-191z" />
<glyph unicode="ffi" horiz-adv-x="1890" d="M61 1010v82h191v125q0 172 89 260t249 88q73 0 160.5 -18.5t130 -33t120.5 -43.5q77 95 230 95q64 0 203 -29l-15 -84q-129 27 -188 27q-110 0 -161.5 -63.5t-51.5 -201.5v-122h692v-1092h-96v1010h-596v-1010h-92v1010h-584v-1010h-90v1010h-191zM342 1092h584v129 q0 107 35 182q-224 82 -363 82q-127 0 -191.5 -64.5t-64.5 -208.5v-120zM1591 1495q0 37 19 58.5t51 21.5t51 -21.5t19 -58.5q0 -35 -19 -56.5t-51 -21.5t-51 21.5t-19 56.5z" />
<glyph unicode="&#xd;" horiz-adv-x="522" />
<glyph unicode=" "  horiz-adv-x="522" />
<glyph unicode="&#x09;" horiz-adv-x="522" />
<glyph unicode="&#xa0;" horiz-adv-x="522" />
<glyph unicode="!" horiz-adv-x="419" d="M150 63q0 37 18.5 58.5t50.5 21.5t51 -21.5t19 -58.5q0 -36 -18.5 -56.5t-51.5 -20.5q-32 0 -50.5 20t-18.5 57zM172 465v1059h94v-1041z" />
<glyph unicode="&#x22;" horiz-adv-x="747" d="M147 1563h105l-12 -396h-82zM498 1563h104l-10 -396h-82z" />
<glyph unicode="#" d="M53 457l15 84h225l84 426h-242l15 84h243l88 473h90l-90 -473h344l90 473h86l-90 -473h230l-15 -84h-227l-78 -426h238l-15 -84h-239l-84 -457h-88l84 457h-352l-89 -457h-88l88 457h-223zM381 541h352l80 426h-348z" />
<glyph unicode="$" d="M106 100l23 86l90 -30q264 -88 412 -88q103 0 184.5 32t133.5 105t52 178q0 120 -64 191.5t-200 103.5l-288 70q-334 77 -334 378q0 99 37.5 177.5t101 126t141.5 72.5t164 26v248h88v-250q58 -4 121.5 -17.5t102 -25.5t122.5 -39l88 -31l-20 -88l-90 31 q-86 29 -136 44.5t-122.5 28.5t-139.5 13q-73 0 -137.5 -18.5t-117 -55t-83 -98t-30.5 -140.5q0 -119 63 -189.5t199 -102.5l289 -70q336 -80 336 -381q0 -99 -36 -176.5t-98.5 -125.5t-141 -73.5t-169.5 -27.5v-248h-88v250q-142 9 -362 84z" />
<glyph unicode="%" d="M74 1049v249q0 109 59 171.5t168 62.5q108 0 163.5 -62t55.5 -174v-245q0 -115 -55 -176.5t-164 -61.5t-168 63t-59 173zM150 1051q0 -80 37 -125t112 -45q147 0 147 170v243q0 170 -147 170q-75 0 -112 -45t-37 -125v-243zM162 0l784 1524h84l-782 -1524h-86zM666 223 v250q0 110 59 173t168 63q108 0 163.5 -62.5t55.5 -173.5v-246q0 -115 -55 -176t-164 -61t-168 61.5t-59 171.5zM741 227q0 -80 37.5 -125t112.5 -45q147 0 147 170v244q0 170 -147 170q-75 0 -112.5 -45t-37.5 -125v-244z" />
<glyph unicode="&#x26;" horiz-adv-x="1413" d="M119 367q0 73 19 133t48.5 102t76.5 78t92 59.5t106 48.5q-108 117 -159.5 204.5t-51.5 195.5q0 170 112 265t291 95q176 0 281.5 -92t105.5 -254q0 -57 -12.5 -105.5t-34.5 -85t-53.5 -68.5t-68 -56t-79 -45t-85.5 -38.5t-90 -35.5q-7 -3 -11 -4l449 -496 q147 181 147 463v178h90v-182q0 -321 -178 -524l186 -203h-118l-129 141q-190 -166 -475 -166q-219 0 -339 111.5t-120 280.5zM213 369q0 -62 22 -117t65 -99.5t114.5 -70t163.5 -25.5q244 0 415 148l-477 522q-69 -29 -117.5 -57t-94 -70t-68.5 -100t-23 -131zM340 1188 q0 -89 50 -169.5t161 -195.5q168 63 233 102q144 86 164 225q4 25 4 52q0 119 -77.5 191.5t-221.5 72.5q-151 0 -232 -74t-81 -204z" />
<glyph unicode="'" horiz-adv-x="415" d="M156 1563h108l-12 -396h-86z" />
<glyph unicode="(" horiz-adv-x="559" d="M90 692q0 811 410 832v-84q-316 -30 -316 -748q0 -186 21.5 -326.5t52.5 -219t76.5 -128.5t83 -66.5t82.5 -21.5v-82q-60 3 -113 25t-109.5 80.5t-96.5 149t-65.5 242t-25.5 347.5z" />
<glyph unicode=")" horiz-adv-x="559" d="M63 -70q314 35 314 762q0 718 -314 748v84q408 -21 408 -832q0 -142 -13 -260.5t-35.5 -203.5t-55 -151t-67.5 -107.5t-77 -69t-80 -39t-80 -13.5v82z" />
<glyph unicode="*" d="M156 1204l30 96l375 -143l-20 406h104l-20 -406l376 141l31 -96l-385 -104l250 -322l-86 -61l-219 348l-217 -346l-86 61l250 320z" />
<glyph unicode="+" d="M121 561v88h424v457h92v-457h430v-88h-430v-463h-92v463h-424z" />
<glyph unicode="," horiz-adv-x="419" d="M115 -158l92 344h104l-102 -368q-12 -43 -51 -43q-27 0 -39 19.5t-4 47.5z" />
<glyph unicode="-" horiz-adv-x="833" d="M139 588v90h557v-90h-557z" />
<glyph unicode="." horiz-adv-x="419" d="M147 63q0 37 19 58.5t51 21.5q34 0 53 -21.5t19 -58.5t-19 -57t-53 -20q-33 0 -51.5 20.5t-18.5 56.5z" />
<glyph unicode="/" horiz-adv-x="827" d="M53 0l639 1524h92l-632 -1524h-99z" />
<glyph unicode="0" d="M139 471v573q0 232 119 364t342 132q220 0 335.5 -131.5t115.5 -366.5v-567q0 -235 -115.5 -366.5t-335.5 -131.5q-222 0 -341.5 131.5t-119.5 362.5zM229 475q0 -197 91.5 -305.5t275.5 -108.5q185 0 275 107.5t90 306.5v565q0 200 -90 308t-275 108t-276 -108.5 t-91 -307.5v-565z" />
<glyph unicode="1" d="M150 0v86h471v1348h-138q-138 0 -217 -35l-24 88q40 17 108 27t127 10h150q92 0 92 -88v-1350h387v-86h-956z" />
<glyph unicode="2" d="M127 61q0 37 27 64l563 551q133 129 189.5 228.5t56.5 221.5q0 86 -27.5 149.5t-77 99.5t-110.5 53.5t-134 17.5q-134 0 -372 -72l-86 -26l-19 86l84 26q232 74 395 74q89 0 165 -22.5t139 -69.5t99 -128.5t36 -189.5q0 -132 -62 -249.5t-209 -258.5l-553 -534h828v-82 h-873q-29 0 -44 16.5t-15 44.5z" />
<glyph unicode="3" d="M115 80l20 86l101 -29q237 -69 382 -69q175 0 276 78.5t101 228.5q0 69 -22.5 121.5t-73.5 103.5l-123 125h-282v82h284l94 129q82 114 82 227q0 134 -87.5 208.5t-245.5 74.5q-131 0 -371 -70l-82 -24l-18 86l79 24q237 72 394 72q197 0 310.5 -95.5t113.5 -275.5 q0 -134 -91 -256l-102 -135l123 -129q57 -60 83.5 -122t26.5 -142q0 -188 -129.5 -292.5t-336.5 -104.5q-167 0 -406 69z" />
<glyph unicode="4" d="M84 369q0 28 22 57l701 1063q31 45 78 45q65 0 65 -70v-1073h180v-84h-180v-307h-90v307h-717q-29 0 -44 17t-15 45zM190 391h670v1014z" />
<glyph unicode="5" d="M123 76l18 86l95 -27q232 -65 356 -65q197 0 299 113t102 298q0 393 -395 393q-118 0 -299 -53l-102 -30v733h819v-90h-733v-535q204 62 325 62q227 0 351 -118.5t124 -361.5q0 -226 -132 -361.5t-359 -135.5q-155 0 -377 65z" />
<glyph unicode="6" d="M139 494v565q0 221 121 348t334 127q133 0 377 -68l82 -24l-19 -86l-84 24q-236 66 -354 66q-178 0 -272.5 -99.5t-94.5 -287.5v-187q233 84 375 84q242 0 365 -125.5t123 -351.5q0 -218 -123 -354.5t-346 -136.5q-224 0 -354 139.5t-130 366.5zM229 498 q0 -197 104 -312.5t292 -115.5q178 0 275 112t97 297q0 181 -96 285t-303 104q-121 0 -369 -80v-290z" />
<glyph unicode="7" d="M147 1438v86h889q31 0 48.5 -16t17.5 -44q0 -14 -15 -59l-581 -1405h-100l598 1438h-857z" />
<glyph unicode="8" d="M104 373q0 81 26.5 144.5t82.5 123.5l121 129l-101 135q-88 123 -88 256q0 178 122 276.5t325 98.5q205 0 328.5 -98.5t123.5 -276.5q0 -135 -90 -256l-100 -135l121 -129q57 -60 83.5 -123t26.5 -145q0 -189 -132.5 -291t-356.5 -102q-223 0 -357.5 102t-134.5 291z M197 373q0 -151 105.5 -229t291.5 -78q188 0 293.5 78t105.5 229q0 68 -22.5 119.5t-73.5 105.5l-121 125h-364l-119 -125q-51 -53 -73.5 -105t-22.5 -120zM238 1161q0 -115 81 -227l93 -129h366l92 129q82 119 82 227q0 133 -96 210t-262 77q-167 0 -261.5 -76.5 t-94.5 -210.5z" />
<glyph unicode="9" d="M111 1040q0 219 123 356.5t346 137.5t353 -139.5t130 -368.5v-563q0 -222 -121 -348.5t-334 -126.5q-147 0 -379 67l-82 23l19 86l84 -23q239 -67 356 -67q177 0 271 100.5t94 288.5v186q-239 -86 -375 -86q-241 0 -363 125.5t-122 351.5zM203 1040q0 -181 97.5 -285 t303.5 -104q119 0 367 80v291q0 198 -103.5 313t-292.5 115q-178 0 -275 -112.5t-97 -297.5z" />
<glyph unicode=":" horiz-adv-x="419" d="M147 63q0 37 19 58.5t51 21.5q34 0 53 -21.5t19 -58.5t-19 -57t-53 -20q-33 0 -51.5 20.5t-18.5 56.5zM147 1020q0 37 19 58.5t51 21.5q34 0 53 -21.5t19 -58.5t-19 -57.5t-53 -20.5q-32 0 -51 20.5t-19 57.5z" />
<glyph unicode=";" horiz-adv-x="419" d="M115 -158l92 344h104l-102 -368q-12 -43 -51 -43q-27 0 -39 19.5t-4 47.5zM180 1020q0 37 19 58.5t51 21.5t50.5 -21.5t18.5 -58.5t-18.5 -57.5t-50.5 -20.5t-51 20.5t-19 57.5z" />
<glyph unicode="&#x3c;" d="M109 604q0 47 45 64l931 395v-100l-872 -361l872 -354v-98l-933 389q-43 18 -43 65z" />
<glyph unicode="=" d="M125 389v90h938v-90h-938zM125 743v91h938v-91h-938z" />
<glyph unicode="&#x3e;" d="M104 150v98l873 354l-873 361v100l932 -395q45 -17 45 -64t-43 -65z" />
<glyph unicode="?" horiz-adv-x="921" d="M80 1456l65 21q185 53 330 53q168 0 269.5 -88.5t101.5 -241.5q0 -109 -36 -180t-118 -158l-203 -211v-174l-88 -16v147q0 44 8 66t35 51l179 186q74 79 103.5 138t29.5 151q0 110 -71.5 176t-211.5 66q-137 0 -309 -49l-68 -19zM379 63q0 37 19 58.5t51 21.5t50.5 -21.5 t18.5 -58.5t-18.5 -57t-50.5 -20q-33 0 -51.5 20.5t-18.5 56.5z" />
<glyph unicode="@" horiz-adv-x="1882" d="M174 727q0 240 104 428.5t287.5 292.5t413.5 104q156 0 291.5 -52t233 -144t153 -225t55.5 -289q0 -228 -111.5 -369t-265.5 -141q-45 0 -107 24.5t-95 24.5q-35 0 -127 -16.5t-144 -16.5q-151 0 -231 93.5t-80 240.5q0 121 45.5 219.5t140.5 160.5t224 62q89 0 237 -24 l10 80h80l-94 -731q7 -1 31 -12.5t55 -21t61 -9.5q115 0 201 118.5t86 319.5q0 187 -85.5 330.5t-232.5 219.5t-331 76q-210 0 -373.5 -94t-254.5 -263.5t-91 -385.5q0 -143 42.5 -266t120.5 -214t196 -142.5t262 -51.5q91 0 179 21t162.5 42t133.5 21q57 0 114 -31l80 -49 l-30 -61l-76 37q-50 24 -92 24q-53 0 -126 -20t-164 -40t-188 -20q-162 0 -295 58.5t-221 160t-136 238t-48 293.5zM635 680q0 -116 59 -189t176 -73q56 0 244 35l76 577q-123 23 -229 23q-108 0 -183.5 -53t-109 -135.5t-33.5 -184.5z" />
<glyph unicode="A" horiz-adv-x="1394" d="M55 0l572 1483q21 53 75 53q58 0 76 -53l559 -1483h-100l-141 371h-799l-141 -371h-101zM326 453h741l-367 983z" />
<glyph unicode="B" horiz-adv-x="1370" d="M178 86v1354q0 40 23.5 62t66.5 22h531q184 0 286.5 -93.5t102.5 -259.5q0 -126 -86 -258l-103 -141l131 -137q59 -63 88 -126t29 -142q0 -168 -117 -267.5t-317 -99.5h-543q-43 0 -67.5 23t-24.5 63zM272 82h547q158 0 247 76t89 204q0 126 -104 230l-129 133h-650v-643 zM272 807h650l94 135q78 118 78 229q0 125 -73.5 198t-221.5 73h-527v-635z" />
<glyph unicode="C" horiz-adv-x="1337" d="M123 758q0 192 49.5 342t138 243t206.5 141t259 48q150 0 389 -76l95 -29l-19 -86l-98 31q-234 72 -367 72q-127 0 -228.5 -41.5t-175 -124.5t-113.5 -215t-40 -305q0 -344 149.5 -516t409.5 -172q128 0 365 73l98 31l19 -86l-95 -31q-229 -73 -389 -73 q-143 0 -260.5 46.5t-206 139t-137.5 242.5t-49 346z" />
<glyph unicode="D" horiz-adv-x="1478" d="M178 86v1352q0 40 24.5 63t67.5 23h414q312 0 492 -203.5t180 -562.5q0 -178 -49 -321.5t-137.5 -239t-211.5 -146.5t-270 -51h-418q-43 0 -67.5 23t-24.5 63zM274 84h412q268 0 422 177t154 497q0 318 -156 500t-434 182h-398v-1356z" />
<glyph unicode="E" horiz-adv-x="1234" d="M178 86v1352q0 40 24.5 63t67.5 23h844v-86h-840v-617h740v-84h-740v-653h844v-84h-848q-43 0 -67.5 23t-24.5 63z" />
<glyph unicode="F" horiz-adv-x="1161" d="M178 0v1438q0 40 24.5 63t67.5 23h824v-86h-820v-645h752v-84h-752v-709h-96z" />
<glyph unicode="G" horiz-adv-x="1460" d="M123 756q0 192 51.5 342t143.5 243t214 141t269 48q152 0 413 -76l97 -29l-21 -88l-100 31q-260 74 -389 74q-270 0 -426 -171.5t-156 -514.5q0 -173 43.5 -305.5t123.5 -215.5t188 -125t241 -42q184 0 406 57v485h-383v84h385q43 0 66.5 -23.5t23.5 -64.5v-465 q0 -74 -76 -92q-225 -65 -422 -65q-151 0 -276 46.5t-218.5 139t-145.5 242t-52 344.5z" />
<glyph unicode="H" horiz-adv-x="1454" d="M178 0v1524h94v-709h910v709h94v-1524h-94v733h-910v-733h-94z" />
<glyph unicode="I" horiz-adv-x="452" d="M178 0v1524h96v-1524h-96z" />
<glyph unicode="J" horiz-adv-x="747" d="M51 20l15 89q142 -31 190 -31q116 0 170.5 65t54.5 203v1178h92v-1184q0 -171 -81.5 -259.5t-235.5 -88.5q-77 0 -205 28z" />
<glyph unicode="K" horiz-adv-x="1314" d="M178 0v1524h94v-992l811 992h123l-436 -520l477 -1004h-100l-447 928l-335 -406q-33 -38 -48.5 -59t-30 -58.5t-14.5 -78.5v-326h-94z" />
<glyph unicode="L" horiz-adv-x="1144" d="M178 86v1438h96v-1438h785v-86h-789q-43 0 -67.5 23t-24.5 63z" />
<glyph unicode="M" horiz-adv-x="1748" d="M178 0v1458q0 74 78 74q67 0 90 -64l524 -1372l543 1374q24 62 84 62q72 0 72 -74v-1458h-88v1409l-545 -1370q-15 -45 -68 -45t-69 45l-533 1372v-1411h-88z" />
<glyph unicode="N" horiz-adv-x="1503" d="M178 0v1464q0 70 68 70q46 0 73 -43l916 -1366v1399h88v-1463q0 -35 -17.5 -53t-48.5 -18q-46 0 -73 43l-916 1366v-1399h-90z" />
<glyph unicode="O" horiz-adv-x="1597" d="M123 758q0 365 184.5 569.5t493.5 204.5t491.5 -204t182.5 -570q0 -368 -184 -571t-494 -203t-492 203t-182 571zM217 758q0 -329 157 -510.5t427 -181.5t423.5 181t153.5 511q0 326 -155.5 508t-425.5 182q-271 0 -425.5 -181.5t-154.5 -508.5z" />
<glyph unicode="P" horiz-adv-x="1263" d="M178 0v1438q0 40 24.5 63t67.5 23h471q191 0 310.5 -122t119.5 -329t-125 -327.5t-325 -120.5h-451v-625h-92zM270 707h451q164 0 263 97.5t99 268.5q0 169 -95 269t-253 100h-465v-735z" />
<glyph unicode="Q" horiz-adv-x="1597" d="M123 758q0 365 184.5 569.5t493.5 204.5q308 0 491 -204t183 -570q0 -295 -120 -473.5t-327 -241.5q8 -2 72.5 -28.5t144.5 -48t152 -21.5h51v-78h-51q-86 0 -167.5 21t-135.5 45.5t-130 45.5t-151 21q-155 0 -281.5 48.5t-218 142.5t-141 238.5t-49.5 328.5zM217 758 q0 -327 159 -502.5t433 -175.5q272 0 420.5 172.5t148.5 505.5q0 326 -155.5 508t-427.5 182q-271 0 -424.5 -181.5t-153.5 -508.5z" />
<glyph unicode="R" horiz-adv-x="1325" d="M178 0v1440q0 40 23.5 62t66.5 22h512q195 0 301.5 -105t106.5 -291q0 -150 -117 -299l-127 -159l313 -670h-102l-299 643h-584v-643h-94zM272 725h611l104 135q109 149 109 266q0 145 -78.5 230.5t-239.5 85.5h-506v-717z" />
<glyph unicode="S" horiz-adv-x="1288" d="M133 100l23 86l94 -30q269 -86 455 -86q71 0 134.5 18.5t115 55.5t82 98.5t30.5 140.5q0 120 -67 192.5t-209 104.5l-302 68q-348 80 -348 382q0 101 38 180.5t102 127t143.5 72t167.5 24.5q116 0 224 -22t241 -66l92 -29l-21 -88l-94 31q-262 86 -440 86 q-73 0 -136 -18.5t-113.5 -55t-79.5 -98t-29 -141.5q0 -119 65.5 -190t206.5 -103l301 -70q352 -77 352 -383q0 -102 -38 -181t-103 -126.5t-144.5 -71.5t-168.5 -24q-212 0 -482 86z" />
<glyph unicode="T" horiz-adv-x="1236" d="M72 1438v86h1093v-86h-499v-1438h-97v1438h-497z" />
<glyph unicode="U" horiz-adv-x="1468" d="M168 532v992h96v-992q0 -227 119.5 -351t351.5 -124q237 0 353 122t116 353v992h96v-992q0 -264 -147 -412.5t-418 -148.5q-272 0 -419.5 148.5t-147.5 412.5z" />
<glyph unicode="V" horiz-adv-x="1359" d="M55 1524h103l522 -1426l524 1426h99l-555 -1485q-17 -51 -72 -51t-70 51z" />
<glyph unicode="W" horiz-adv-x="1867" d="M72 1524h92l268 -1422l436 1373q12 49 68 49q53 0 68 -49l426 -1373l276 1422h90l-289 -1479q-13 -59 -73 -59q-61 0 -76 55l-424 1380l-436 -1380q-15 -53 -74 -53t-72 59z" />
<glyph unicode="X" horiz-adv-x="1349" d="M92 0l522 770l-516 754h115l467 -686l459 686h108l-508 -752l518 -772h-112l-469 705l-473 -705h-111z" />
<glyph unicode="Y" horiz-adv-x="1312" d="M51 1524h111l500 -776l491 776h109l-553 -860v-664h-99v659z" />
<glyph unicode="Z" horiz-adv-x="1304" d="M123 63q0 33 20 56l926 1321h-922v84h961q31 0 47 -17.5t16 -46.5q0 -30 -18 -57l-926 -1321h955v-82h-996q-31 0 -47 17t-16 46z" />
<glyph unicode="[" horiz-adv-x="559" d="M160 -133v1657h332v-82h-240v-1493h240v-82h-332z" />
<glyph unicode="\" horiz-adv-x="827" d="M53 1524h92l639 -1524h-96z" />
<glyph unicode="]" horiz-adv-x="559" d="M70 -51h239v1493h-239v82h331v-1657h-331v82z" />
<glyph unicode="^" d="M139 94l391 969q18 41 60 41q43 0 61 -43l398 -967h-103l-356 897l-350 -897h-101z" />
<glyph unicode="_" horiz-adv-x="1024" d="M-4 -236h1032v-83h-1032v83z" />
<glyph unicode="`" horiz-adv-x="1069" d="M391 1563h137l172 -164q19 -19 19 -39q0 -15 -11 -28t-30 -13q-20 0 -41 18z" />
<glyph unicode="a" horiz-adv-x="1204" d="M123 281q0 84 31.5 146.5t89.5 100t132.5 55t168.5 17.5h381v162q0 142 -80 209t-221 67q-136 0 -373 -65l-62 -19l-18 86l61 17q244 69 394 69q84 0 153 -20.5t122 -63.5t82.5 -114t29.5 -166v-625l135 -80l-37 -69l-102 61q-32 17 -67 17q-19 0 -38 -5l-117 -28 q-199 -47 -317 -47q-165 0 -256.5 78t-91.5 217zM215 285q0 -108 68.5 -162.5t199.5 -54.5q120 0 291 41l152 34v377h-383q-162 0 -245 -55.5t-83 -179.5z" />
<glyph unicode="b" horiz-adv-x="1212" d="M164 152v1404l90 19v-531q235 78 367 78q236 0 357.5 -146.5t121.5 -422.5q0 -256 -134 -408.5t-364 -152.5q-146 0 -362 63q-76 22 -76 97zM254 141q217 -63 344 -63q200 0 305 129.5t105 345.5q0 228 -98.5 354.5t-299.5 126.5q-129 -4 -356 -73v-820z" />
<glyph unicode="c" horiz-adv-x="1064" d="M113 557q0 273 131 420t352 147q102 0 303 -55l80 -20l-18 -86l-82 22q-185 51 -279 51q-187 0 -290 -121.5t-103 -357.5q0 -238 102.5 -359.5t290.5 -121.5q87 0 279 53l82 23l18 -86l-80 -23q-7 -2 -20 -5q-182 -47 -265 -50h-18q-223 0 -353 144.5t-130 424.5z" />
<glyph unicode="d" horiz-adv-x="1212" d="M113 553q0 273 124.5 421t358.5 148q111 0 362 -78v515l91 20v-1427q0 -76 -78 -97q-227 -63 -365 -63q-231 0 -362 149.5t-131 411.5zM205 553q0 -216 104.5 -345.5t302.5 -129.5q132 0 346 63v820q-235 69 -358 73q-199 0 -297 -126.5t-98 -354.5z" />
<glyph unicode="e" d="M113 555q0 141 38 252.5t105 181t154.5 105.5t189.5 36q221 0 351 -143t130 -407q0 -64 -61 -64h-813q6 -217 122 -329.5t304 -112.5q119 0 311 61l100 33l19 -84l-96 -33q-108 -35 -180 -49t-156 -14q-114 0 -208 35.5t-163.5 104.5t-108 178t-38.5 249zM207 598h780 q0 207 -101 330t-288 123q-172 0 -278.5 -121.5t-112.5 -331.5z" />
<glyph unicode="f" horiz-adv-x="747" d="M61 1010v82h191v129q0 169 79.5 256.5t225.5 87.5q66 0 201 -29l-15 -84q-126 27 -188 27q-109 0 -161 -64t-52 -201v-122h365v-82h-365v-1010h-90v1010h-191z" />
<glyph unicode="g" horiz-adv-x="1200" d="M113 772q0 165 121 252.5t331 87.5h127q116 0 164 14l272 70l21 -80l-299 -76q7 -2 18.5 -7t40.5 -26.5t51.5 -48t41 -75.5t18.5 -107q0 -175 -120 -260.5t-335 -85.5q-44 0 -85 5t-60 11l-19 5q39 -39 39 -103q0 -35 -17 -66t-61 -81h441q162 0 247 -65.5t85 -176.5 q0 -156 -136 -242t-415 -86q-95 0 -175 16t-144.5 48.5t-101 89t-36.5 131.5q0 117 96 229l66 80q39 44 54 70.5t15 58.5q0 43 -19.5 74t-68.5 61q-157 94 -157 283zM201 772q0 -272 364 -272q81 0 145.5 15t115 46.5t77.5 85t27 125.5q0 264 -361 264q-175 0 -271.5 -64.5 t-96.5 -199.5zM215 -82q0 -108 102.5 -159.5t274.5 -51.5q455 0 455 248q0 77 -60 122.5t-186 45.5h-496q-48 -53 -69 -100.5t-21 -104.5z" />
<glyph unicode="h" horiz-adv-x="1157" d="M164 0v1559l90 18v-535q239 80 364 80q106 0 183.5 -30.5t121 -86.5t63.5 -125t20 -155v-725h-91v723q0 69 -14.5 122.5t-48 97.5t-95 67.5t-147.5 23.5q-120 0 -356 -73v-961h-90z" />
<glyph unicode="i" horiz-adv-x="456" d="M158 1489q0 37 18.5 58.5t50.5 21.5q34 0 53 -21.5t19 -58.5q0 -36 -19.5 -57t-52.5 -21q-32 0 -50.5 21t-18.5 57zM182 0v1114h92v-1114h-92z" />
<glyph unicode="j" horiz-adv-x="495" d="M25 -289q196 3 196 248v1155h94v-1159q0 -154 -77.5 -240t-212.5 -86v82zM197 1489q0 37 18.5 58.5t50.5 21.5t51 -21.5t19 -58.5q0 -35 -19 -56.5t-51 -21.5t-50.5 21t-18.5 57z" />
<glyph unicode="k" horiz-adv-x="1101" d="M164 0v1556l90 19v-1153l633 692h121l-361 -387l404 -727h-109l-367 659l-233 -249q-44 -42 -66 -83.5t-22 -103.5v-223h-90z" />
<glyph unicode="l" horiz-adv-x="421" d="M164 0v1556l94 21v-1577h-94z" />
<glyph unicode="m" horiz-adv-x="1767" d="M164 0v965q0 71 76 96q180 61 323 61q191 0 283 -106q226 106 401 106q183 0 272 -101.5t89 -275.5v-745h-90v737q0 297 -279 297q-83 0 -162 -21t-186 -67q41 -78 41 -201v-745h-90v737q0 299 -283 299q-125 0 -305 -59v-977h-90z" />
<glyph unicode="n" horiz-adv-x="1175" d="M164 0v961q0 77 76 96q219 65 368 65q208 0 308 -108t100 -291v-723h-90v715q0 321 -326 321q-137 0 -346 -63v-973h-90z" />
<glyph unicode="o" horiz-adv-x="1234" d="M113 557q0 272 136.5 419.5t368.5 147.5t368 -147.5t136 -419.5q0 -271 -138 -420t-370 -149q-231 0 -366 149t-135 420zM207 557q0 -235 109 -361t302 -126t301.5 126t108.5 361q0 233 -110.5 359t-303.5 126q-192 0 -299.5 -125.5t-107.5 -359.5z" />
<glyph unicode="p" horiz-adv-x="1212" d="M164 -383v1344q0 77 76 96q224 65 366 65q231 0 362.5 -149.5t131.5 -411.5q0 -273 -125.5 -421t-360.5 -148q-122 0 -360 78v-435zM254 152q242 -72 356 -72q201 0 299.5 126t98.5 353q0 218 -105 347.5t-305 129.5q-130 0 -344 -63v-821z" />
<glyph unicode="q" horiz-adv-x="1212" d="M113 561q0 257 133.5 409t363.5 152q139 0 361 -65q78 -18 78 -96v-1323l-91 -19v451q-235 -78 -366 -78q-236 0 -357.5 146.5t-121.5 422.5zM205 559q0 -227 97.5 -353t297.5 -126q114 0 358 72v821q-220 63 -346 63q-198 0 -302.5 -129.5t-104.5 -347.5z" />
<glyph unicode="r" horiz-adv-x="718" d="M164 0v961q0 74 76 96q111 35 208.5 50t229.5 15v-90q-231 0 -422 -61v-971h-92z" />
<glyph unicode="s" horiz-adv-x="1095" d="M127 72l18 84l80 -21q219 -61 367 -61q122 0 200 54t78 161q0 85 -53 134.5t-176 70.5l-215 38q-291 52 -291 285q0 103 53.5 174.5t135.5 103t184 31.5q165 0 383 -61l76 -23l-19 -86l-78 23q-214 59 -364 59q-122 0 -200.5 -55t-78.5 -162q0 -84 52.5 -133t175.5 -72 l215 -38q293 -52 293 -283q0 -103 -53.5 -174.5t-135.5 -103t-184 -31.5q-162 0 -385 63z" />
<glyph unicode="t" horiz-adv-x="827" d="M61 1008v84h185v292l92 19v-311h391v-84h-391v-670q0 -135 50 -199.5t159 -64.5q66 0 190 28l15 -86q-6 -1 -44 -8t-57 -10t-51 -6.5t-57 -3.5q-297 0 -297 342v678h-185z" />
<glyph unicode="u" horiz-adv-x="1175" d="M158 389v725h90v-717q0 -319 325 -319q145 0 347 61v975h92v-962q0 -75 -76 -97q-212 -63 -371 -63q-207 0 -307 108t-100 289z" />
<glyph unicode="v" horiz-adv-x="1085" d="M66 1114h102l369 -1034l383 1034h100l-412 -1083q-20 -51 -73 -51q-59 0 -74 51z" />
<glyph unicode="w" horiz-adv-x="1611" d="M82 1114h96l209 -1030l361 991q12 43 59 43t59 -43l353 -993l217 1032h94l-240 -1077q-6 -28 -24.5 -44t-46.5 -16q-57 0 -72 54l-340 970l-354 -970q-17 -51 -74 -51q-60 0 -72 57z" />
<glyph unicode="x" horiz-adv-x="1071" d="M78 0l403 563l-393 551h113l342 -485l329 485h109l-381 -545l399 -569h-112l-348 502l-353 -502h-108z" />
<glyph unicode="y" horiz-adv-x="1075" d="M66 1114h104l403 -1059l342 1059h103l-426 -1266q-38 -111 -107.5 -166t-181.5 -55q-75 0 -197 31l17 86q125 -33 180 -33q85 0 132 43t71 123l18 64z" />
<glyph unicode="z" horiz-adv-x="1091" d="M113 61q0 33 22 58l735 915h-733v80h778q30 0 45 -16.5t15 -44.5q0 -30 -21 -58l-737 -915h768v-80h-813q-59 0 -59 61z" />
<glyph unicode="{" horiz-adv-x="546" d="M133 662v63q65 -1 101 36.5t36 94.5q0 50 -27.5 118t-55 144.5t-27.5 145.5q0 122 72.5 191t187.5 69h59v-84h-59q-80 0 -127 -46t-47 -134q0 -61 27 -133t54 -142.5t27 -128.5q0 -105 -100 -164q100 -59 100 -162q0 -58 -27 -128t-54 -142t-27 -135q0 -88 47 -134 t127 -46h59v-82h-59q-115 0 -187.5 69t-72.5 189q0 69 27.5 145.5t55 145t27.5 118.5q0 56 -36 94t-101 38z" />
<glyph unicode="|" horiz-adv-x="432" d="M174 -369v1932h84v-1932h-84z" />
<glyph unicode="}" horiz-adv-x="546" d="M72 -55h61q79 0 125.5 46.5t46.5 133.5q0 63 -26.5 135t-53 142t-26.5 128q0 99 98 162q-98 63 -98 164q0 58 26.5 128.5t53 142.5t26.5 133q0 88 -46.5 134t-125.5 46h-61v84h61q115 0 187.5 -69t72.5 -191q0 -55 -17.5 -115.5t-38.5 -104t-38.5 -95.5t-17.5 -93 q0 -57 36.5 -94.5t102.5 -36.5v-63q-66 0 -102.5 -38t-36.5 -94q0 -50 28 -118.5t56 -145t28 -145.5q0 -120 -72.5 -189t-187.5 -69h-61v82z" />
<glyph unicode="~" d="M111 563q48 115 119.5 168t154.5 53q89 0 174 -63l129 -96q62 -50 123 -50q131 0 201 175l71 -48q-89 -219 -274 -219q-89 0 -172 62l-131 98q-61 49 -121 49q-127 0 -205 -176z" />
<glyph unicode="&#xa1;" horiz-adv-x="419" d="M147 1077q0 37 19 58.5t51 21.5t51 -21.5t19 -58.5t-19 -57.5t-51 -20.5t-51 20.5t-19 57.5zM170 -381v1040l94 19v-1059h-94z" />
<glyph unicode="&#xa2;" d="M145 557q0 257 117.5 402.5t317.5 160.5v258h90v-258q82 -4 262 -51l80 -22l-17 -86l-82 22q-196 53 -280 53q-187 0 -289 -121.5t-102 -357.5q0 -237 102.5 -358t290.5 -121q89 0 278 51l82 23l17 -86l-80 -21q-161 -46 -262 -53v-264h-90v264q-201 14 -318 157.5 t-117 407.5z" />
<glyph unicode="&#xa3;" d="M63 41q0 19 10.5 31t30.5 12q334 0 334 324q0 85 -45 184h-260v80h223q-17 32 -57 100t-55.5 98.5t-38 82.5t-31 99t-8.5 101q0 172 117 278.5t313 106.5q148 0 391 -74l74 -22l-19 -86l-75 22q-239 72 -369 72q-168 0 -253 -83t-85 -214q0 -49 7.5 -90.5t28 -89 t38 -80.5t57 -102t64.5 -117h411v-80h-374q40 -94 40 -186q0 -227 -172 -324h445q115 0 174 48t65 147h78q-5 -131 -86 -205t-229 -74h-703q-41 0 -41 41z" />
<glyph unicode="&#xa4;" horiz-adv-x="1024" d="M47 573q0 187 113 306l-107 108l53 53l107 -104q123 111 297 111q175 0 295 -111l108 104l54 -53l-107 -108q113 -125 113 -306q0 -182 -113 -307l107 -108l-54 -52l-106 105q-120 -111 -297 -111t-297 111l-107 -105l-53 52l105 108q-111 123 -111 307zM131 573 q0 -163 109 -276t270 -113q160 0 269.5 113.5t109.5 275.5q0 161 -109.5 275.5t-269.5 114.5q-161 0 -270 -114t-109 -276z" />
<glyph unicode="&#xa5;" d="M78 1524h110l412 -693l401 693h109l-418 -705h389v-80h-434v-194h434v-82h-434v-463h-98v463h-443v82h443v194h-443v80h398z" />
<glyph unicode="&#xa6;" horiz-adv-x="436" d="M174 -369v770h84v-770h-84zM174 795v768h84v-768h-84z" />
<glyph unicode="&#xa7;" d="M123 666v393q0 216 119.5 346.5t339.5 130.5q143 0 389 -70l76 -22l-21 -86l-74 20q-126 37 -209 54.5t-159 17.5q-185 0 -277 -104t-92 -287v-172q235 78 373 78q477 0 477 -473v-396q0 -215 -120.5 -346t-340.5 -131q-140 0 -389 70l-74 22l19 86l76 -20 q127 -37 208.5 -54.5t157.5 -17.5q186 0 278.5 104t92.5 287v172q-239 -78 -375 -78q-475 0 -475 476zM215 666q0 -90 18.5 -157.5t62 -122t121.5 -82.5t189 -28q116 0 367 78v138q0 89 -19 156.5t-62.5 121t-121 81.5t-188.5 28q-118 0 -367 -78v-135z" />
<glyph unicode="&#xa8;" horiz-adv-x="1110" d="M330 1489q0 37 18.5 58.5t50.5 21.5t51 -21.5t19 -58.5q0 -35 -19 -56.5t-51 -21.5t-50.5 21t-18.5 57zM709 1489q0 37 18.5 58.5t50.5 21.5q34 0 53 -21.5t19 -58.5q0 -36 -19.5 -57t-52.5 -21q-32 0 -50.5 21t-18.5 57z" />
<glyph unicode="&#xa9;" horiz-adv-x="1882" d="M137 754q0 173 64 322.5t173 252.5t256 162t310 59t309.5 -58t255.5 -160.5t172.5 -252.5t63.5 -325q0 -171 -63.5 -322t-171.5 -256.5t-255.5 -166t-310.5 -60.5t-310 60.5t-256 166t-173 256.5t-64 322zM217 754q0 -155 57.5 -291t155 -231t230.5 -150t280 -55 q198 0 362.5 92.5t261.5 259.5t97 375q0 211 -97.5 376.5t-261.5 254t-362 88.5q-148 0 -280.5 -53t-230 -146t-155 -228.5t-57.5 -291.5zM561 750q0 204 104.5 312.5t278.5 108.5q77 0 234 -41l57 -16l-16 -70l-60 15q-133 37 -213 37q-142 0 -222.5 -87.5t-80.5 -258.5 q0 -169 81.5 -256.5t223.5 -87.5q81 0 211 36l60 17l16 -72l-57 -14q-153 -43 -234 -43q-175 0 -279 106.5t-104 313.5z" />
<glyph unicode="&#xaa;" d="M229 913q0 126 86.5 183t233.5 57h270v104q0 205 -203 205q-113 0 -274 -41l-63 -16l-17 72l64 18q178 47 290 47q128 0 205.5 -68.5t77.5 -216.5v-469l94 -51l-30 -61l-84 41q-29 14 -82 4l-129 -25q-134 -22 -179 -22q-125 0 -192.5 64.5t-67.5 174.5zM315 915 q0 -167 185 -167q46 0 190 24l129 25v282h-270q-116 0 -175 -37.5t-59 -126.5z" />
<glyph unicode="&#xab;" horiz-adv-x="1122" d="M117 573q0 32 28 60l326 321h121l-385 -381l391 -378h-121l-332 319q-28 28 -28 59zM545 573q0 34 26 60l328 321h119l-385 -381l391 -378h-119l-334 319q-26 26 -26 59z" />
<glyph unicode="&#xac;" d="M125 741v90h936v-507h-88v417h-848z" />
<glyph unicode="&#xad;" d="M127 563v90h936v-90h-936z" />
<glyph unicode="&#xae;" horiz-adv-x="1882" d="M137 754q0 173 64 322.5t173 252.5t256 162t310 59t309.5 -58t255.5 -160.5t172.5 -252.5t63.5 -325q0 -171 -63.5 -322t-171.5 -256.5t-255.5 -166t-310.5 -60.5t-310 60.5t-256 166t-173 256.5t-64 322zM217 754q0 -155 57.5 -291t155 -231t230.5 -150t280 -55 q198 0 362.5 92.5t261.5 259.5t97 375q0 211 -97.5 376.5t-261.5 254t-362 88.5q-148 0 -280.5 -53t-230 -146t-155 -228.5t-57.5 -291.5zM670 344v752q0 69 78 69h282q105 0 170.5 -60t65.5 -163q0 -75 -49 -151l-76 -109l166 -338h-88l-150 313h-321v-313h-78zM748 727 h333l64 90q39 58 39 125q0 72 -44.5 113t-117.5 41h-274v-369z" />
<glyph unicode="&#xaf;" horiz-adv-x="1069" d="M244 1393v88h602v-88h-602z" />
<glyph unicode="&#xb0;" d="M242 1176q0 168 100.5 278.5t267.5 110.5q165 0 263 -110t98 -279q0 -172 -100 -283t-265 -111q-168 0 -266 111t-98 283zM328 1176q0 -141 74.5 -230.5t205.5 -89.5q130 0 203.5 89t73.5 231q0 139 -74.5 227t-202.5 88q-133 0 -206.5 -87.5t-73.5 -227.5z" />
<glyph unicode="&#xb1;" d="M125 0v84h938v-84h-938zM125 631v88h420v387h90v-387h428v-88h-428v-375h-90v375h-420z" />
<glyph unicode="&#xb2;" horiz-adv-x="604" d="M66 1067q0 23 20 39l262 244q59 55 81 92t22 94q0 63 -40 95t-104 32q-89 0 -174 -33l-47 -16l-14 67l45 17q104 35 192 35q94 0 154.5 -49.5t60.5 -147.5q0 -65 -28.5 -119t-98.5 -117l-227 -210h360v-66h-419q-45 0 -45 43z" />
<glyph unicode="&#xb3;" horiz-adv-x="604" d="M61 1063l17 70l45 -15q116 -35 190 -35q73 0 113.5 32t40.5 87q0 46 -45 94l-45 47h-141v66h141l39 51q30 41 30 94q0 49 -33.5 79t-101.5 30q-79 0 -174 -31l-47 -16l-14 67l45 15q104 35 190 35q103 0 156 -46t53 -131q0 -69 -43 -126l-39 -52l45 -47q60 -63 60 -127 q0 -86 -63.5 -137t-166.5 -51q-101 0 -207 33z" />
<glyph unicode="&#xb4;" horiz-adv-x="1081" d="M440 1360q0 20 19 39l172 164h137l-246 -226q-21 -18 -41 -18q-19 0 -30 13t-11 28z" />
<glyph unicode="&#xb5;" d="M168 -381v1495h90v-717q0 -315 326 -315q150 0 346 59v973h90v-960q0 -75 -76 -97q-205 -61 -369 -61q-236 -3 -319 145v-522h-88z" />
<glyph unicode="&#xb6;" horiz-adv-x="1265" d="M102 995q0 111 30 206t88 167.5t151.5 114t212.5 41.5h546v-1905h-88v1823h-352v-1823h-88v850q-123 0 -219.5 41t-157 113t-92 166.5t-31.5 205.5z" />
<glyph unicode="&#xb7;" horiz-adv-x="753" d="M317 752q0 36 18.5 56.5t51.5 20.5t51.5 -20.5t18.5 -56.5q0 -37 -19 -58.5t-51 -21.5t-51 21.5t-19 58.5z" />
<glyph unicode="&#xb8;" horiz-adv-x="1069" d="M371 -369l18 60q62 -27 135 -27q129 0 129 84q0 49 -45 68.5t-141 17.5l-8 12l82 154h59l-61 -117q82 0 133 -32.5t51 -104.5q0 -69 -54 -107t-141 -38q-84 0 -157 30z" />
<glyph unicode="&#xb9;" horiz-adv-x="604" d="M66 1024v68h225v561h-58q-50 0 -106 -21l-21 68q56 22 125 22h76q62 0 62 -59v-571h176v-68h-479z" />
<glyph unicode="&#xba;" d="M219 1110q0 200 101.5 316t271.5 116q171 0 271 -116t100 -316q0 -201 -102.5 -318.5t-272.5 -117.5q-171 0 -270 116.5t-99 319.5zM305 1110q0 -170 75.5 -265t209.5 -95q135 0 211 95.5t76 264.5q0 166 -77 262t-210 96q-134 0 -209.5 -95.5t-75.5 -262.5z" />
<glyph unicode="&#xbb;" horiz-adv-x="1122" d="M96 195l393 378l-387 381h121l326 -321q29 -29 29 -60q0 -30 -29 -59l-332 -319h-121zM524 195l391 378l-385 381h119l328 -321q27 -27 27 -60q0 -32 -27 -59l-334 -319h-119z" />
<glyph unicode="&#xbc;" d="M57 823v68h226v561h-58q-52 0 -106 -20l-21 67q59 23 125 23h76q61 0 61 -60v-571h177v-68h-480zM221 0l785 1524h84l-783 -1524h-86zM625 160q0 20 14 37l324 469q17 28 51 28q45 0 45 -45v-465h84v-65h-84v-131h-74v131h-319q-41 0 -41 41zM717 184h268v383z" />
<glyph unicode="&#xbd;" d="M57 823v68h226v561h-58q-52 0 -106 -20l-21 67q59 23 125 23h76q61 0 61 -60v-571h177v-68h-480zM176 0l785 1524h83l-782 -1524h-86zM657 43q0 22 21 39l262 244q58 55 80 92t22 94q0 63 -39.5 95t-103.5 32q-89 0 -174 -33l-47 -16l-14 67l45 17q104 35 192 35 q94 0 154.5 -49.5t60.5 -147.5q0 -65 -28.5 -119t-98.5 -117l-227 -210h360v-66h-420q-45 0 -45 43z" />
<glyph unicode="&#xbe;" d="M55 862l17 70l45 -14q116 -35 190 -35q73 0 113.5 31.5t40.5 86.5q0 47 -45 95l-45 47h-142v65h142l39 52q30 40 30 94q0 49 -33 78.5t-102 29.5q-83 0 -174 -30l-47 -17l-14 68l45 14q104 35 190 35q103 0 156 -46t53 -130q0 -70 -43 -127l-39 -51l45 -48 q60 -63 60 -126q0 -86 -63.5 -137.5t-166.5 -51.5q-101 0 -207 33zM195 0l784 1524h84l-782 -1524h-86zM623 172q0 20 14 37l324 469q17 29 51 29q45 0 45 -45v-465h84v-66h-84v-131h-74v131h-319q-41 0 -41 41zM715 197h268v383z" />
<glyph unicode="&#xbf;" horiz-adv-x="921" d="M86 -59q0 109 36 181t118 157l200 213v174l90 16v-147q0 -43 -8.5 -65.5t-36.5 -53.5l-176 -185q-75 -79 -105 -138t-30 -150q0 -110 72.5 -177t210.5 -67q128 0 311 49l66 19l18 -82l-66 -19q-178 -53 -331 -53q-168 0 -268.5 87.5t-100.5 240.5zM412 1077q0 37 19 58.5 t52 21.5q32 0 51 -21.5t19 -58.5t-19 -57.5t-51 -20.5q-34 0 -52.5 20.5t-18.5 57.5z" />
<glyph unicode="&#xc0;" horiz-adv-x="1394" d="M55 0l572 1483q21 53 75 53q58 0 76 -53l559 -1483h-100l-141 371h-799l-141 -371h-101zM326 453h741l-367 983zM520 1855h148l170 -139q20 -11 20 -37q0 -16 -11 -28.5t-30 -12.5q-16 0 -43 17z" />
<glyph unicode="&#xc1;" horiz-adv-x="1394" d="M55 0l572 1483q21 53 75 53q58 0 76 -53l559 -1483h-100l-141 371h-799l-141 -371h-101zM326 453h741l-367 983zM551 1679q0 26 20 37l170 139h146l-254 -200q-24 -17 -41 -17q-19 0 -30 12.5t-11 28.5z" />
<glyph unicode="&#xc2;" horiz-adv-x="1394" d="M55 0l572 1483q21 53 75 53q58 0 76 -53l559 -1483h-100l-141 371h-799l-141 -371h-101zM326 453h741l-367 983zM393 1638l246 195q28 22 61 22q35 0 64 -22l246 -195h-133l-177 142l-174 -142h-133z" />
<glyph unicode="&#xc3;" horiz-adv-x="1394" d="M55 0l572 1483q21 53 75 53q58 0 76 -53l559 -1483h-100l-141 371h-799l-141 -371h-101zM322 1700q36 87 97 128.5t128 41.5q79 0 141 -43l92 -62q53 -36 105 -36q99 0 155 124l70 -38q-34 -86 -95 -127t-128 -41q-76 0 -144 45l-92 61q-52 35 -104 35q-100 0 -156 -127z M326 453h741l-367 983z" />
<glyph unicode="&#xc4;" horiz-adv-x="1394" d="M55 0l572 1483q21 53 75 53q58 0 76 -53l559 -1483h-100l-141 371h-799l-141 -371h-101zM326 453h741l-367 983zM444 1759q0 35 19 56.5t51 21.5t51 -21.5t19 -56.5q0 -37 -19 -58.5t-51 -21.5t-51 21.5t-19 58.5zM825 1759q0 35 19 56.5t51 21.5t51 -21.5t19 -56.5 q0 -37 -19 -58.5t-51 -21.5t-51 21.5t-19 58.5z" />
<glyph unicode="&#xc5;" horiz-adv-x="1394" d="M55 0l572 1483q21 53 75 53q58 0 76 -53l559 -1483h-100l-141 371h-799l-141 -371h-101zM326 453h741l-367 983zM508 1808q0 78 54.5 126t135.5 48q84 0 139.5 -48t55.5 -126q0 -75 -57 -124.5t-138 -49.5q-79 0 -134.5 49.5t-55.5 124.5zM573 1808q0 -51 34.5 -81.5 t90.5 -30.5q58 0 94.5 31t36.5 81q0 51 -36.5 83t-94.5 32q-57 0 -91 -32t-34 -83z" />
<glyph unicode="&#xc6;" horiz-adv-x="2084" d="M55 0l588 1448q31 76 109 76h1212v-86h-842v-617h748v-82h-748v-655h844v-84h-846q-43 0 -67.5 23t-24.5 63v281h-725l-145 -367h-103zM336 449h692v989h-295z" />
<glyph unicode="&#xc7;" horiz-adv-x="1339" d="M123 758q0 192 49.5 342t138 243t206.5 141t259 48q150 0 389 -76l95 -29l-19 -86l-98 31q-234 72 -367 72q-127 0 -228.5 -41.5t-175 -124.5t-113.5 -215t-40 -305q0 -344 149.5 -516t409.5 -172q128 0 365 73l98 31l19 -86l-95 -31q-209 -68 -366 -73l-54 -101 q83 0 134 -32.5t51 -104.5q0 -69 -54 -107t-141 -38q-84 0 -157 30l18 60q62 -27 135 -27q129 0 129 84q0 49 -45 68.5t-141 17.5l-8 12l73 140q-136 5 -247 54.5t-194 142t-129 239t-46 336.5z" />
<glyph unicode="&#xc8;" horiz-adv-x="1234" d="M178 86v1352q0 40 24.5 63t67.5 23h844v-86h-840v-617h740v-84h-740v-653h844v-84h-848q-43 0 -67.5 23t-24.5 63zM449 1855h147l170 -139q20 -11 20 -37q0 -16 -11 -28.5t-30 -12.5q-16 0 -43 17z" />
<glyph unicode="&#xc9;" horiz-adv-x="1234" d="M178 86v1352q0 40 24.5 63t67.5 23h844v-86h-840v-617h740v-84h-740v-653h844v-84h-848q-43 0 -67.5 23t-24.5 63zM524 1679q0 25 21 37l170 139h145l-254 -200q-24 -17 -41 -17q-19 0 -30 12.5t-11 28.5z" />
<glyph unicode="&#xca;" horiz-adv-x="1234" d="M178 86v1352q0 40 24.5 63t67.5 23h844v-86h-840v-617h740v-84h-740v-653h844v-84h-848q-43 0 -67.5 23t-24.5 63zM346 1638l246 195q28 22 61 22q35 0 64 -22l246 -195h-134l-176 142l-174 -142h-133z" />
<glyph unicode="&#xcb;" horiz-adv-x="1234" d="M178 86v1352q0 40 24.5 63t67.5 23h844v-86h-840v-617h740v-84h-740v-653h844v-84h-848q-43 0 -67.5 23t-24.5 63zM391 1759q0 35 19 56.5t51 21.5t50.5 -21t18.5 -57q0 -37 -18.5 -58.5t-50.5 -21.5t-51 21.5t-19 58.5zM772 1759q0 35 19 56.5t51 21.5t50.5 -21 t18.5 -57q0 -37 -18.5 -58.5t-50.5 -21.5t-51 21.5t-19 58.5z" />
<glyph unicode="&#xcc;" horiz-adv-x="452" d="M10 1855h148l170 -139q20 -11 20 -37q0 -16 -11 -28.5t-30 -12.5q-16 0 -43 17zM178 0v1524h96v-1524h-96z" />
<glyph unicode="&#xcd;" horiz-adv-x="452" d="M109 1679q0 26 20 37l170 139h145l-254 -200q-24 -17 -40 -17q-19 0 -30 12.5t-11 28.5zM178 0v1524h96v-1524h-96z" />
<glyph unicode="&#xce;" horiz-adv-x="452" d="M-82 1638l246 195q28 22 61 22q35 0 64 -22l246 -195h-134l-176 142l-174 -142h-133zM178 0v1524h96v-1524h-96z" />
<glyph unicode="&#xcf;" horiz-adv-x="452" d="M-33 1759q0 35 19 56.5t51 21.5t50.5 -21t18.5 -57q0 -37 -18.5 -58.5t-50.5 -21.5t-51 21.5t-19 58.5zM178 0v1524h96v-1524h-96zM348 1759q0 35 19 56.5t51 21.5t50.5 -21t18.5 -57q0 -37 -18.5 -58.5t-50.5 -21.5t-51 21.5t-19 58.5z" />
<glyph unicode="&#xd0;" horiz-adv-x="1478" d="M41 739v84h143v615q0 40 24.5 63t67.5 23h414q311 0 491.5 -203.5t180.5 -562.5q0 -178 -49.5 -321.5t-138 -239t-211 -146.5t-269.5 -51h-418q-43 0 -67.5 23t-24.5 63v653h-143zM279 84h411q268 0 422 177t154 497q0 318 -156 500t-434 182h-397v-617h487v-84h-487 v-655z" />
<glyph unicode="&#xd1;" horiz-adv-x="1503" d="M178 0v1464q0 70 68 70q46 0 73 -43l916 -1366v1399h88v-1463q0 -35 -17.5 -53t-48.5 -18q-46 0 -73 43l-916 1366v-1399h-90zM371 1700q36 87 97 128.5t128 41.5q79 0 141 -43l92 -62q53 -36 105 -36q100 0 156 124l69 -38q-34 -86 -95 -127t-128 -41q-75 0 -143 45 l-93 61q-52 35 -104 35q-100 0 -156 -127z" />
<glyph unicode="&#xd2;" horiz-adv-x="1597" d="M123 758q0 365 184.5 569.5t493.5 204.5t491.5 -204t182.5 -570q0 -368 -184 -571t-494 -203t-492 203t-182 571zM217 758q0 -329 157 -510.5t427 -181.5t423.5 181t153.5 511q0 326 -155.5 508t-425.5 182q-271 0 -425.5 -181.5t-154.5 -508.5zM600 1855h148l170 -139 q20 -11 20 -37q0 -16 -11 -28.5t-30 -12.5q-16 0 -43 17z" />
<glyph unicode="&#xd3;" horiz-adv-x="1597" d="M123 758q0 365 184.5 569.5t493.5 204.5t491.5 -204t182.5 -570q0 -368 -184 -571t-494 -203t-492 203t-182 571zM217 758q0 -329 157 -510.5t427 -181.5t423.5 181t153.5 511q0 326 -155.5 508t-425.5 182q-271 0 -425.5 -181.5t-154.5 -508.5zM682 1679q0 26 20 37 l170 139h146l-254 -200q-24 -17 -41 -17q-19 0 -30 12.5t-11 28.5z" />
<glyph unicode="&#xd4;" horiz-adv-x="1597" d="M123 758q0 365 184.5 569.5t493.5 204.5t491.5 -204t182.5 -570q0 -368 -184 -571t-494 -203t-492 203t-182 571zM217 758q0 -329 157 -510.5t427 -181.5t423.5 181t153.5 511q0 326 -155.5 508t-425.5 182q-271 0 -425.5 -181.5t-154.5 -508.5zM504 1638l246 195 q28 22 61 22q34 0 63 -22l246 -195h-133l-176 142l-174 -142h-133z" />
<glyph unicode="&#xd5;" horiz-adv-x="1597" d="M123 758q0 365 184.5 569.5t493.5 204.5t491.5 -204t182.5 -570q0 -368 -184 -571t-494 -203t-492 203t-182 571zM217 758q0 -329 157 -510.5t427 -181.5t423.5 181t153.5 511q0 326 -155.5 508t-425.5 182q-271 0 -425.5 -181.5t-154.5 -508.5zM414 1700q36 87 97 128.5 t128 41.5q79 0 141 -43l92 -62q53 -36 105 -36q100 0 156 124l69 -38q-34 -86 -95 -127t-128 -41q-75 0 -143 45l-93 61q-52 35 -104 35q-100 0 -156 -127z" />
<glyph unicode="&#xd6;" horiz-adv-x="1597" d="M123 758q0 365 184.5 569.5t493.5 204.5t491.5 -204t182.5 -570q0 -368 -184 -571t-494 -203t-492 203t-182 571zM217 758q0 -329 157 -510.5t427 -181.5t423.5 181t153.5 511q0 326 -155.5 508t-425.5 182q-271 0 -425.5 -181.5t-154.5 -508.5zM541 1759q0 36 18.5 57 t50.5 21t51 -21.5t19 -56.5q0 -37 -19 -58.5t-51 -21.5t-50.5 21.5t-18.5 58.5zM922 1759q0 36 18.5 57t50.5 21t51 -21.5t19 -56.5q0 -37 -19 -58.5t-51 -21.5t-50.5 21.5t-18.5 58.5z" />
<glyph unicode="&#xd7;" d="M184 256l346 348l-346 348l66 64l346 -346l346 346l64 -64l-347 -348l347 -348l-64 -63l-346 348l-346 -348z" />
<glyph unicode="&#xd8;" horiz-adv-x="1597" d="M123 758q0 365 184.5 569.5t493.5 204.5q187 0 334 -80l94 170h86l-115 -211q131 -97 203 -263.5t72 -389.5q0 -368 -184 -571t-494 -203q-189 0 -334 77l-92 -170h-86l114 209q-133 97 -204.5 264t-71.5 394zM217 758q0 -198 58 -345t167 -233l652 1194q-132 74 -297 74 q-271 0 -425.5 -181.5t-154.5 -508.5zM506 137q127 -71 295 -71q270 0 423.5 181t153.5 511q0 194 -58 339.5t-165 233.5z" />
<glyph unicode="&#xd9;" horiz-adv-x="1468" d="M168 532v992h96v-992q0 -227 119.5 -351t351.5 -124q237 0 353 122t116 353v992h96v-992q0 -264 -147 -412.5t-418 -148.5q-272 0 -419.5 148.5t-147.5 412.5zM526 1855h148l170 -139q20 -11 20 -37q0 -16 -11 -28.5t-30 -12.5q-16 0 -43 17z" />
<glyph unicode="&#xda;" horiz-adv-x="1468" d="M168 532v992h96v-992q0 -227 119.5 -351t351.5 -124q237 0 353 122t116 353v992h96v-992q0 -264 -147 -412.5t-418 -148.5q-272 0 -419.5 148.5t-147.5 412.5zM621 1679q0 26 20 37l170 139h145l-254 -200q-24 -17 -40 -17q-19 0 -30 12.5t-11 28.5z" />
<glyph unicode="&#xdb;" horiz-adv-x="1468" d="M168 532v992h96v-992q0 -227 119.5 -351t351.5 -124q237 0 353 122t116 353v992h96v-992q0 -264 -147 -412.5t-418 -148.5q-272 0 -419.5 148.5t-147.5 412.5zM432 1638l246 195q28 22 61 22q35 0 64 -22l246 -195h-134l-176 142l-174 -142h-133z" />
<glyph unicode="&#xdc;" horiz-adv-x="1468" d="M168 532v992h96v-992q0 -227 119.5 -351t351.5 -124q237 0 353 122t116 353v992h96v-992q0 -264 -147 -412.5t-418 -148.5q-272 0 -419.5 148.5t-147.5 412.5zM483 1759q0 35 19 56.5t51 21.5t51 -21.5t19 -56.5q0 -37 -19 -58.5t-51 -21.5t-51 21.5t-19 58.5zM864 1759 q0 35 19 56.5t51 21.5t51 -21.5t19 -56.5q0 -37 -19 -58.5t-51 -21.5t-51 21.5t-19 58.5z" />
<glyph unicode="&#xdd;" horiz-adv-x="1312" d="M51 1524h111l500 -776l491 776h109l-553 -860v-664h-99v659zM590 1679q0 26 20 37l170 139h146l-254 -200q-24 -17 -41 -17q-19 0 -30 12.5t-11 28.5z" />
<glyph unicode="&#xde;" horiz-adv-x="1263" d="M178 0v1524h92v-275h471q191 0 310.5 -121t119.5 -329q0 -207 -125 -328t-325 -121h-451v-350h-92zM270 432h451q164 0 263 98.5t99 270.5q0 168 -95.5 268t-252.5 100h-465v-737z" />
<glyph unicode="&#xdf;" horiz-adv-x="1153" d="M158 0v1169q0 202 105.5 303t279.5 101q173 0 283 -95.5t110 -267.5q0 -54 -13.5 -103t-27.5 -75t-37 -59l-131 -178l174 -144q150 -124 150 -286t-110 -263.5t-290 -101.5h-147v80h147q149 0 229.5 78.5t80.5 203.5q0 54 -20.5 99t-49.5 76t-84 77l-131 113 q-57 47 -19 109q0 5 5 10l118 162q66 86 66 202q0 126 -82 202.5t-223 76.5q-142 0 -216.5 -80.5t-74.5 -239.5v-1169h-92z" />
<glyph unicode="&#xe0;" horiz-adv-x="1206" d="M123 281q0 84 31.5 146.5t89.5 100t132.5 55t168.5 17.5h381v162q0 142 -80 209t-221 67q-136 0 -373 -65l-62 -19l-18 86l61 17q244 69 394 69q84 0 153 -20.5t122 -63.5t82.5 -114t29.5 -166v-625l135 -80l-37 -69l-102 61q-49 26 -105 12l-117 -28q-199 -47 -317 -47 q-165 0 -256.5 78t-91.5 217zM215 285q0 -108 68.5 -162.5t199.5 -54.5q120 0 291 41l152 34v377h-383q-162 0 -245 -55.5t-83 -179.5zM399 1563h138l172 -164q18 -18 18 -39q0 -15 -11 -28t-30 -13q-20 0 -41 18z" />
<glyph unicode="&#xe1;" horiz-adv-x="1206" d="M123 281q0 84 31.5 146.5t89.5 100t132.5 55t168.5 17.5h381v162q0 142 -80 209t-221 67q-136 0 -373 -65l-62 -19l-18 86l61 17q244 69 394 69q84 0 153 -20.5t122 -63.5t82.5 -114t29.5 -166v-625l135 -80l-37 -69l-102 61q-49 26 -105 12l-117 -28q-199 -47 -317 -47 q-165 0 -256.5 78t-91.5 217zM215 285q0 -108 68.5 -162.5t199.5 -54.5q120 0 291 41l152 34v377h-383q-162 0 -245 -55.5t-83 -179.5zM520 1360q0 20 19 39l172 164h137l-246 -226q-21 -18 -41 -18q-19 0 -30 13t-11 28z" />
<glyph unicode="&#xe2;" horiz-adv-x="1206" d="M123 281q0 84 31.5 146.5t89.5 100t132.5 55t168.5 17.5h381v162q0 142 -80 209t-221 67q-136 0 -373 -65l-62 -19l-18 86l61 17q244 69 394 69q84 0 153 -20.5t122 -63.5t82.5 -114t29.5 -166v-625l135 -80l-37 -69l-102 61q-49 26 -105 12l-117 -28q-199 -47 -317 -47 q-165 0 -256.5 78t-91.5 217zM215 285q0 -108 68.5 -162.5t199.5 -54.5q120 0 291 41l152 34v377h-383q-162 0 -245 -55.5t-83 -179.5zM309 1294l248 246q27 27 59 27q33 0 60 -27l250 -246h-129l-181 193l-178 -193h-129z" />
<glyph unicode="&#xe3;" horiz-adv-x="1206" d="M123 281q0 84 31.5 146.5t89.5 100t132.5 55t168.5 17.5h381v162q0 142 -80 209t-221 67q-136 0 -373 -65l-62 -19l-18 86l61 17q244 69 394 69q84 0 153 -20.5t122 -63.5t82.5 -114t29.5 -166v-625l135 -80l-37 -69l-102 61q-49 26 -105 12l-117 -28q-199 -47 -317 -47 q-165 0 -256.5 78t-91.5 217zM205 1364q36 95 100 140.5t133 45.5q82 0 142 -47l100 -73q56 -41 106 -41q102 0 160 137l70 -39q-34 -94 -98.5 -139t-133.5 -45q-78 0 -141 49l-100 73q-53 39 -107 39q-105 0 -162 -139zM215 285q0 -108 68.5 -162.5t199.5 -54.5 q120 0 291 41l152 34v377h-383q-162 0 -245 -55.5t-83 -179.5z" />
<glyph unicode="&#xe4;" horiz-adv-x="1206" d="M123 281q0 84 31.5 146.5t89.5 100t132.5 55t168.5 17.5h381v162q0 142 -80 209t-221 67q-136 0 -373 -65l-62 -19l-18 86l61 17q244 69 394 69q84 0 153 -20.5t122 -63.5t82.5 -114t29.5 -166v-625l135 -80l-37 -69l-102 61q-49 26 -105 12l-117 -28q-199 -47 -317 -47 q-165 0 -256.5 78t-91.5 217zM215 285q0 -108 68.5 -162.5t199.5 -54.5q120 0 291 41l152 34v377h-383q-162 0 -245 -55.5t-83 -179.5zM367 1489q0 37 18.5 58.5t50.5 21.5t51 -21.5t19 -58.5q0 -35 -19 -56.5t-51 -21.5t-50.5 21t-18.5 57zM745 1489q0 37 19 58.5t51 21.5 q34 0 53 -21.5t19 -58.5q0 -36 -19.5 -57t-52.5 -21q-32 0 -51 21.5t-19 56.5z" />
<glyph unicode="&#xe5;" horiz-adv-x="1206" d="M123 281q0 84 31.5 146.5t89.5 100t132.5 55t168.5 17.5h381v162q0 142 -80 209t-221 67q-136 0 -373 -65l-62 -19l-18 86l61 17q244 69 394 69q84 0 153 -20.5t122 -63.5t82.5 -114t29.5 -166v-625l135 -80l-37 -69l-102 61q-49 26 -105 12l-117 -28q-199 -47 -317 -47 q-165 0 -256.5 78t-91.5 217zM215 285q0 -108 68.5 -162.5t199.5 -54.5q120 0 291 41l152 34v377h-383q-162 0 -245 -55.5t-83 -179.5zM399 1438q0 86 57.5 140t143.5 54q88 0 145.5 -53.5t57.5 -140.5q0 -85 -58.5 -141t-144.5 -56q-84 0 -142.5 56t-58.5 141zM465 1438 q0 -61 37.5 -99.5t97.5 -38.5t99.5 38.5t39.5 99.5q0 59 -39 96t-100 37t-98 -37t-37 -96z" />
<glyph unicode="&#xe6;" horiz-adv-x="1980" d="M123 281q0 84 31.5 146.5t89.5 100t132.5 55t168.5 17.5h360v162q0 138 -78.5 207t-212.5 69q-125 0 -362 -65l-62 -19l-18 86l61 17q244 69 383 69q142 0 237.5 -68t119.5 -202q56 132 167.5 203t252.5 71q221 0 351 -143t130 -407q0 -31 -16.5 -47.5t-45.5 -16.5h-813 q6 -217 122 -329.5t304 -112.5q120 0 312 61l100 33l18 -84l-96 -33q-108 -35 -180 -49t-156 -14q-171 0 -305 86q-37 23 -102 10l-228 -51q-199 -47 -317 -47q-165 0 -256.5 78t-91.5 217zM215 285q0 -108 68.5 -162.5t199.5 -54.5q120 0 291 41l248 57q-109 131 -115 354 h-364q-162 0 -245 -55.5t-83 -179.5zM999 598h781q0 207 -101 330t-288 123q-172 0 -279 -121.5t-113 -331.5z" />
<glyph unicode="&#xe7;" horiz-adv-x="1064" d="M113 557q0 273 131 420t352 147q102 0 303 -55l80 -20l-18 -86l-82 22q-185 51 -279 51q-187 0 -290 -121.5t-103 -357.5q0 -238 102.5 -359.5t290.5 -121.5q87 0 279 53l82 23l18 -86l-80 -23q-8 -2 -36.5 -9t-38.5 -9.5t-34.5 -8.5t-37 -8.5t-34 -6.5t-36 -6t-32.5 -4 t-34 -3l-55 -105q82 0 133 -32.5t51 -104.5q0 -69 -53.5 -107t-140.5 -38q-85 0 -158 30l19 60q62 -27 135 -27q129 0 129 84q0 49 -45.5 68.5t-141.5 17.5l-8 12l76 144q-206 11 -325 154.5t-119 412.5z" />
<glyph unicode="&#xe8;" d="M113 555q0 141 38 252.5t105 181t154.5 105.5t189.5 36q221 0 351 -143t130 -407q0 -64 -61 -64h-813q6 -217 122 -329.5t304 -112.5q119 0 311 61l100 33l19 -84l-96 -33q-108 -35 -180 -49t-156 -14q-114 0 -208 35.5t-163.5 104.5t-108 178t-38.5 249zM207 598h780 q0 207 -101 330t-288 123q-172 0 -278.5 -121.5t-112.5 -331.5zM393 1563h137l172 -164q19 -19 19 -39q0 -15 -11 -28t-30 -13q-20 0 -41 18z" />
<glyph unicode="&#xe9;" d="M113 555q0 141 38 252.5t105 181t154.5 105.5t189.5 36q221 0 351 -143t130 -407q0 -64 -61 -64h-813q6 -217 122 -329.5t304 -112.5q119 0 311 61l100 33l19 -84l-96 -33q-108 -35 -180 -49t-156 -14q-114 0 -208 35.5t-163.5 104.5t-108 178t-38.5 249zM207 598h780 q0 207 -101 330t-288 123q-172 0 -278.5 -121.5t-112.5 -331.5zM526 1360q0 20 19 39l172 164h137l-246 -226q-21 -18 -41 -18q-19 0 -30 13t-11 28z" />
<glyph unicode="&#xea;" d="M113 555q0 141 38 252.5t105 181t154.5 105.5t189.5 36q221 0 351 -143t130 -407q0 -64 -61 -64h-813q6 -217 122 -329.5t304 -112.5q119 0 311 61l100 33l19 -84l-96 -33q-108 -35 -180 -49t-156 -14q-114 0 -208 35.5t-163.5 104.5t-108 178t-38.5 249zM207 598h780 q0 207 -101 330t-288 123q-172 0 -278.5 -121.5t-112.5 -331.5zM299 1294l248 246q27 27 59 27q33 0 60 -27l249 -246h-129l-180 193l-178 -193h-129z" />
<glyph unicode="&#xeb;" d="M113 555q0 141 38 252.5t105 181t154.5 105.5t189.5 36q221 0 351 -143t130 -407q0 -64 -61 -64h-813q6 -217 122 -329.5t304 -112.5q119 0 311 61l100 33l19 -84l-96 -33q-108 -35 -180 -49t-156 -14q-114 0 -208 35.5t-163.5 104.5t-108 178t-38.5 249zM207 598h780 q0 207 -101 330t-288 123q-172 0 -278.5 -121.5t-112.5 -331.5zM344 1489q0 37 19 58.5t51 21.5t50.5 -21.5t18.5 -58.5q0 -36 -18.5 -57t-50.5 -21t-51 21.5t-19 56.5zM723 1489q0 37 19 58.5t51 21.5q33 0 52 -21.5t19 -58.5q0 -36 -19 -57t-52 -21q-32 0 -51 21.5 t-19 56.5z" />
<glyph unicode="&#xec;" horiz-adv-x="456" d="M2 1563h137l172 -164q19 -19 19 -39q0 -15 -11 -28t-30 -13q-20 0 -41 18zM182 0v1114h92v-1114h-92z" />
<glyph unicode="&#xed;" horiz-adv-x="456" d="M135 1360q0 20 19 39l172 164h137l-246 -226q-21 -18 -41 -18q-19 0 -30 13t-11 28zM182 0v1114h92v-1114h-92z" />
<glyph unicode="&#xee;" horiz-adv-x="456" d="M-78 1294l248 246q27 27 59 27q33 0 60 -27l250 -246h-129l-181 193l-178 -193h-129zM182 0v1114h92v-1114h-92z" />
<glyph unicode="&#xef;" horiz-adv-x="456" d="M-29 1489q0 37 19 58.5t51 21.5t51 -21.5t19 -58.5q0 -35 -19 -56.5t-51 -21.5t-51 21.5t-19 56.5zM182 0v1114h92v-1114h-92zM350 1489q0 37 19 58.5t51 21.5q34 0 53 -21.5t19 -58.5q0 -36 -19.5 -57t-52.5 -21q-32 0 -51 21.5t-19 56.5z" />
<glyph unicode="&#xf0;" horiz-adv-x="1247" d="M123 530q0 85 17.5 161t56 143.5t95.5 116.5t140.5 77.5t185.5 28.5q77 0 162 -18t230 -62v106q0 161 -76 265l-291 -166v92l234 133q-93 74 -238 74h-115v82h119q200 0 318 -109l169 96v-90l-116 -67q88 -124 88 -310v-577q0 -153 -53.5 -268t-165 -182.5t-269.5 -67.5 q-119 0 -213.5 42.5t-154.5 117t-91.5 172t-31.5 210.5zM215 530q0 -208 104 -333t297 -125q199 0 296.5 116.5t97.5 321.5v385q-247 74 -387 74q-109 0 -190 -34t-127.5 -96t-68.5 -138.5t-22 -170.5z" />
<glyph unicode="&#xf1;" horiz-adv-x="1175" d="M164 0v961q0 77 76 96q219 65 368 65q208 0 308 -108t100 -291v-723h-90v715q0 321 -326 321q-137 0 -346 -63v-973h-90zM186 1364q35 95 100 140.5t134 45.5q81 0 141 -47l101 -73q56 -41 106 -41q102 0 160 137l69 -39q-34 -94 -98 -139t-133 -45q-78 0 -141 49 l-101 73q-53 39 -106 39q-105 0 -162 -139z" />
<glyph unicode="&#xf2;" horiz-adv-x="1234" d="M113 557q0 272 136.5 419.5t368.5 147.5t368 -147.5t136 -419.5q0 -271 -138 -420t-370 -149q-231 0 -366 149t-135 420zM207 557q0 -235 109 -361t302 -126t301.5 126t108.5 361q0 233 -110.5 359t-303.5 126q-192 0 -299.5 -125.5t-107.5 -359.5zM428 1563h137 l172 -164q19 -19 19 -39q0 -15 -11 -28t-30 -13q-20 0 -41 18z" />
<glyph unicode="&#xf3;" horiz-adv-x="1234" d="M113 557q0 272 136.5 419.5t368.5 147.5t368 -147.5t136 -419.5q0 -271 -138 -420t-370 -149q-231 0 -366 149t-135 420zM207 557q0 -235 109 -361t302 -126t301.5 126t108.5 361q0 233 -110.5 359t-303.5 126q-192 0 -299.5 -125.5t-107.5 -359.5zM492 1360q0 21 18 39 l172 164h137l-246 -226q-21 -18 -41 -18q-19 0 -29.5 13t-10.5 28z" />
<glyph unicode="&#xf4;" horiz-adv-x="1234" d="M113 557q0 272 136.5 419.5t368.5 147.5t368 -147.5t136 -419.5q0 -271 -138 -420t-370 -149q-231 0 -366 149t-135 420zM207 557q0 -235 109 -361t302 -126t301.5 126t108.5 361q0 233 -110.5 359t-303.5 126q-192 0 -299.5 -125.5t-107.5 -359.5zM315 1294l248 246 q27 27 60 27q32 0 59 -27l250 -246h-129l-180 193l-179 -193h-129z" />
<glyph unicode="&#xf5;" horiz-adv-x="1234" d="M113 557q0 272 136.5 419.5t368.5 147.5t368 -147.5t136 -419.5q0 -271 -138 -420t-370 -149q-231 0 -366 149t-135 420zM207 557q0 -235 109 -361t302 -126t301.5 126t108.5 361q0 233 -110.5 359t-303.5 126q-192 0 -299.5 -125.5t-107.5 -359.5zM219 1364 q35 95 100 140.5t134 45.5q81 0 141 -47l100 -73q56 -41 107 -41q102 0 160 137l69 -39q-34 -94 -98 -139t-133 -45q-79 0 -142 49l-100 73q-53 39 -106 39q-105 0 -162 -139z" />
<glyph unicode="&#xf6;" horiz-adv-x="1234" d="M113 557q0 272 136.5 419.5t368.5 147.5t368 -147.5t136 -419.5q0 -271 -138 -420t-370 -149q-231 0 -366 149t-135 420zM207 557q0 -235 109 -361t302 -126t301.5 126t108.5 361q0 233 -110.5 359t-303.5 126q-192 0 -299.5 -125.5t-107.5 -359.5zM358 1489 q0 37 19 58.5t51 21.5t51 -21.5t19 -58.5q0 -35 -19 -56.5t-51 -21.5t-51 21.5t-19 56.5zM737 1489q0 37 19 58.5t51 21.5q34 0 53 -21.5t19 -58.5q0 -36 -19.5 -57t-52.5 -21q-32 0 -51 21.5t-19 56.5z" />
<glyph unicode="&#xf7;" d="M121 561v88h946v-88h-946zM524 166q0 34 18 55t50 21t49.5 -21t17.5 -55q0 -36 -17.5 -57t-49.5 -21t-50 21t-18 57zM524 1038q0 36 18 57t50 21t49.5 -21t17.5 -57q0 -34 -17.5 -54.5t-49.5 -20.5t-50 20.5t-18 54.5z" />
<glyph unicode="&#xf8;" horiz-adv-x="1234" d="M113 557q0 272 136.5 419.5t368.5 147.5q140 0 244 -55l76 139h82l-92 -178q194 -145 194 -473q0 -271 -138 -420t-370 -149q-129 0 -225 45l-76 -142h-82l95 177q-103 70 -158 194t-55 295zM207 557q0 -287 162 -412l452 848q-90 49 -207 49q-192 0 -299.5 -125.5 t-107.5 -359.5zM430 106q79 -36 188 -36q193 0 301.5 126t108.5 361q0 264 -143 391l-158 -299z" />
<glyph unicode="&#xf9;" horiz-adv-x="1175" d="M158 389v725h90v-717q0 -319 325 -319q145 0 347 61v975h92v-962q0 -75 -76 -97q-212 -63 -371 -63q-207 0 -307 108t-100 289zM360 1563h138l172 -164q18 -18 18 -39q0 -15 -11 -28t-30 -13q-20 0 -41 18z" />
<glyph unicode="&#xfa;" horiz-adv-x="1175" d="M158 389v725h90v-717q0 -319 325 -319q145 0 347 61v975h92v-962q0 -75 -76 -97q-212 -63 -371 -63q-207 0 -307 108t-100 289zM489 1360q0 20 19 39l172 164h137l-246 -226q-21 -18 -41 -18q-19 0 -30 13t-11 28z" />
<glyph unicode="&#xfb;" horiz-adv-x="1175" d="M158 389v725h90v-717q0 -319 325 -319q145 0 347 61v975h92v-962q0 -75 -76 -97q-212 -63 -371 -63q-207 0 -307 108t-100 289zM289 1294l248 246q27 27 59 27t59 -27l250 -246h-129l-180 193l-178 -193h-129z" />
<glyph unicode="&#xfc;" horiz-adv-x="1175" d="M158 389v725h90v-717q0 -319 325 -319q145 0 347 61v975h92v-962q0 -75 -76 -97q-212 -63 -371 -63q-207 0 -307 108t-100 289zM330 1489q0 37 18.5 58.5t50.5 21.5t51 -21.5t19 -58.5q0 -35 -19 -56.5t-51 -21.5t-50.5 21t-18.5 57zM709 1489q0 37 18.5 58.5t50.5 21.5 q34 0 53 -21.5t19 -58.5q0 -36 -19.5 -57t-52.5 -21q-32 0 -50.5 21t-18.5 57z" />
<glyph unicode="&#xfd;" horiz-adv-x="1075" d="M66 1114h104l403 -1059l342 1059h103l-426 -1266q-38 -111 -107.5 -166t-181.5 -55q-75 0 -197 31l17 86q125 -33 180 -33q85 0 132 43t71 123l18 64zM502 1360q0 21 18 39l172 164h137l-245 -226q-21 -18 -41 -18q-19 0 -30 13t-11 28z" />
<glyph unicode="&#xfe;" horiz-adv-x="1212" d="M164 -383v1939l90 19v-522q241 69 360 69q234 0 360 -147t126 -418q0 -272 -125 -418.5t-361 -146.5q-122 0 -360 78v-432zM254 152q242 -72 356 -72q201 0 299.5 125t98.5 352q0 224 -100 350.5t-300 126.5q-123 0 -354 -67v-815z" />
<glyph unicode="&#xff;" horiz-adv-x="1075" d="M66 1114h104l403 -1059l342 1059h103l-426 -1266q-38 -111 -107.5 -166t-181.5 -55q-75 0 -197 31l17 86q125 -33 180 -33q85 0 132 43t71 123l18 64zM291 1489q0 37 18.5 58.5t50.5 21.5t51 -21.5t19 -58.5q0 -35 -19 -56.5t-51 -21.5t-50.5 21t-18.5 57zM670 1489 q0 37 18.5 58.5t50.5 21.5q34 0 53 -21.5t19 -58.5q0 -36 -19.5 -57t-52.5 -21q-32 0 -50.5 21t-18.5 57z" />
<glyph unicode="&#x100;" horiz-adv-x="1394" d="M55 0l572 1483q21 53 75 53q58 0 76 -53l559 -1483h-100l-141 371h-799l-141 -371h-101zM326 453h741l-367 983zM397 1694v90h602v-90h-602z" />
<glyph unicode="&#x101;" horiz-adv-x="1206" d="M123 281q0 84 31.5 146.5t89.5 100t132.5 55t168.5 17.5h381v162q0 142 -80 209t-221 67q-136 0 -373 -65l-62 -19l-18 86l61 17q244 69 394 69q84 0 153 -20.5t122 -63.5t82.5 -114t29.5 -166v-625l135 -80l-37 -69l-102 61q-49 26 -105 12l-117 -28q-199 -47 -317 -47 q-165 0 -256.5 78t-91.5 217zM215 285q0 -108 68.5 -162.5t199.5 -54.5q120 0 291 41l152 34v377h-383q-162 0 -245 -55.5t-83 -179.5zM293 1393v88h602v-88h-602z" />
<glyph unicode="&#x102;" horiz-adv-x="1394" d="M55 0l572 1483q21 53 75 53q58 0 76 -53l559 -1483h-100l-141 371h-799l-141 -371h-101zM326 453h741l-367 983zM373 1862h88q4 -64 70 -104t167 -40q103 0 168.5 39t71.5 105h86q-4 -103 -98.5 -163.5t-227.5 -60.5t-226 60t-99 164z" />
<glyph unicode="&#x103;" horiz-adv-x="1206" d="M123 281q0 84 31.5 146.5t89.5 100t132.5 55t168.5 17.5h381v162q0 142 -80 209t-221 67q-136 0 -373 -65l-62 -19l-18 86l61 17q244 69 394 69q84 0 153 -20.5t122 -63.5t82.5 -114t29.5 -166v-625l135 -80l-37 -69l-102 61q-49 26 -105 12l-117 -28q-199 -47 -317 -47 q-165 0 -256.5 78t-91.5 217zM215 285q0 -108 68.5 -162.5t199.5 -54.5q120 0 291 41l152 34v377h-383q-162 0 -245 -55.5t-83 -179.5zM252 1556h88q4 -84 70.5 -135t167.5 -51q102 0 167.5 50t71.5 136h86q-4 -119 -97 -192.5t-228 -73.5t-227.5 73.5t-98.5 192.5z" />
<glyph unicode="&#x104;" horiz-adv-x="1394" d="M55 0l572 1483q21 53 75 53q58 0 76 -53l559 -1483h-2q-62 -31 -93.5 -74.5t-31.5 -91.5q0 -108 152 -108q92 0 170 28l14 -67q-82 -33 -188 -33q-103 0 -166.5 42t-63.5 122q0 114 129 182h-20l-141 371h-799l-141 -371h-101zM326 453h741l-367 983z" />
<glyph unicode="&#x105;" horiz-adv-x="1206" d="M123 281q0 84 31.5 146.5t89.5 100t132.5 55t168.5 17.5h381v162q0 142 -80 209t-221 67q-136 0 -373 -65l-62 -19l-18 86l61 17q244 69 394 69q84 0 153 -20.5t122 -63.5t82.5 -114t29.5 -166v-625l135 -80l-37 -69q-121 -63 -121 -154q0 -110 152 -110q92 0 170 28 l16 -65q-87 -35 -190 -35t-165.5 42t-62.5 124q0 60 40.5 115t109.5 85l-51 31q-49 26 -105 12l-117 -28q-199 -47 -317 -47q-165 0 -256.5 78t-91.5 217zM215 285q0 -108 68.5 -162.5t199.5 -54.5q106 0 291 41l152 34v377h-383q-162 0 -245 -55.5t-83 -179.5z" />
<glyph unicode="&#x106;" horiz-adv-x="1339" d="M123 758q0 192 49.5 342t138 243t206.5 141t259 48q150 0 389 -76l95 -29l-19 -86l-98 31q-234 72 -367 72q-127 0 -228.5 -41.5t-175 -124.5t-113.5 -215t-40 -305q0 -344 149.5 -516t409.5 -172q128 0 365 73l98 31l19 -86l-95 -31q-229 -73 -389 -73 q-143 0 -260.5 46.5t-206 139t-137.5 242.5t-49 346zM625 1679q0 26 20 37l170 139h146l-254 -200q-24 -17 -41 -17q-19 0 -30 12.5t-11 28.5z" />
<glyph unicode="&#x107;" horiz-adv-x="1064" d="M113 557q0 273 131 420t352 147q102 0 303 -55l80 -20l-18 -86l-82 22q-185 51 -279 51q-187 0 -290 -121.5t-103 -357.5q0 -238 102.5 -359.5t290.5 -121.5q87 0 279 53l82 23l18 -86l-80 -23q-7 -2 -20 -5q-182 -47 -265 -50h-18q-223 0 -353 144.5t-130 424.5z M471 1360q0 21 18 39l173 164h137l-246 -226q-21 -18 -41 -18q-19 0 -30 13t-11 28z" />
<glyph unicode="&#x108;" horiz-adv-x="1339" d="M123 758q0 192 49.5 342t138 243t206.5 141t259 48q150 0 389 -76l95 -29l-19 -86l-98 31q-234 72 -367 72q-127 0 -228.5 -41.5t-175 -124.5t-113.5 -215t-40 -305q0 -344 149.5 -516t409.5 -172q128 0 365 73l98 31l19 -86l-95 -31q-229 -73 -389 -73 q-143 0 -260.5 46.5t-206 139t-137.5 242.5t-49 346zM473 1638l246 195q28 22 61 22q35 0 64 -22l246 -195h-134l-176 142l-174 -142h-133z" />
<glyph unicode="&#x109;" horiz-adv-x="1064" d="M113 557q0 273 131 420t352 147q102 0 303 -55l80 -20l-18 -86l-82 22q-185 51 -279 51q-187 0 -290 -121.5t-103 -357.5q0 -238 102.5 -359.5t290.5 -121.5q87 0 279 53l82 23l18 -86l-80 -23q-7 -2 -20 -5q-182 -47 -265 -50h-18q-223 0 -353 144.5t-130 424.5z M287 1294l248 246q27 27 59 27t59 -27l250 -246h-129l-180 193l-178 -193h-129z" />
<glyph unicode="&#x10a;" horiz-adv-x="1339" d="M123 758q0 192 49.5 342t138 243t206.5 141t259 48q150 0 389 -76l95 -29l-19 -86l-98 31q-234 72 -367 72q-127 0 -228.5 -41.5t-175 -124.5t-113.5 -215t-40 -305q0 -344 149.5 -516t409.5 -172q128 0 365 73l98 31l19 -86l-95 -31q-229 -73 -389 -73 q-143 0 -260.5 46.5t-206 139t-137.5 242.5t-49 346zM698 1759q0 35 19 56.5t51 21.5q33 0 52.5 -21t19.5 -57q0 -37 -19 -58.5t-53 -21.5q-32 0 -51 21.5t-19 58.5z" />
<glyph unicode="&#x10b;" horiz-adv-x="1064" d="M113 557q0 273 131 420t352 147q102 0 303 -55l80 -20l-18 -86l-82 22q-185 51 -279 51q-187 0 -290 -121.5t-103 -357.5q0 -238 102.5 -359.5t290.5 -121.5q87 0 279 53l82 23l18 -86l-80 -23q-7 -2 -20 -5q-182 -47 -265 -50h-18q-223 0 -353 144.5t-130 424.5z M518 1489q0 37 19 58.5t51 21.5q33 0 52 -21.5t19 -58.5q0 -36 -19 -57t-52 -21q-32 0 -51 21.5t-19 56.5z" />
<glyph unicode="&#x10c;" horiz-adv-x="1339" d="M123 758q0 192 49.5 342t138 243t206.5 141t259 48q150 0 389 -76l95 -29l-19 -86l-98 31q-234 72 -367 72q-127 0 -228.5 -41.5t-175 -124.5t-113.5 -215t-40 -305q0 -344 149.5 -516t409.5 -172q128 0 365 73l98 31l19 -86l-95 -31q-229 -73 -389 -73 q-143 0 -260.5 46.5t-206 139t-137.5 242.5t-49 346zM473 1855h133l174 -141l176 141h134l-246 -194q-31 -23 -64 -23q-31 0 -61 23z" />
<glyph unicode="&#x10d;" horiz-adv-x="1064" d="M113 557q0 273 131 420t352 147q102 0 303 -55l80 -20l-18 -86l-82 22q-185 51 -279 51q-187 0 -290 -121.5t-103 -357.5q0 -238 102.5 -359.5t290.5 -121.5q87 0 279 53l82 23l18 -86l-80 -23q-7 -2 -20 -5q-182 -47 -265 -50h-18q-223 0 -353 144.5t-130 424.5z M297 1559h129l178 -193l180 193h129l-249 -248q-25 -25 -60 -25t-57 25z" />
<glyph unicode="&#x10e;" horiz-adv-x="1478" d="M178 86v1352q0 40 24.5 63t67.5 23h414q312 0 492 -203.5t180 -562.5q0 -178 -49 -321.5t-137.5 -239t-211.5 -146.5t-270 -51h-418q-43 0 -67.5 23t-24.5 63zM274 84h412q268 0 422 177t154 497q0 318 -156 500t-434 182h-398v-1356zM373 1855h133l174 -141l176 141h133 l-246 -194q-31 -23 -63 -23t-62 23z" />
<glyph unicode="&#x10f;" horiz-adv-x="1460" d="M113 553q0 273 124.5 421t358.5 148q111 0 362 -78v515l91 20v-1427q0 -76 -78 -97q-227 -63 -365 -63q-231 0 -362 149.5t-131 411.5zM205 553q0 -216 104.5 -345.5t302.5 -129.5q132 0 346 63v820q-235 69 -358 73q-199 0 -297 -126.5t-98 -354.5zM1247 1178l105 385 h98l-113 -410q-12 -43 -49 -43q-27 0 -38 19.5t-3 48.5z" />
<glyph unicode="&#x110;" horiz-adv-x="1478" d="M41 739v84h143v615q0 40 24.5 63t67.5 23h414q311 0 491.5 -203.5t180.5 -562.5q0 -178 -49.5 -321.5t-138 -239t-211 -146.5t-269.5 -51h-418q-43 0 -67.5 23t-24.5 63v653h-143zM279 84h411q268 0 422 177t154 497q0 318 -156 500t-434 182h-397v-617h487v-84h-487 v-655z" />
<glyph unicode="&#x111;" horiz-adv-x="1212" d="M113 553q0 273 124.5 421t358.5 148q111 0 362 -78v238h-335v82h335v195l91 20v-215h163v-82h-163v-1130q0 -76 -78 -97q-227 -63 -365 -63q-231 0 -362 149.5t-131 411.5zM205 553q0 -216 104.5 -345.5t302.5 -129.5q132 0 346 63v820q-235 69 -358 73 q-199 0 -297 -126.5t-98 -354.5z" />
<glyph unicode="&#x112;" horiz-adv-x="1234" d="M178 86v1352q0 40 24.5 63t67.5 23h844v-86h-840v-617h740v-84h-740v-653h844v-84h-848q-43 0 -67.5 23t-24.5 63zM348 1694v90h602v-90h-602z" />
<glyph unicode="&#x113;" d="M113 555q0 141 38 252.5t105 181t154.5 105.5t189.5 36q221 0 351 -143t130 -407q0 -64 -61 -64h-813q6 -217 122 -329.5t304 -112.5q119 0 311 61l100 33l19 -84l-96 -33q-108 -35 -180 -49t-156 -14q-114 0 -208 35.5t-163.5 104.5t-108 178t-38.5 249zM207 598h780 q0 207 -101 330t-288 123q-172 0 -278.5 -121.5t-112.5 -331.5zM317 1393v88h603v-88h-603z" />
<glyph unicode="&#x114;" horiz-adv-x="1234" d="M178 86v1352q0 40 24.5 63t67.5 23h844v-86h-840v-617h740v-84h-740v-653h844v-84h-848q-43 0 -67.5 23t-24.5 63zM330 1862h88q4 -64 70 -104t167 -40q103 0 168.5 39t71.5 105h86q-4 -103 -98.5 -163.5t-227.5 -60.5t-226 60t-99 164z" />
<glyph unicode="&#x115;" d="M113 555q0 141 38 252.5t105 181t154.5 105.5t189.5 36q221 0 351 -143t130 -407q0 -64 -61 -64h-813q6 -217 122 -329.5t304 -112.5q119 0 311 61l100 33l19 -84l-96 -33q-108 -35 -180 -49t-156 -14q-114 0 -208 35.5t-163.5 104.5t-108 178t-38.5 249zM207 598h780 q0 207 -101 330t-288 123q-172 0 -278.5 -121.5t-112.5 -331.5zM281 1556h88q4 -84 70 -135t167 -51q102 0 168 50.5t72 135.5h86q-4 -119 -97.5 -192.5t-228.5 -73.5t-227 73.5t-98 192.5z" />
<glyph unicode="&#x116;" horiz-adv-x="1234" d="M178 86v1352q0 40 24.5 63t67.5 23h844v-86h-840v-617h740v-84h-740v-653h844v-84h-848q-43 0 -67.5 23t-24.5 63zM588 1759q0 36 18.5 57t50.5 21q33 0 52.5 -21t19.5 -57q0 -37 -19 -58.5t-53 -21.5q-32 0 -50.5 21.5t-18.5 58.5z" />
<glyph unicode="&#x117;" d="M113 555q0 141 38 252.5t105 181t154.5 105.5t189.5 36q221 0 351 -143t130 -407q0 -64 -61 -64h-813q6 -217 122 -329.5t304 -112.5q119 0 311 61l100 33l19 -84l-96 -33q-108 -35 -180 -49t-156 -14q-114 0 -208 35.5t-163.5 104.5t-108 178t-38.5 249zM207 598h780 q0 207 -101 330t-288 123q-172 0 -278.5 -121.5t-112.5 -331.5zM535 1489q0 37 18.5 58.5t50.5 21.5q34 0 53 -21.5t19 -58.5q0 -36 -19.5 -57t-52.5 -21q-32 0 -50.5 21t-18.5 57z" />
<glyph unicode="&#x118;" horiz-adv-x="1234" d="M178 86v1352q0 40 24.5 63t67.5 23h844v-86h-840v-617h740v-84h-740v-653h844v-84h-135q-62 -31 -93.5 -74.5t-31.5 -91.5q0 -108 152 -108q92 0 170 28l14 -67q-82 -33 -188 -33q-103 0 -166.5 42t-63.5 122q0 114 129 182h-635q-43 0 -67.5 23t-24.5 63z" />
<glyph unicode="&#x119;" d="M113 555q0 141 38 252.5t105 181t154.5 105.5t189.5 36q221 0 351 -143t130 -407q0 -64 -61 -64h-813q6 -217 122 -329.5t304 -112.5q119 0 311 61l100 33l19 -84l-96 -33l-97 -31q-59 -30 -88.5 -72t-29.5 -89q0 -109 151 -109q89 0 170 29l14 -68q-83 -33 -188 -33 q-103 0 -166 42t-63 122q0 89 84 154q-52 -8 -123 -8q-114 0 -208 35.5t-163.5 104.5t-108 178t-38.5 249zM207 598h780q0 207 -101 330t-288 123q-172 0 -278.5 -121.5t-112.5 -331.5z" />
<glyph unicode="&#x11a;" horiz-adv-x="1234" d="M178 86v1352q0 40 24.5 63t67.5 23h844v-86h-840v-617h740v-84h-740v-653h844v-84h-848q-43 0 -67.5 23t-24.5 63zM350 1855h133l174 -141l177 141h133l-246 -194q-31 -23 -64 -23q-31 0 -61 23z" />
<glyph unicode="&#x11b;" d="M113 555q0 141 38 252.5t105 181t154.5 105.5t189.5 36q221 0 351 -143t130 -407q0 -64 -61 -64h-813q6 -217 122 -329.5t304 -112.5q119 0 311 61l100 33l19 -84l-96 -33q-108 -35 -180 -49t-156 -14q-114 0 -208 35.5t-163.5 104.5t-108 178t-38.5 249zM207 598h780 q0 207 -101 330t-288 123q-172 0 -278.5 -121.5t-112.5 -331.5zM301 1559h129l178 -193l180 193h130l-250 -248q-25 -25 -60 -25t-57 25z" />
<glyph unicode="&#x11c;" horiz-adv-x="1460" d="M123 756q0 192 51.5 342t143.5 243t214 141t269 48q152 0 413 -76l97 -29l-21 -88l-100 31q-260 74 -389 74q-270 0 -426 -171.5t-156 -514.5q0 -173 43.5 -305.5t123.5 -215.5t188 -125t241 -42q184 0 406 57v485h-383v84h385q43 0 66.5 -23.5t23.5 -64.5v-465 q0 -74 -76 -92q-225 -65 -422 -65q-151 0 -276 46.5t-218.5 139t-145.5 242t-52 344.5zM483 1638l246 195q28 22 62 22t63 -22l246 -195h-133l-176 142l-175 -142h-133z" />
<glyph unicode="&#x11d;" horiz-adv-x="1200" d="M113 772q0 165 121 252.5t331 87.5h127q116 0 164 14l272 70l21 -80l-299 -76q7 -2 18.5 -7t40.5 -26.5t51.5 -48t41 -75.5t18.5 -107q0 -175 -120 -260.5t-335 -85.5q-44 0 -85 5t-60 11l-19 5q39 -39 39 -103q0 -35 -17 -66t-61 -81h441q162 0 247 -65.5t85 -176.5 q0 -156 -136 -242t-415 -86q-95 0 -175 16t-144.5 48.5t-101 89t-36.5 131.5q0 117 96 229l66 80q39 44 54 70.5t15 58.5q0 43 -19.5 74t-68.5 61q-157 94 -157 283zM201 772q0 -272 364 -272q81 0 145.5 15t115 46.5t77.5 85t27 125.5q0 264 -361 264q-175 0 -271.5 -64.5 t-96.5 -199.5zM215 -82q0 -108 102.5 -159.5t274.5 -51.5q455 0 455 248q0 77 -60 122.5t-186 45.5h-496q-48 -53 -69 -100.5t-21 -104.5zM291 1294l248 246q27 27 59 27t59 -27l250 -246h-129l-180 193l-178 -193h-129z" />
<glyph unicode="&#x11e;" horiz-adv-x="1460" d="M123 756q0 192 51.5 342t143.5 243t214 141t269 48q152 0 413 -76l97 -29l-21 -88l-100 31q-260 74 -389 74q-270 0 -426 -171.5t-156 -514.5q0 -173 43.5 -305.5t123.5 -215.5t188 -125t241 -42q184 0 406 57v485h-383v84h385q43 0 66.5 -23.5t23.5 -64.5v-465 q0 -74 -76 -92q-225 -65 -422 -65q-151 0 -276 46.5t-218.5 139t-145.5 242t-52 344.5zM469 1862h88q4 -64 70.5 -104t167.5 -40q103 0 168 39t71 105h86q-4 -103 -98 -163.5t-227 -60.5t-226.5 60t-99.5 164z" />
<glyph unicode="&#x11f;" horiz-adv-x="1200" d="M113 772q0 165 121 252.5t331 87.5h127q116 0 164 14l272 70l21 -80l-299 -76q7 -2 18.5 -7t40.5 -26.5t51.5 -48t41 -75.5t18.5 -107q0 -175 -120 -260.5t-335 -85.5q-44 0 -85 5t-60 11l-19 5q39 -39 39 -103q0 -35 -17 -66t-61 -81h441q162 0 247 -65.5t85 -176.5 q0 -156 -136 -242t-415 -86q-95 0 -175 16t-144.5 48.5t-101 89t-36.5 131.5q0 117 96 229l66 80q39 44 54 70.5t15 58.5q0 43 -19.5 74t-68.5 61q-157 94 -157 283zM201 772q0 -272 364 -272q81 0 145.5 15t115 46.5t77.5 85t27 125.5q0 264 -361 264q-175 0 -271.5 -64.5 t-96.5 -199.5zM215 -82q0 -108 102.5 -159.5t274.5 -51.5q455 0 455 248q0 77 -60 122.5t-186 45.5h-496q-48 -53 -69 -100.5t-21 -104.5zM270 1556h88q4 -84 70.5 -135t167.5 -51q102 0 168 50.5t72 135.5h86q-4 -119 -97.5 -192.5t-228.5 -73.5t-227.5 73.5t-98.5 192.5z " />
<glyph unicode="&#x120;" horiz-adv-x="1460" d="M123 756q0 192 51.5 342t143.5 243t214 141t269 48q152 0 413 -76l97 -29l-21 -88l-100 31q-260 74 -389 74q-270 0 -426 -171.5t-156 -514.5q0 -173 43.5 -305.5t123.5 -215.5t188 -125t241 -42q184 0 406 57v485h-383v84h385q43 0 66.5 -23.5t23.5 -64.5v-465 q0 -74 -76 -92q-225 -65 -422 -65q-151 0 -276 46.5t-218.5 139t-145.5 242t-52 344.5zM725 1759q0 35 19 56.5t51 21.5q33 0 52 -21t19 -57q0 -37 -19 -58.5t-52 -21.5q-32 0 -51 21.5t-19 58.5z" />
<glyph unicode="&#x121;" horiz-adv-x="1200" d="M113 772q0 165 121 252.5t331 87.5h127q116 0 164 14l272 70l21 -80l-299 -76q7 -2 18.5 -7t40.5 -26.5t51.5 -48t41 -75.5t18.5 -107q0 -175 -120 -260.5t-335 -85.5q-44 0 -85 5t-60 11l-19 5q39 -39 39 -103q0 -35 -17 -66t-61 -81h441q162 0 247 -65.5t85 -176.5 q0 -156 -136 -242t-415 -86q-95 0 -175 16t-144.5 48.5t-101 89t-36.5 131.5q0 117 96 229l66 80q39 44 54 70.5t15 58.5q0 43 -19.5 74t-68.5 61q-157 94 -157 283zM201 772q0 -272 364 -272q81 0 145.5 15t115 46.5t77.5 85t27 125.5q0 264 -361 264q-175 0 -271.5 -64.5 t-96.5 -199.5zM215 -82q0 -108 102.5 -159.5t274.5 -51.5q455 0 455 248q0 77 -60 122.5t-186 45.5h-496q-48 -53 -69 -100.5t-21 -104.5zM522 1489q0 37 19 58.5t51 21.5q34 0 53 -21.5t19 -58.5q0 -36 -19.5 -57t-52.5 -21q-32 0 -51 21.5t-19 56.5z" />
<glyph unicode="&#x122;" horiz-adv-x="1460" d="M123 756q0 192 51.5 342t143.5 243t214 141t269 48q152 0 413 -76l97 -29l-21 -88l-100 31q-260 74 -389 74q-270 0 -426 -171.5t-156 -514.5q0 -173 43.5 -305.5t123.5 -215.5t188 -125t241 -42q184 0 406 57v485h-383v84h385q43 0 66.5 -23.5t23.5 -64.5v-465 q0 -74 -76 -92q-225 -65 -422 -65q-151 0 -276 46.5t-218.5 139t-145.5 242t-52 344.5zM690 -354l70 250h100l-78 -273q-11 -43 -53 -43q-25 0 -36.5 18.5t-2.5 47.5z" />
<glyph unicode="&#x123;" horiz-adv-x="1200" d="M113 772q0 165 121 252.5t331 87.5h127q116 0 164 14l272 70l21 -80l-299 -76q7 -2 18.5 -7t40.5 -26.5t51.5 -48t41 -75.5t18.5 -107q0 -175 -120 -260.5t-335 -85.5q-44 0 -85 5t-60 11l-19 5q39 -39 39 -103q0 -35 -17 -66t-61 -81h441q162 0 247 -65.5t85 -176.5 q0 -156 -136 -242t-415 -86q-95 0 -175 16t-144.5 48.5t-101 89t-36.5 131.5q0 117 96 229l66 80q39 44 54 70.5t15 58.5q0 43 -19.5 74t-68.5 61q-157 94 -157 283zM201 772q0 -272 364 -272q81 0 145.5 15t115 46.5t77.5 85t27 125.5q0 264 -361 264q-175 0 -271.5 -64.5 t-96.5 -199.5zM215 -82q0 -108 102.5 -159.5t274.5 -51.5q455 0 455 248q0 77 -60 122.5t-186 45.5h-496q-48 -53 -69 -100.5t-21 -104.5zM516 1268l94 338q12 43 52 43q27 0 39 -20t4 -48l-87 -313h-102z" />
<glyph unicode="&#x124;" horiz-adv-x="1454" d="M178 0v1524h94v-709h910v709h94v-1524h-94v733h-910v-733h-94zM424 1638l246 195q28 22 61 22q35 0 64 -22l245 -195h-133l-176 142l-174 -142h-133z" />
<glyph unicode="&#x125;" horiz-adv-x="1167" d="M164 0v1559l90 18v-535q239 80 364 80q106 0 183.5 -30.5t121 -86.5t63.5 -125t20 -155v-725h-91v723q0 69 -14.5 122.5t-48 97.5t-95 67.5t-147.5 23.5q-120 0 -356 -73v-961h-90zM283 1638l245 195q28 22 62 22t63 -22l246 -195h-133l-176 142l-174 -142h-133z" />
<glyph unicode="&#x126;" horiz-adv-x="1454" d="M0 1104v80h178v340h94v-340h910v340h94v-340h188v-80h-188v-1104h-94v733h-910v-733h-94v1104h-178zM272 815h910v289h-910v-289z" />
<glyph unicode="&#x127;" horiz-adv-x="1167" d="M0 1282v82h164v195l90 18v-213h346v-82h-346v-240q239 80 364 80q106 0 183.5 -30.5t121 -86.5t63.5 -125t20 -155v-725h-91v723q0 69 -14.5 122.5t-48 97.5t-95 67.5t-147.5 23.5q-120 0 -356 -73v-961h-90v1282h-164z" />
<glyph unicode="&#x128;" horiz-adv-x="452" d="M-162 1700q36 87 97 128.5t128 41.5q80 0 142 -43l92 -62q53 -36 104 -36q100 0 156 124l70 -38q-34 -86 -95.5 -127t-128.5 -41q-75 0 -143 45l-92 61q-52 35 -105 35q-99 0 -155 -127zM178 0v1524h96v-1524h-96z" />
<glyph unicode="&#x129;" horiz-adv-x="456" d="M-178 1364q36 95 100 140.5t133 45.5q82 0 142 -47l100 -73q56 -41 106 -41q102 0 160 137l70 -39q-34 -94 -98.5 -139t-133.5 -45q-78 0 -141 49l-100 73q-53 39 -107 39q-105 0 -162 -139zM182 0v1114h92v-1114h-92z" />
<glyph unicode="&#x12a;" horiz-adv-x="452" d="M-74 1694v90h602v-90h-602zM178 0v1524h96v-1524h-96z" />
<glyph unicode="&#x12b;" horiz-adv-x="456" d="M-72 1393v88h602v-88h-602zM182 0v1114h92v-1114h-92z" />
<glyph unicode="&#x12c;" horiz-adv-x="452" d="M-100 1862h88q4 -64 70 -104t167 -40q103 0 168.5 39t71.5 105h86q-4 -103 -98.5 -163.5t-227.5 -60.5t-226 60t-99 164zM178 0v1524h96v-1524h-96z" />
<glyph unicode="&#x12d;" horiz-adv-x="456" d="M-98 1556h88q4 -84 70 -135t167 -51q102 0 168 50.5t72 135.5h86q-4 -119 -97.5 -192.5t-228.5 -73.5t-227 73.5t-98 192.5zM182 0v1114h92v-1114h-92z" />
<glyph unicode="&#x12e;" horiz-adv-x="452" d="M66 -182q0 114 129 182h-17v1524h96v-1524h-2q-62 -31 -93.5 -74.5t-31.5 -91.5q0 -108 152 -108q92 0 170 28l14 -67q-82 -33 -188 -33q-103 0 -166 42t-63 122z" />
<glyph unicode="&#x12f;" horiz-adv-x="456" d="M68 -182q0 114 129 182h-15v1114h92v-1114q-124 -62 -124 -166q0 -108 151 -108q92 0 170 28l14 -67q-83 -33 -188 -33q-103 0 -166 42t-63 122zM158 1489q0 37 18.5 58.5t50.5 21.5q34 0 53 -21.5t19 -58.5q0 -36 -19.5 -57t-52.5 -21q-32 0 -50.5 21t-18.5 57z" />
<glyph unicode="&#x130;" horiz-adv-x="452" d="M156 1759q0 36 18.5 57t50.5 21q33 0 52.5 -21t19.5 -57q0 -37 -19 -58.5t-53 -21.5q-32 0 -50.5 21.5t-18.5 58.5zM178 0v1524h96v-1524h-96z" />
<glyph unicode="&#x131;" horiz-adv-x="456" d="M182 0v1114h92v-1114h-92z" />
<glyph unicode="&#x134;" horiz-adv-x="741" d="M43 20l14 89q142 -31 191 -31q116 0 170.5 65t54.5 203v1178h92v-1184q0 -171 -81.5 -259.5t-235.5 -88.5q-77 0 -205 28zM211 1638l246 195q28 22 61 22q35 0 64 -22l245 -195h-133l-176 142l-174 -142h-133z" />
<glyph unicode="&#x135;" horiz-adv-x="495" d="M-45 1294l248 246q27 27 59 27q33 0 60 -27l249 -246h-129l-180 193l-178 -193h-129zM25 -291q196 3 196 248v1157h94v-1159q0 -154 -77.5 -240t-212.5 -86v80z" />
<glyph unicode="&#x136;" horiz-adv-x="1314" d="M178 0v1524h94v-992l811 992h123l-436 -520l477 -1004h-100l-447 928l-335 -406q-33 -38 -48.5 -59t-30 -58.5t-14.5 -78.5v-326h-94zM569 -354l70 250h100l-77 -273q-11 -43 -54 -43q-25 0 -36.5 18.5t-2.5 47.5z" />
<glyph unicode="&#x137;" horiz-adv-x="1101" d="M164 0v1556l90 19v-1153l633 692h121l-361 -387l404 -727h-109l-367 659l-233 -249q-44 -42 -66 -83.5t-22 -103.5v-223h-90zM461 -354l69 250h101l-78 -273q-11 -43 -53 -43q-25 0 -36.5 18.5t-2.5 47.5z" />
<glyph unicode="&#x138;" horiz-adv-x="1101" d="M164 0v1114h90v-678q69 17 127.5 65t100.5 110.5t82.5 134t83.5 140t92 124t119.5 89.5t156.5 34v-84q-64 0 -115.5 -22.5t-98.5 -78t-72 -93.5t-73 -122q-5 -9 -8 -14l400 -719h-107l-350 629q-145 -242 -338 -285v-344h-90z" />
<glyph unicode="&#x139;" horiz-adv-x="1144" d="M178 86v1438h96v-1438h785v-86h-789q-43 0 -67.5 23t-24.5 63zM465 1679q0 26 20 37l170 139h146l-254 -200q-24 -17 -41 -17q-19 0 -30 12.5t-11 28.5z" />
<glyph unicode="&#x13a;" horiz-adv-x="421" d="M111 1679q0 26 20 37l170 139h145l-253 -200q-24 -17 -41 -17q-19 0 -30 12.5t-11 28.5zM164 0v1556l94 21v-1577h-94z" />
<glyph unicode="&#x13b;" horiz-adv-x="1144" d="M178 86v1438h96v-1438h785v-86h-789q-43 0 -67.5 23t-24.5 63zM508 -354l70 250h100l-78 -273q-11 -43 -53 -43q-25 0 -36.5 18.5t-2.5 47.5z" />
<glyph unicode="&#x13c;" horiz-adv-x="421" d="M88 -354l70 250h100l-78 -273q-11 -43 -53 -43q-25 0 -36.5 18.5t-2.5 47.5zM164 0v1556l94 21v-1577h-94z" />
<glyph unicode="&#x13d;" horiz-adv-x="1144" d="M178 86v1438h96v-1438h785v-86h-789q-43 0 -67.5 23t-24.5 63zM543 1178l102 385h100l-114 -410q-12 -43 -47 -43q-28 0 -38.5 19.5t-2.5 48.5z" />
<glyph unicode="&#x13e;" horiz-adv-x="661" d="M164 0v1556l94 21v-1577h-94zM449 1178l104 385h98l-112 -410q-12 -43 -50 -43q-27 0 -37.5 19.5t-2.5 48.5z" />
<glyph unicode="&#x13f;" horiz-adv-x="1144" d="M178 86v1438h96v-1438h785v-86h-789q-43 0 -67.5 23t-24.5 63zM655 752q0 36 18.5 56.5t51.5 20.5t51.5 -20.5t18.5 -56.5q0 -37 -19 -58.5t-51 -21.5t-51 21.5t-19 58.5z" />
<glyph unicode="&#x140;" horiz-adv-x="663" d="M164 0v1556l94 21v-1577h-94zM467 752q0 36 18.5 56.5t51.5 20.5q32 0 50.5 -20t18.5 -57t-18.5 -58.5t-50.5 -21.5t-51 21.5t-19 58.5z" />
<glyph unicode="&#x141;" horiz-adv-x="1153" d="M41 735v94l145 70v625h97v-578l356 172v-94l-356 -172v-766h784v-86h-788q-43 0 -68 23t-25 63v719z" />
<glyph unicode="&#x142;" horiz-adv-x="466" d="M45 774v100l145 95v587l95 21v-547l141 94v-102l-141 -92v-930h-95v868z" />
<glyph unicode="&#x143;" horiz-adv-x="1503" d="M178 0v1464q0 70 68 70q46 0 73 -43l916 -1366v1399h88v-1463q0 -35 -17.5 -53t-48.5 -18q-46 0 -73 43l-916 1366v-1399h-90zM647 1679q0 25 21 37l170 139h145l-254 -200q-24 -17 -41 -17q-19 0 -30 12.5t-11 28.5z" />
<glyph unicode="&#x144;" horiz-adv-x="1175" d="M164 0v961q0 77 76 96q219 65 368 65q208 0 308 -108t100 -291v-723h-90v715q0 321 -326 321q-137 0 -346 -63v-973h-90zM436 1360q0 20 19 39l172 164h137l-246 -226q-21 -18 -41 -18q-19 0 -30 13t-11 28z" />
<glyph unicode="&#x145;" horiz-adv-x="1503" d="M178 0v1464q0 70 68 70q46 0 73 -43l916 -1366v1399h88v-1463q0 -35 -17.5 -53t-48.5 -18q-46 0 -73 43l-916 1366v-1399h-90zM651 -354l70 250h100l-78 -273q-11 -43 -53 -43q-25 0 -36.5 18.5t-2.5 47.5z" />
<glyph unicode="&#x146;" horiz-adv-x="1175" d="M164 0v961q0 77 76 96q219 65 368 65q208 0 308 -108t100 -291v-723h-90v715q0 321 -326 321q-137 0 -346 -63v-973h-90zM487 -354l70 250h100l-77 -273q-11 -43 -54 -43q-25 0 -36.5 18.5t-2.5 47.5z" />
<glyph unicode="&#x147;" horiz-adv-x="1503" d="M178 0v1464q0 70 68 70q46 0 73 -43l916 -1366v1399h88v-1463q0 -35 -17.5 -53t-48.5 -18q-46 0 -73 43l-916 1366v-1399h-90zM453 1855h133l174 -141l176 141h133l-246 -194q-31 -23 -63 -23t-62 23z" />
<glyph unicode="&#x148;" horiz-adv-x="1175" d="M164 0v961q0 77 76 96q219 65 368 65q208 0 308 -108t100 -291v-723h-90v715q0 321 -326 321q-137 0 -346 -63v-973h-90zM266 1559h129l178 -193l181 193h129l-250 -248q-25 -25 -60 -25t-57 25z" />
<glyph unicode="&#x14a;" horiz-adv-x="1503" d="M178 0v1464q0 70 68 70q46 0 73 -43l916 -1327v1360h88v-1569q0 -154 -76.5 -240t-210.5 -86v80q97 2 148 65t51 183v45l-967 1397v-1399h-90z" />
<glyph unicode="&#x14b;" horiz-adv-x="1175" d="M164 0v961q0 77 76 96q219 65 368 65q208 0 308 -108t100 -291v-768q0 -154 -76.5 -240t-210.5 -86v80q197 3 197 248v758q0 321 -326 321q-137 0 -346 -63v-973h-90z" />
<glyph unicode="&#x14c;" horiz-adv-x="1597" d="M123 758q0 365 184.5 569.5t493.5 204.5t491.5 -204t182.5 -570q0 -368 -184 -571t-494 -203t-492 203t-182 571zM217 758q0 -329 157 -510.5t427 -181.5t423.5 181t153.5 511q0 326 -155.5 508t-425.5 182q-271 0 -425.5 -181.5t-154.5 -508.5zM504 1694v90h602v-90 h-602z" />
<glyph unicode="&#x14d;" horiz-adv-x="1234" d="M113 557q0 272 136.5 419.5t368.5 147.5t368 -147.5t136 -419.5q0 -271 -138 -420t-370 -149q-231 0 -366 149t-135 420zM207 557q0 -235 109 -361t302 -126t301.5 126t108.5 361q0 233 -110.5 359t-303.5 126q-192 0 -299.5 -125.5t-107.5 -359.5zM317 1393v88h603v-88 h-603z" />
<glyph unicode="&#x14e;" horiz-adv-x="1597" d="M123 758q0 365 184.5 569.5t493.5 204.5t491.5 -204t182.5 -570q0 -368 -184 -571t-494 -203t-492 203t-182 571zM217 758q0 -329 157 -510.5t427 -181.5t423.5 181t153.5 511q0 326 -155.5 508t-425.5 182q-271 0 -425.5 -181.5t-154.5 -508.5zM481 1862h88 q4 -64 70.5 -104t167.5 -40q103 0 168.5 39t71.5 105h86q-4 -103 -98.5 -163.5t-227.5 -60.5t-226.5 60t-99.5 164z" />
<glyph unicode="&#x14f;" horiz-adv-x="1234" d="M113 557q0 272 136.5 419.5t368.5 147.5t368 -147.5t136 -419.5q0 -271 -138 -420t-370 -149q-231 0 -366 149t-135 420zM207 557q0 -235 109 -361t302 -126t301.5 126t108.5 361q0 233 -110.5 359t-303.5 126q-192 0 -299.5 -125.5t-107.5 -359.5zM293 1556h88 q4 -84 70 -135t167 -51q102 0 168 50.5t72 135.5h86q-4 -119 -97.5 -192.5t-228.5 -73.5t-227 73.5t-98 192.5z" />
<glyph unicode="&#x150;" horiz-adv-x="1597" d="M123 758q0 365 184.5 569.5t493.5 204.5t491.5 -204t182.5 -570q0 -368 -184 -571t-494 -203t-492 203t-182 571zM217 758q0 -329 157 -510.5t427 -181.5t423.5 181t153.5 511q0 326 -155.5 508t-425.5 182q-271 0 -425.5 -181.5t-154.5 -508.5zM545 1673q0 17 20 37 l172 145h135l-245 -204q-24 -17 -43 -17q-18 0 -28.5 11.5t-10.5 27.5zM891 1665q0 19 22 35l177 155h141l-260 -213q-16 -16 -41 -16q-19 0 -29 11.5t-10 27.5z" />
<glyph unicode="&#x151;" horiz-adv-x="1234" d="M113 557q0 272 136.5 419.5t368.5 147.5t368 -147.5t136 -419.5q0 -271 -138 -420t-370 -149q-231 0 -366 149t-135 420zM207 557q0 -235 109 -361t302 -126t301.5 126t108.5 361q0 233 -110.5 359t-303.5 126q-192 0 -299.5 -125.5t-107.5 -359.5zM381 1343q0 18 20 41 l179 179h135l-252 -242q-21 -18 -41 -18t-30.5 11.5t-10.5 28.5zM725 1329q0 21 20 41l189 193h135l-262 -256q-22 -19 -41 -19q-20 0 -30.5 12t-10.5 29z" />
<glyph unicode="&#x152;" horiz-adv-x="2248" d="M123 758q0 359 180 562.5t492 203.5h1333v-86h-842v-617h742v-84h-742v-653h844v-84h-1339q-147 0 -270 51t-211.5 146.5t-137.5 239t-49 321.5zM217 758q0 -320 154 -497t422 -177h399v1356h-385q-278 0 -434 -182t-156 -500z" />
<glyph unicode="&#x153;" horiz-adv-x="2105" d="M113 557q0 272 136.5 419.5t368.5 147.5q172 0 291 -86t166 -250q48 166 165.5 254t275.5 88q221 0 351 -143t130 -407q0 -64 -60 -64h-815q7 -217 123 -329.5t305 -112.5q117 0 312 61l98 33l20 -84l-98 -33q-108 -35 -180 -49t-156 -14q-174 0 -298.5 85t-174.5 249 q-47 -162 -167 -248t-292 -86q-231 0 -366 149t-135 420zM207 557q0 -235 109 -361t302 -126t301.5 126t108.5 361q0 233 -110.5 359t-303.5 126q-192 0 -299.5 -125.5t-107.5 -359.5zM1122 598h783q0 207 -102.5 330t-289.5 123q-172 0 -278.5 -121.5t-112.5 -331.5z" />
<glyph unicode="&#x154;" horiz-adv-x="1325" d="M178 0v1440q0 40 23.5 62t66.5 22h512q195 0 301.5 -105t106.5 -291q0 -150 -117 -299l-127 -159l313 -670h-102l-299 643h-584v-643h-94zM272 725h611l104 135q109 149 109 266q0 145 -78.5 230.5t-239.5 85.5h-506v-717zM520 1679q0 25 21 37l170 139h145l-254 -200 q-24 -17 -41 -17q-19 0 -30 12.5t-11 28.5z" />
<glyph unicode="&#x155;" horiz-adv-x="718" d="M164 0v961q0 74 76 96q111 35 208.5 50t229.5 15v-90q-231 0 -422 -61v-971h-92zM352 1360q0 20 19 39l172 164h137l-246 -226q-21 -18 -41 -18q-19 0 -30 13t-11 28z" />
<glyph unicode="&#x156;" horiz-adv-x="1325" d="M178 0v1440q0 40 23.5 62t66.5 22h512q195 0 301.5 -105t106.5 -291q0 -150 -117 -299l-127 -159l313 -670h-102l-299 643h-584v-643h-94zM272 725h611l104 135q109 149 109 266q0 145 -78.5 230.5t-239.5 85.5h-506v-717zM571 -354l70 250h100l-77 -273q-11 -43 -54 -43 q-25 0 -36.5 18.5t-2.5 47.5z" />
<glyph unicode="&#x157;" horiz-adv-x="718" d="M98 -354l70 250h100l-78 -273q-11 -43 -53 -43q-25 0 -36.5 18.5t-2.5 47.5zM164 0v961q0 74 76 96q111 35 208.5 50t229.5 15v-90q-231 0 -422 -61v-971h-92z" />
<glyph unicode="&#x158;" horiz-adv-x="1325" d="M178 0v1440q0 40 23.5 62t66.5 22h512q195 0 301.5 -105t106.5 -291q0 -150 -117 -299l-127 -159l313 -670h-102l-299 643h-584v-643h-94zM272 725h611l104 135q109 149 109 266q0 145 -78.5 230.5t-239.5 85.5h-506v-717zM360 1855h134l174 -141l176 141h133l-246 -194 q-31 -23 -63 -23t-62 23z" />
<glyph unicode="&#x159;" horiz-adv-x="718" d="M141 1559h129l179 -193l180 193h129l-250 -248q-25 -25 -59 -25q-36 0 -58 25zM164 0v961q0 74 76 96q111 35 208.5 50t229.5 15v-90q-231 0 -422 -61v-971h-92z" />
<glyph unicode="&#x15a;" horiz-adv-x="1288" d="M133 100l23 86l94 -30q269 -86 455 -86q71 0 134.5 18.5t115 55.5t82 98.5t30.5 140.5q0 120 -67 192.5t-209 104.5l-302 68q-348 80 -348 382q0 101 38 180.5t102 127t143.5 72t167.5 24.5q116 0 224 -22t241 -66l92 -29l-21 -88l-94 31q-262 86 -440 86 q-73 0 -136 -18.5t-113.5 -55t-79.5 -98t-29 -141.5q0 -119 65.5 -190t206.5 -103l301 -70q352 -77 352 -383q0 -102 -38 -181t-103 -126.5t-144.5 -71.5t-168.5 -24q-212 0 -482 86zM535 1679q0 26 20 37l170 139h145l-254 -200q-24 -17 -41 -17q-19 0 -29.5 12.5 t-10.5 28.5z" />
<glyph unicode="&#x15b;" horiz-adv-x="1095" d="M127 72l18 84l80 -21q219 -61 367 -61q122 0 200 54t78 161q0 85 -53 134.5t-176 70.5l-215 38q-291 52 -291 285q0 103 53.5 174.5t135.5 103t184 31.5q165 0 383 -61l76 -23l-19 -86l-78 23q-214 59 -364 59q-122 0 -200.5 -55t-78.5 -162q0 -84 52.5 -133t175.5 -72 l215 -38q293 -52 293 -283q0 -103 -53.5 -174.5t-135.5 -103t-184 -31.5q-162 0 -385 63zM479 1360q0 20 19 39l172 164h137l-246 -226q-21 -18 -41 -18q-19 0 -30 13t-11 28z" />
<glyph unicode="&#x15c;" horiz-adv-x="1288" d="M133 100l23 86l94 -30q269 -86 455 -86q71 0 134.5 18.5t115 55.5t82 98.5t30.5 140.5q0 120 -67 192.5t-209 104.5l-302 68q-348 80 -348 382q0 101 38 180.5t102 127t143.5 72t167.5 24.5q116 0 224 -22t241 -66l92 -29l-21 -88l-94 31q-262 86 -440 86 q-73 0 -136 -18.5t-113.5 -55t-79.5 -98t-29 -141.5q0 -119 65.5 -190t206.5 -103l301 -70q352 -77 352 -383q0 -102 -38 -181t-103 -126.5t-144.5 -71.5t-168.5 -24q-212 0 -482 86zM352 1638l246 195q28 22 61 22q35 0 64 -22l246 -195h-133l-177 142l-174 -142h-133z" />
<glyph unicode="&#x15d;" horiz-adv-x="1095" d="M127 72l18 84l80 -21q219 -61 367 -61q122 0 200 54t78 161q0 85 -53 134.5t-176 70.5l-215 38q-291 52 -291 285q0 103 53.5 174.5t135.5 103t184 31.5q165 0 383 -61l76 -23l-19 -86l-78 23q-214 59 -364 59q-122 0 -200.5 -55t-78.5 -162q0 -84 52.5 -133t175.5 -72 l215 -38q293 -52 293 -283q0 -103 -53.5 -174.5t-135.5 -103t-184 -31.5q-162 0 -385 63zM254 1294l248 246q27 27 59 27q33 0 60 -27l249 -246h-129l-180 193l-178 -193h-129z" />
<glyph unicode="&#x15e;" horiz-adv-x="1288" d="M133 100l23 86l94 -30q269 -86 455 -86q71 0 134.5 18.5t115 55.5t82 98.5t30.5 140.5q0 120 -67 192.5t-209 104.5l-302 68q-348 80 -348 382q0 101 38 180.5t102 127t143.5 72t167.5 24.5q116 0 224 -22t241 -66l92 -29l-21 -88l-94 31q-262 86 -440 86 q-73 0 -136 -18.5t-113.5 -55t-79.5 -98t-29 -141.5q0 -119 65.5 -190t206.5 -103l301 -70q352 -77 352 -383q0 -102 -38 -181t-103 -126.5t-144.5 -71.5t-168.5 -24h-15l-53 -101q82 0 133 -32.5t51 -104.5q0 -69 -53.5 -107t-140.5 -38q-85 0 -158 30l18 60 q62 -27 136 -27q129 0 129 84q0 49 -45.5 68.5t-141.5 17.5l-8 12l74 140q-188 11 -408 84z" />
<glyph unicode="&#x15f;" horiz-adv-x="1095" d="M127 72l18 84l80 -21q219 -61 367 -61q122 0 200 54t78 161q0 85 -53 134.5t-176 70.5l-215 38q-291 52 -291 285q0 103 53.5 174.5t135.5 103t184 31.5q165 0 383 -61l76 -23l-19 -86l-78 23q-214 59 -364 59q-122 0 -200.5 -55t-78.5 -162q0 -84 52.5 -133t175.5 -72 l215 -38q293 -52 293 -283q0 -63 -20 -114.5t-54.5 -87t-82 -59.5t-101 -35.5t-113.5 -12.5l-53 -103q82 0 133 -32.5t51 -104.5q0 -69 -54 -107t-141 -38q-84 0 -157 30l18 60q62 -27 135 -27q129 0 129 84q0 49 -45 68.5t-141 17.5l-8 12l73 142q-140 7 -327 61z" />
<glyph unicode="&#x160;" horiz-adv-x="1284" d="M133 100l23 86l94 -30q269 -86 455 -86q71 0 134.5 18.5t115 55.5t82 98.5t30.5 140.5q0 120 -67 192.5t-209 104.5l-302 68q-348 80 -348 382q0 101 38 180.5t102 127t143.5 72t167.5 24.5q116 0 224 -22t241 -66l92 -29l-21 -88l-94 31q-262 86 -440 86 q-73 0 -136 -18.5t-113.5 -55t-79.5 -98t-29 -141.5q0 -119 65.5 -190t206.5 -103l301 -70q352 -77 352 -383q0 -102 -38 -181t-103 -126.5t-144.5 -71.5t-168.5 -24q-212 0 -482 86zM350 1855h133l174 -141l177 141h133l-246 -194q-31 -23 -64 -23q-31 0 -61 23z" />
<glyph unicode="&#x161;" horiz-adv-x="1095" d="M127 72l18 84l80 -21q219 -61 367 -61q122 0 200 54t78 161q0 85 -53 134.5t-176 70.5l-215 38q-291 52 -291 285q0 103 53.5 174.5t135.5 103t184 31.5q165 0 383 -61l76 -23l-19 -86l-78 23q-214 59 -364 59q-122 0 -200.5 -55t-78.5 -162q0 -84 52.5 -133t175.5 -72 l215 -38q293 -52 293 -283q0 -103 -53.5 -174.5t-135.5 -103t-184 -31.5q-162 0 -385 63zM258 1559h129l178 -193l180 193h129l-249 -248q-25 -25 -60 -25t-57 25z" />
<glyph unicode="&#x162;" horiz-adv-x="1239" d="M74 1438v86h1093v-86h-499v-1438h-97v1438h-497zM500 -354l69 250h101l-78 -273q-11 -43 -53 -43q-25 0 -36.5 18.5t-2.5 47.5z" />
<glyph unicode="&#x163;" horiz-adv-x="827" d="M61 1008v84h185v292l92 19v-311h391v-84h-391v-670q0 -135 50 -199.5t159 -64.5q66 0 190 28l15 -86q-6 -1 -44 -8t-57 -10t-51 -6.5t-57 -3.5q-297 0 -297 342v678h-185zM358 -354l70 250h100l-77 -273q-11 -43 -54 -43q-25 0 -36.5 18.5t-2.5 47.5z" />
<glyph unicode="&#x164;" horiz-adv-x="1239" d="M74 1438v86h1093v-86h-499v-1438h-97v1438h-497zM311 1855h133l174 -141l177 141h133l-246 -194q-31 -23 -64 -23q-31 0 -61 23z" />
<glyph unicode="&#x165;" horiz-adv-x="1040" d="M61 1008v84h185v292l92 19v-311h391v-84h-391v-670q0 -135 50 -199.5t159 -64.5q66 0 190 28l15 -86q-6 -1 -44 -8t-57 -10t-51 -6.5t-57 -3.5q-297 0 -297 342v678h-185zM508 1266l82 297h100l-94 -322q-12 -43 -47 -43q-28 0 -38.5 19.5t-2.5 48.5z" />
<glyph unicode="&#x166;" horiz-adv-x="1239" d="M72 1438v86h1093v-86h-499v-617h383v-86h-383v-735h-97v735h-376v86h376v617h-497z" />
<glyph unicode="&#x167;" horiz-adv-x="827" d="M59 610v84h187v314h-185v84h185v292l92 19v-311h391v-84h-391v-314h391v-84h-391v-272q0 -135 50 -199.5t159 -64.5q66 0 190 28l15 -86q-6 -1 -44 -8t-57 -10t-51 -6.5t-57 -3.5q-297 0 -297 342v280h-187z" />
<glyph unicode="&#x168;" horiz-adv-x="1468" d="M168 532v992h96v-992q0 -227 119.5 -351t351.5 -124q237 0 353 122t116 353v992h96v-992q0 -264 -147 -412.5t-418 -148.5q-272 0 -419.5 148.5t-147.5 412.5zM354 1700q36 87 97.5 128.5t128.5 41.5q79 0 141 -43l92 -62q53 -36 105 -36q99 0 155 124l70 -38 q-34 -86 -95 -127t-128 -41q-76 0 -144 45l-92 61q-52 35 -104 35q-100 0 -156 -127z" />
<glyph unicode="&#x169;" horiz-adv-x="1175" d="M158 389v725h90v-717q0 -319 325 -319q145 0 347 61v975h92v-962q0 -75 -76 -97q-212 -63 -371 -63q-207 0 -307 108t-100 289zM184 1364q35 95 100 140.5t134 45.5q81 0 141 -47l100 -73q56 -41 107 -41q102 0 160 137l69 -39q-34 -94 -98 -139t-133 -45q-78 0 -141 49 l-101 73q-53 39 -106 39q-105 0 -162 -139z" />
<glyph unicode="&#x16a;" horiz-adv-x="1468" d="M168 532v992h96v-992q0 -227 119.5 -351t351.5 -124q237 0 353 122t116 353v992h96v-992q0 -264 -147 -412.5t-418 -148.5q-272 0 -419.5 148.5t-147.5 412.5zM436 1694v90h602v-90h-602z" />
<glyph unicode="&#x16b;" horiz-adv-x="1175" d="M158 389v725h90v-717q0 -319 325 -319q145 0 347 61v975h92v-962q0 -75 -76 -97q-212 -63 -371 -63q-207 0 -307 108t-100 289zM289 1393v88h602v-88h-602z" />
<glyph unicode="&#x16c;" horiz-adv-x="1468" d="M168 532v992h96v-992q0 -227 119.5 -351t351.5 -124q237 0 353 122t116 353v992h96v-992q0 -264 -147 -412.5t-418 -148.5q-272 0 -419.5 148.5t-147.5 412.5zM416 1862h88q4 -64 70 -104t167 -40q103 0 168.5 39t71.5 105h86q-4 -103 -98.5 -163.5t-227.5 -60.5t-226 60 t-99 164z" />
<glyph unicode="&#x16d;" horiz-adv-x="1175" d="M158 389v725h90v-717q0 -319 325 -319q145 0 347 61v975h92v-962q0 -75 -76 -97q-212 -63 -371 -63q-207 0 -307 108t-100 289zM266 1556h88q4 -84 70.5 -135t167.5 -51q102 0 167.5 50t71.5 136h87q-4 -119 -97.5 -192.5t-228.5 -73.5t-227.5 73.5t-98.5 192.5z" />
<glyph unicode="&#x16e;" horiz-adv-x="1468" d="M168 532v992h96v-992q0 -227 119.5 -351t351.5 -124q237 0 353 122t116 353v992h96v-992q0 -264 -147 -412.5t-418 -148.5q-272 0 -419.5 148.5t-147.5 412.5zM545 1808q0 78 54.5 126t135.5 48q84 0 139.5 -48t55.5 -126q0 -75 -57 -124.5t-138 -49.5q-79 0 -134.5 49.5 t-55.5 124.5zM610 1808q0 -51 34.5 -81.5t90.5 -30.5q58 0 94.5 31t36.5 81q0 51 -36.5 83t-94.5 32q-57 0 -91 -32t-34 -83z" />
<glyph unicode="&#x16f;" horiz-adv-x="1175" d="M158 389v725h90v-717q0 -319 325 -319q145 0 347 61v975h92v-962q0 -75 -76 -97q-212 -63 -371 -63q-207 0 -307 108t-100 289zM389 1438q0 86 57.5 140t143.5 54q88 0 145.5 -53.5t57.5 -140.5q0 -85 -58.5 -141t-144.5 -56q-84 0 -142.5 56t-58.5 141zM455 1438 q0 -61 37.5 -99.5t97.5 -38.5t99.5 38.5t39.5 99.5q0 59 -39 96t-100 37t-98 -37t-37 -96z" />
<glyph unicode="&#x170;" horiz-adv-x="1468" d="M168 532v992h96v-992q0 -227 119.5 -351t351.5 -124q237 0 353 122t116 353v992h96v-992q0 -264 -147 -412.5t-418 -148.5q-272 0 -419.5 148.5t-147.5 412.5zM496 1673q0 17 20 37l172 145h135l-245 -204q-24 -17 -43 -17q-18 0 -28.5 11.5t-10.5 27.5zM842 1665 q0 19 22 35l176 155h142l-260 -213q-16 -16 -41 -16q-19 0 -29 11.5t-10 27.5z" />
<glyph unicode="&#x171;" horiz-adv-x="1175" d="M158 389v725h90v-717q0 -319 325 -319q145 0 347 61v975h92v-962q0 -75 -76 -97q-212 -63 -371 -63q-207 0 -307 108t-100 289zM342 1343q0 18 20 41l179 179h135l-252 -242q-21 -18 -41 -18t-30.5 11.5t-10.5 28.5zM686 1329q0 20 21 41l188 193h135l-262 -256 q-22 -19 -41 -19q-20 0 -30.5 12t-10.5 29z" />
<glyph unicode="&#x172;" horiz-adv-x="1468" d="M168 532v992h96v-992q0 -227 119.5 -351t351.5 -124q237 0 353 122t116 353v992h96v-992q0 -180 -70 -308t-204 -193q-98 -59 -98 -152q0 -108 151 -108q92 0 170 28l15 -67q-82 -33 -189 -33q-103 0 -166 42t-63 122q0 71 51 125q-83 -17 -162 -17q-272 0 -419.5 148.5 t-147.5 412.5z" />
<glyph unicode="&#x173;" horiz-adv-x="1175" d="M158 389v725h90v-717q0 -319 325 -319q145 0 347 61v975h92v-962q0 -75 -76 -97q-65 -19 -113 -30q-121 -62 -121 -164q0 -109 152 -109q89 0 170 29l14 -68q-80 -32 -188 -32q-103 0 -166 41.5t-63 121.5q0 96 90 158q-88 -10 -146 -10q-207 0 -307 108t-100 289z" />
<glyph unicode="&#x174;" horiz-adv-x="1867" d="M72 1524h92l268 -1422l436 1373q12 49 68 49q53 0 68 -49l426 -1373l276 1422h90l-289 -1479q-13 -59 -73 -59q-61 0 -76 55l-424 1380l-436 -1380q-15 -53 -74 -53t-72 59zM625 1638l245 195q28 22 62 22t63 -22l246 -195h-133l-176 142l-174 -142h-133z" />
<glyph unicode="&#x175;" horiz-adv-x="1611" d="M82 1114h96l209 -1030l361 991q12 43 59 43t59 -43l353 -993l217 1032h94l-240 -1077q-6 -28 -24.5 -44t-46.5 -16q-57 0 -72 54l-340 970l-354 -970q-17 -51 -74 -51q-60 0 -72 57zM502 1294l248 246q27 27 59 27t59 -27l250 -246h-129l-180 193l-178 -193h-129z" />
<glyph unicode="&#x176;" horiz-adv-x="1312" d="M51 1524h111l500 -776l491 776h109l-553 -860v-664h-99v659zM350 1638l246 195q28 22 61 22q35 0 64 -22l246 -195h-133l-177 142l-174 -142h-133z" />
<glyph unicode="&#x177;" horiz-adv-x="1075" d="M66 1114h104l403 -1059l342 1059h103l-426 -1266q-38 -111 -107.5 -166t-181.5 -55q-75 0 -197 31l17 86q125 -33 180 -33q85 0 132 43t71 123l18 64zM246 1294l248 246q27 27 59 27t59 -27l250 -246h-129l-180 193l-178 -193h-129z" />
<glyph unicode="&#x178;" horiz-adv-x="1312" d="M51 1524h111l500 -776l491 776h109l-553 -860v-664h-99v659zM403 1759q0 35 19 56.5t51 21.5t51 -21.5t19 -56.5q0 -37 -19 -58.5t-51 -21.5t-51 21.5t-19 58.5zM784 1759q0 35 19 56.5t51 21.5t51 -21.5t19 -56.5q0 -37 -19 -58.5t-51 -21.5t-51 21.5t-19 58.5z" />
<glyph unicode="&#x179;" horiz-adv-x="1304" d="M123 63q0 33 20 56l926 1321h-922v84h961q31 0 47 -17.5t16 -46.5q0 -30 -18 -57l-926 -1321h955v-82h-996q-31 0 -47 17t-16 46zM543 1679q0 26 20 37l170 139h146l-254 -200q-24 -17 -41 -17q-19 0 -30 12.5t-11 28.5z" />
<glyph unicode="&#x17a;" horiz-adv-x="1091" d="M113 61q0 33 22 58l735 915h-733v80h778q30 0 45 -16.5t15 -44.5q0 -30 -21 -58l-737 -915h768v-80h-813q-59 0 -59 61zM449 1360q0 21 18 39l172 164h137l-246 -226q-21 -18 -41 -18q-19 0 -29.5 13t-10.5 28z" />
<glyph unicode="&#x17b;" horiz-adv-x="1304" d="M123 63q0 33 20 56l926 1321h-922v84h961q31 0 47 -17.5t16 -46.5q0 -30 -18 -57l-926 -1321h955v-82h-996q-31 0 -47 17t-16 46zM598 1759q0 35 19 56.5t51 21.5q33 0 52 -21t19 -57q0 -37 -19 -58.5t-52 -21.5q-32 0 -51 21.5t-19 58.5z" />
<glyph unicode="&#x17c;" horiz-adv-x="1091" d="M113 61q0 33 22 58l735 915h-733v80h778q30 0 45 -16.5t15 -44.5q0 -30 -21 -58l-737 -915h768v-80h-813q-59 0 -59 61zM487 1489q0 37 19 58.5t51 21.5q34 0 53 -21.5t19 -58.5q0 -36 -19.5 -57t-52.5 -21q-32 0 -51 21.5t-19 56.5z" />
<glyph unicode="&#x17d;" horiz-adv-x="1304" d="M123 63q0 33 20 56l926 1321h-922v84h961q31 0 47 -17.5t16 -46.5q0 -30 -18 -57l-926 -1321h955v-82h-996q-31 0 -47 17t-16 46zM350 1855h133l174 -141l177 141h133l-246 -194q-31 -23 -64 -23q-31 0 -61 23z" />
<glyph unicode="&#x17e;" horiz-adv-x="1091" d="M113 61q0 33 22 58l735 915h-733v80h778q30 0 45 -16.5t15 -44.5q0 -30 -21 -58l-737 -915h768v-80h-813q-59 0 -59 61zM262 1559h129l178 -193l181 193h129l-250 -248q-25 -25 -60 -25t-57 25z" />
<glyph unicode="&#x192;" d="M281 -291q97 2 147.5 65t50.5 183v1053h-190v82h190v129q0 169 79.5 256.5t225.5 87.5q64 0 203 -29l-14 -84q-129 27 -189 27q-111 0 -163 -64t-52 -201v-122h363v-82h-363v-1055q0 -154 -77 -240t-211 -86v80z" />
<glyph unicode="&#x218;" horiz-adv-x="1288" d="M133 100l23 86l94 -30q269 -86 455 -86q71 0 134.5 18.5t115 55.5t82 98.5t30.5 140.5q0 120 -67 192.5t-209 104.5l-302 68q-348 80 -348 382q0 101 38 180.5t102 127t143.5 72t167.5 24.5q116 0 224 -22t241 -66l92 -29l-21 -88l-94 31q-262 86 -440 86 q-73 0 -136 -18.5t-113.5 -55t-79.5 -98t-29 -141.5q0 -119 65.5 -190t206.5 -103l301 -70q352 -77 352 -383q0 -102 -38 -181t-103 -126.5t-144.5 -71.5t-168.5 -24q-212 0 -482 86zM539 -354l69 250h101l-78 -273q-11 -43 -53 -43q-25 0 -36.5 18.5t-2.5 47.5z" />
<glyph unicode="&#x219;" horiz-adv-x="1095" d="M127 72l18 84l80 -21q219 -61 367 -61q122 0 200 54t78 161q0 85 -53 134.5t-176 70.5l-215 38q-291 52 -291 285q0 103 53.5 174.5t135.5 103t184 31.5q165 0 383 -61l76 -23l-19 -86l-78 23q-214 59 -364 59q-122 0 -200.5 -55t-78.5 -162q0 -84 52.5 -133t175.5 -72 l215 -38q293 -52 293 -283q0 -103 -53.5 -174.5t-135.5 -103t-184 -31.5q-162 0 -385 63zM446 -354l70 250h100l-77 -273q-11 -43 -54 -43q-25 0 -36.5 18.5t-2.5 47.5z" />
<glyph unicode="&#x237;" horiz-adv-x="495" d="M25 -291q196 3 196 248v1157h94v-1159q0 -154 -77.5 -240t-212.5 -86v80z" />
<glyph unicode="&#x2c6;" horiz-adv-x="1069" d="M268 1294l248 246q27 27 59 27q33 0 60 -27l250 -246h-129l-181 193l-178 -193h-129z" />
<glyph unicode="&#x2c7;" horiz-adv-x="1069" d="M268 1559h129l178 -193l181 193h129l-250 -248q-25 -25 -60 -25t-57 25z" />
<glyph unicode="&#x2d8;" horiz-adv-x="1069" d="M242 1556h88q4 -84 70 -135t167 -51q102 0 168 50.5t72 135.5h86q-4 -119 -97.5 -192.5t-228.5 -73.5t-227 73.5t-98 192.5z" />
<glyph unicode="&#x2d9;" horiz-adv-x="1069" d="M473 1489q0 37 19 58.5t51 21.5q33 0 52 -21.5t19 -58.5q0 -36 -19 -57t-52 -21q-32 0 -51 21.5t-19 56.5z" />
<glyph unicode="&#x2da;" horiz-adv-x="1069" d="M367 1438q0 86 57 140t143 54q88 0 145.5 -53.5t57.5 -140.5q0 -85 -58.5 -141t-144.5 -56q-84 0 -142 56t-58 141zM432 1438q0 -61 37.5 -99.5t97.5 -38.5q61 0 100.5 38.5t39.5 99.5q0 58 -39 95.5t-101 37.5q-61 0 -98 -37t-37 -96z" />
<glyph unicode="&#x2db;" horiz-adv-x="1085" d="M358 -182q0 117 138 186l63 8l6 -12q-62 -31 -93.5 -74.5t-31.5 -91.5q0 -108 152 -108q92 0 170 28l14 -67q-82 -33 -188 -33q-103 0 -166.5 42t-63.5 122z" />
<glyph unicode="&#x2dc;" horiz-adv-x="1069" d="M143 1364q35 95 100 140.5t134 45.5q81 0 141 -47l100 -73q56 -41 107 -41q102 0 160 137l69 -39q-34 -94 -98 -139t-133 -45q-78 0 -141 49l-101 73q-53 39 -106 39q-105 0 -162 -139z" />
<glyph unicode="&#x2dd;" horiz-adv-x="1069" d="M219 1343q0 17 21 41l178 179h135l-252 -242q-21 -18 -41 -18t-30.5 11.5t-10.5 28.5zM563 1329q0 20 21 41l188 193h135l-262 -256q-22 -19 -41 -19q-20 0 -30.5 12t-10.5 29z" />
<glyph unicode="&#x3c0;" horiz-adv-x="1402" d="M72 1032v82h1255v-82h-391v-694q0 -135 50 -199.5t159 -64.5q62 0 190 28l15 -86q-154 -28 -207 -28q-297 0 -297 342v702h-494v-1032h-92v1032h-188z" />
<glyph unicode="&#x1e80;" horiz-adv-x="1865" d="M72 1524h92l268 -1422l436 1373q12 49 68 49q53 0 68 -49l426 -1373l276 1422h90l-289 -1479q-13 -59 -73 -59q-61 0 -76 55l-424 1380l-436 -1380q-15 -53 -74 -53t-72 59zM760 1855h147l170 -139q21 -12 21 -37q0 -16 -11 -28.5t-30 -12.5q-16 0 -43 17z" />
<glyph unicode="&#x1e81;" horiz-adv-x="1617" d="M82 1114h96l209 -1030l361 991q12 43 59 43t59 -43l353 -993l217 1032h94l-240 -1077q-6 -28 -24.5 -44t-46.5 -16q-57 0 -72 54l-340 970l-354 -970q-17 -51 -74 -51q-60 0 -72 57zM596 1563h137l172 -164q19 -19 19 -39q0 -15 -11 -28t-30 -13q-20 0 -41 18z" />
<glyph unicode="&#x1e82;" horiz-adv-x="1867" d="M72 1524h92l268 -1422l436 1373q12 49 68 49q53 0 68 -49l426 -1373l276 1422h90l-289 -1479q-13 -59 -73 -59q-61 0 -76 55l-424 1380l-436 -1380q-15 -53 -74 -53t-72 59zM805 1679q0 26 20 37l170 139h146l-254 -200q-24 -17 -41 -17q-19 0 -30 12.5t-11 28.5z" />
<glyph unicode="&#x1e83;" horiz-adv-x="1611" d="M82 1114h96l209 -1030l361 991q12 43 59 43t59 -43l353 -993l217 1032h94l-240 -1077q-6 -28 -24.5 -44t-46.5 -16q-57 0 -72 54l-340 970l-354 -970q-17 -51 -74 -51q-60 0 -72 57zM700 1360q0 20 19 39l172 164h137l-246 -226q-21 -18 -41 -18q-19 0 -30 13t-11 28z " />
<glyph unicode="&#x1e84;" horiz-adv-x="1865" d="M72 1524h92l268 -1422l436 1373q12 49 68 49q53 0 68 -49l426 -1373l276 1422h90l-289 -1479q-13 -59 -73 -59q-61 0 -76 55l-424 1380l-436 -1380q-15 -53 -74 -53t-72 59zM674 1759q0 36 18.5 57t50.5 21t51 -21.5t19 -56.5q0 -37 -19 -58.5t-51 -21.5t-50.5 21.5 t-18.5 58.5zM1055 1759q0 36 18.5 57t50.5 21t51 -21.5t19 -56.5q0 -37 -19 -58.5t-51 -21.5t-50.5 21.5t-18.5 58.5z" />
<glyph unicode="&#x1e85;" horiz-adv-x="1617" d="M82 1114h96l209 -1030l361 991q12 43 59 43t59 -43l353 -993l217 1032h94l-240 -1077q-6 -28 -24.5 -44t-46.5 -16q-57 0 -72 54l-340 970l-354 -970q-17 -51 -74 -51q-60 0 -72 57zM547 1489q0 37 18.5 58.5t50.5 21.5t51 -21.5t19 -58.5q0 -35 -19 -56.5t-51 -21.5 t-50.5 21t-18.5 57zM926 1489q0 37 18.5 58.5t50.5 21.5q34 0 53 -21.5t19 -58.5q0 -36 -19.5 -57t-52.5 -21q-32 0 -50.5 21t-18.5 57z" />
<glyph unicode="&#x1ef2;" horiz-adv-x="1327" d="M51 1524h111l500 -776l491 776h109l-553 -860v-664h-99v659zM459 1855h147l170 -139q21 -12 21 -37q0 -16 -11 -28.5t-30 -12.5q-16 0 -43 17z" />
<glyph unicode="&#x1ef3;" horiz-adv-x="1085" d="M66 1114h104l403 -1059l342 1059h103l-426 -1266q-38 -111 -107.5 -166t-181.5 -55q-75 0 -197 31l17 86q125 -33 180 -33q85 0 132 43t71 123l18 64zM313 1563h138l172 -164q18 -18 18 -39q0 -15 -11 -28t-30 -13q-20 0 -41 18z" />
<glyph unicode="&#x2000;" horiz-adv-x="991" />
<glyph unicode="&#x2001;" horiz-adv-x="1982" />
<glyph unicode="&#x2002;" horiz-adv-x="991" />
<glyph unicode="&#x2003;" horiz-adv-x="1982" />
<glyph unicode="&#x2004;" horiz-adv-x="660" />
<glyph unicode="&#x2005;" horiz-adv-x="495" />
<glyph unicode="&#x2006;" horiz-adv-x="330" />
<glyph unicode="&#x2007;" horiz-adv-x="330" />
<glyph unicode="&#x2008;" horiz-adv-x="247" />
<glyph unicode="&#x2009;" horiz-adv-x="396" />
<glyph unicode="&#x200a;" horiz-adv-x="110" />
<glyph unicode="&#x2010;" horiz-adv-x="833" d="M139 588v90h557v-90h-557z" />
<glyph unicode="&#x2011;" horiz-adv-x="833" d="M139 588v90h557v-90h-557z" />
<glyph unicode="&#x2012;" d="M127 582v90h936v-90h-936z" />
<glyph unicode="&#x2013;" d="M127 582v90h936v-90h-936z" />
<glyph unicode="&#x2014;" horiz-adv-x="2017" d="M119 582v88h1777v-88h-1777z" />
<glyph unicode="&#x2018;" horiz-adv-x="419" d="M109 1161l100 359q12 43 51 43q27 0 39 -20t4 -48l-90 -334h-104z" />
<glyph unicode="&#x2019;" horiz-adv-x="419" d="M113 1223l92 340h104l-102 -365q-12 -43 -49 -43q-28 0 -40.5 19.5t-4.5 48.5z" />
<glyph unicode="&#x201a;" horiz-adv-x="419" d="M113 -158l94 344h104l-104 -368q-12 -43 -49 -43q-29 0 -41 19t-4 48z" />
<glyph unicode="&#x201c;" horiz-adv-x="772" d="M109 1161l100 359q12 43 51 43q27 0 39 -20t4 -48l-90 -334h-104zM463 1161l100 359q12 43 49 43q28 0 40.5 -19.5t4.5 -48.5l-90 -334h-104z" />
<glyph unicode="&#x201d;" horiz-adv-x="772" d="M113 1223l92 340h104l-102 -365q-12 -43 -49 -43q-28 0 -40.5 19.5t-4.5 48.5zM467 1223l90 340h105l-101 -365q-12 -43 -51 -43q-27 0 -39 20t-4 48z" />
<glyph unicode="&#x201e;" horiz-adv-x="772" d="M113 -160l94 346h104l-104 -370q-12 -43 -49 -43q-29 0 -41 19t-4 48zM467 -160l92 346h105l-103 -370q-12 -43 -51 -43q-27 0 -39 19.5t-4 47.5z" />
<glyph unicode="&#x2020;" d="M127 891v117l434 -23l-22 539h116l-22 -539l426 23v-117l-428 22l24 -1294h-118l24 1294z" />
<glyph unicode="&#x2021;" d="M129 137v117l440 -21l-30 338v-2l30 342l-440 -22v117l434 -21l-24 539h116l-22 -539l428 21v-117l-436 22l30 -342l-30 -336l436 21v-117l-428 23l22 -541h-116l24 541z" />
<glyph unicode="&#x2022;" horiz-adv-x="872" d="M221 682q0 119 59.5 185.5t163.5 66.5q106 0 167 -66.5t61 -185.5t-61 -185.5t-167 -66.5q-104 0 -163.5 66.5t-59.5 185.5z" />
<glyph unicode="&#x2026;" horiz-adv-x="1259" d="M147 63q0 37 19 58.5t51 21.5q34 0 53 -21.5t19 -58.5t-19 -57t-53 -20q-33 0 -51.5 20.5t-18.5 56.5zM567 63q0 37 19 58.5t51 21.5q34 0 53 -21.5t19 -58.5t-19 -57t-53 -20q-33 0 -51.5 20.5t-18.5 56.5zM987 63q0 37 19 58.5t51 21.5q33 0 52 -21.5t19 -58.5 t-18.5 -57t-52.5 -20q-33 0 -51.5 20.5t-18.5 56.5z" />
<glyph unicode="&#x202f;" horiz-adv-x="396" />
<glyph unicode="&#x2030;" horiz-adv-x="1757" d="M74 1049v249q0 109 59 171.5t168 62.5q108 0 163.5 -62t55.5 -174v-245q0 -115 -55 -176.5t-164 -61.5t-168 63t-59 173zM150 1051q0 -80 37 -125t112 -45q147 0 147 170v243q0 170 -147 170q-75 0 -112 -45t-37 -125v-243zM162 0l784 1524h84l-782 -1524h-86zM666 223 v250q0 110 59 173t168 63q108 0 163.5 -62.5t55.5 -173.5v-246q0 -115 -55 -176t-164 -61t-168 61.5t-59 171.5zM741 227q0 -80 37.5 -125t112.5 -45q147 0 147 170v244q0 170 -147 170q-75 0 -112.5 -45t-37.5 -125v-244zM1235 223v250q0 110 59 173t168 63 q108 0 163.5 -62.5t55.5 -173.5v-246q0 -115 -55 -176t-164 -61t-168 61.5t-59 171.5zM1311 227q0 -80 37 -125t112 -45q148 0 148 170v244q0 170 -148 170q-75 0 -112 -45t-37 -125v-244z" />
<glyph unicode="&#x2039;" horiz-adv-x="692" d="M115 573q0 32 28 60l326 321h121l-387 -381l393 -378h-121l-332 319q-28 28 -28 59z" />
<glyph unicode="&#x203a;" horiz-adv-x="692" d="M96 195l393 378l-387 381h121l326 -321q29 -29 29 -60q0 -30 -29 -59l-332 -319h-121z" />
<glyph unicode="&#x2044;" horiz-adv-x="40" d="M-414 0l785 1524h84l-783 -1524h-86z" />
<glyph unicode="&#x205f;" horiz-adv-x="495" />
<glyph unicode="&#x2070;" horiz-adv-x="604" d="M76 1247v250q0 110 59 173t168 63q108 0 163.5 -62.5t55.5 -173.5v-246q0 -115 -55 -176t-164 -61t-168 61.5t-59 171.5zM152 1251q0 -80 37 -125t112 -45q148 0 148 170v244q0 170 -148 170q-75 0 -112 -45t-37 -125v-244z" />
<glyph unicode="&#x2074;" horiz-adv-x="604" d="M45 1196q0 20 14 37l324 469q17 29 51 29q45 0 45 -45v-465h84v-66h-84v-131h-73v131h-320q-41 0 -41 41zM137 1221h269v383z" />
<glyph unicode="&#x2075;" horiz-adv-x="604" d="M63 1063l17 67l47 -14q98 -31 166 -31q83 0 126.5 45t43.5 121q0 154 -166 154q-54 0 -125 -19l-72 -20v356h406v-69h-334v-199q71 21 131 21q111 0 172.5 -56t61.5 -168q0 -108 -64.5 -171.5t-179.5 -63.5q-92 0 -187 33z" />
<glyph unicode="&#x2076;" horiz-adv-x="604" d="M76 1251v256q0 99 59.5 161.5t163.5 62.5q69 0 186 -31l43 -10l-14 -70l-53 14q-110 27 -162 27q-72 0 -109.5 -41t-37.5 -113v-65q98 33 155 33q117 0 176.5 -59.5t59.5 -166.5q0 -102 -60 -166.5t-170 -64.5q-112 0 -174.5 63.5t-62.5 169.5zM152 1253q0 -78 42.5 -124 t120.5 -46q73 0 113.5 46.5t40.5 119.5t-40 114.5t-126 41.5q-54 0 -151 -31v-121z" />
<glyph unicode="&#x2077;" horiz-adv-x="604" d="M74 1653v69h418q23 0 36 -12t13 -31q0 -16 -9 -34l-266 -621h-82l273 629h-383z" />
<glyph unicode="&#x2078;" horiz-adv-x="604" d="M59 1198q0 76 56 129l49 49l-41 54q-43 55 -43 124q0 79 58.5 129t160.5 50q104 0 162.5 -50t58.5 -129q0 -69 -43 -124l-39 -54l49 -49q56 -59 56 -129q0 -85 -65 -134.5t-177 -49.5q-111 0 -176.5 49.5t-65.5 134.5zM135 1198q0 -53 42.5 -85t123.5 -32q80 0 122 32 t42 85q0 51 -39 90l-49 53h-152l-51 -53q-39 -39 -39 -90zM156 1554q0 -53 30 -94l39 -53h152l37 51q32 40 32 96q0 47 -36.5 78t-108.5 31t-108.5 -31t-36.5 -78z" />
<glyph unicode="&#x2079;" horiz-adv-x="604" d="M63 1499q0 101 60.5 166.5t169.5 65.5q112 0 174.5 -64.5t62.5 -169.5v-256q0 -99 -59 -161t-162 -62q-66 0 -186 29l-43 12l12 69l53 -14q96 -27 162 -27q72 0 110 41t38 113v64q-92 -31 -156 -31q-118 0 -177 58.5t-59 166.5zM139 1499q0 -156 166 -156q60 0 150 29 v121q0 79 -42.5 124.5t-119.5 45.5q-73 0 -113.5 -45.5t-40.5 -118.5z" />
<glyph unicode="&#x207a;" horiz-adv-x="604" d="M66 1300v68h192v199h74v-199h192v-68h-192v-200h-74v200h-192z" />
<glyph unicode="&#x207b;" horiz-adv-x="604" d="M68 1300v70h454v-70h-454z" />
<glyph unicode="&#x207c;" horiz-adv-x="604" d="M63 1206v70h461v-70h-461zM63 1389v71h461v-71h-461z" />
<glyph unicode="&#x207d;" horiz-adv-x="317" d="M43 1343q0 362 221 383v-65q-145 -29 -145 -318q0 -75 10 -132.5t24 -90t35 -54.5t38 -30t38 -12v-66q-33 3 -61.5 13.5t-59 38t-52 68.5t-35 109t-13.5 156z" />
<glyph unicode="&#x207e;" horiz-adv-x="317" d="M29 958v66q21 4 38 12t38 30t35 54.5t24 90t10 132.5q0 289 -145 318v65q221 -21 221 -383q0 -88 -14 -156t-35.5 -109t-51.5 -68.5t-59 -38t-61 -13.5z" />
<glyph unicode="&#x207f;" horiz-adv-x="772" d="M123 844v577q0 59 57 72q129 37 219 37q127 0 188.5 -67t61.5 -177v-442h-76v436q0 178 -180 178q-75 0 -194 -31v-583h-76z" />
<glyph unicode="&#x2080;" horiz-adv-x="604" d="M76 18v250q0 110 59 173t168 63q108 0 163.5 -62.5t55.5 -173.5v-245q0 -115 -55 -176.5t-164 -61.5t-168 61.5t-59 171.5zM152 23q0 -80 37 -125t112 -45q148 0 148 170v243q0 170 -148 170q-75 0 -112 -45t-37 -125v-243z" />
<glyph unicode="&#x2081;" horiz-adv-x="604" d="M66 -137h225v561h-58q-50 0 -106 -21l-21 68q59 23 125 23h76q62 0 62 -60v-571h176v-68h-479v68z" />
<glyph unicode="&#x2082;" horiz-adv-x="604" d="M66 -162q0 23 20 39l262 244q59 55 81 92t22 94q0 63 -40 95t-104 32q-89 0 -174 -33l-47 -16l-14 68l45 16q104 35 192 35q94 0 154.5 -49.5t60.5 -147.5q0 -65 -28.5 -118.5t-98.5 -116.5l-227 -211h360v-66h-419q-45 0 -45 43z" />
<glyph unicode="&#x2083;" horiz-adv-x="604" d="M61 -166l17 70l45 -15q113 -34 190 -34q73 0 113.5 31.5t40.5 86.5q0 47 -45 95l-45 47h-141v65h141l39 51q30 41 30 95q0 49 -33 78.5t-102 29.5q-79 0 -174 -31l-47 -16l-14 68l45 14q104 35 190 35q103 0 156 -46t53 -130q0 -70 -43 -127l-39 -51l45 -48 q60 -63 60 -127q0 -86 -63.5 -137t-166.5 -51q-101 0 -207 33z" />
<glyph unicode="&#x2084;" horiz-adv-x="604" d="M45 -33q0 19 14 37l324 469q17 29 51 29q45 0 45 -45v-465h84v-66h-84v-131h-73v131h-320q-41 0 -41 41zM137 -8h269v383z" />
<glyph unicode="&#x2085;" horiz-adv-x="604" d="M63 -166l17 68l47 -15q95 -30 166 -30q83 0 126.5 45t43.5 121q0 153 -166 153q-57 0 -125 -18l-72 -21v357h406v-70h-334v-199q71 21 131 21q111 0 172.5 -55.5t61.5 -167.5q0 -108 -65 -172t-179 -64q-92 0 -187 33z" />
<glyph unicode="&#x2086;" horiz-adv-x="604" d="M76 23v256q0 99 59.5 161t163.5 62q69 0 186 -31l43 -10l-14 -70l-53 15q-106 26 -162 26q-72 0 -109.5 -40.5t-37.5 -112.5v-66q98 33 155 33q117 0 176.5 -59.5t59.5 -166.5q0 -102 -60 -166.5t-170 -64.5q-112 0 -174.5 64t-62.5 170zM152 25q0 -78 42.5 -124 t120.5 -46q73 0 113.5 46t40.5 119t-40 114.5t-126 41.5q-54 0 -151 -31v-120z" />
<glyph unicode="&#x2087;" horiz-adv-x="604" d="M74 424v70h418q23 0 36 -12t13 -31q0 -17 -9 -35l-266 -621h-82l273 629h-383z" />
<glyph unicode="&#x2088;" horiz-adv-x="604" d="M59 -31q0 76 56 129l49 49l-41 54q-43 55 -43 125q0 79 58.5 128.5t160.5 49.5q104 0 162.5 -49.5t58.5 -128.5q0 -70 -43 -125l-39 -54l49 -49q56 -59 56 -129q0 -85 -65 -134.5t-177 -49.5q-111 0 -176.5 49.5t-65.5 134.5zM135 -31q0 -53 42.5 -84.5t123.5 -31.5 t122.5 31.5t41.5 84.5q0 51 -39 90l-49 54h-152l-51 -54q-39 -39 -39 -90zM156 326q0 -54 30 -95l39 -53h152l37 51q32 40 32 97q0 46 -36.5 77t-108.5 31t-108.5 -31t-36.5 -77z" />
<glyph unicode="&#x2089;" horiz-adv-x="604" d="M63 270q0 101 60.5 166.5t169.5 65.5q112 0 174.5 -64.5t62.5 -169.5v-256q0 -99 -59 -161t-162 -62q-66 0 -186 29l-43 12l12 70l53 -15q93 -26 162 -26q72 0 110 40.5t38 112.5v64q-92 -31 -156 -31q-118 0 -177 58.5t-59 166.5zM139 270q0 -155 166 -155q63 0 150 28 v121q0 79 -42.5 124.5t-119.5 45.5q-73 0 -113.5 -45.5t-40.5 -118.5z" />
<glyph unicode="&#x208d;" horiz-adv-x="317" d="M43 115q0 362 221 383v-66q-145 -29 -145 -317q0 -291 145 -320v-65q-33 3 -61.5 13.5t-59 38t-52 68.5t-35 109t-13.5 156z" />
<glyph unicode="&#x208e;" horiz-adv-x="317" d="M29 -205q145 29 145 320q0 288 -145 317v66q221 -21 221 -383q0 -88 -14 -156t-35.5 -109t-51.5 -68.5t-59 -38t-61 -13.5v65z" />
<glyph unicode="&#x20ac;" d="M68 571v82h161v217h-161v82h161q0 290 136 439t366 149q102 0 303 -55l80 -21l-18 -88l-82 23q-185 51 -281 51q-195 0 -300 -122.5t-105 -375.5h526v-82h-528v-217h528v-82h-526q0 -253 105 -375t300 -122q96 0 281 51l82 22l18 -88l-80 -20q-201 -55 -303 -55 q-230 0 -366 148.5t-136 438.5h-161z" />
<glyph unicode="&#x2113;" horiz-adv-x="800" d="M31 434l151 115v244q0 127 16 234t49 192.5t88.5 133.5t129.5 48q91 0 138.5 -75t47.5 -181q0 -108 -41.5 -210.5t-105 -184t-160.5 -172.5v-168q0 -185 46.5 -257.5t141.5 -72.5q130 0 230 149l39 -34q-128 -220 -342 -220q-70 0 -118.5 16t-85.5 55.5t-55 110 t-18 175.5v147l-125 -92zM344 662q91 106 146 229t55 248q0 86 -26 143t-73 57q-57 0 -79.5 -98t-22.5 -330v-249z" />
<glyph unicode="&#x2122;" horiz-adv-x="1753" d="M133 1452v72h586v-72h-254v-762h-82v762h-250zM897 690v785q0 27 15.5 41t41.5 14q49 0 64 -45l237 -694l238 692q12 45 63 45q56 0 56 -51v-787h-72v709l-240 -678q-9 -31 -47 -31q-37 0 -49 31l-235 674v-705h-72z" />
<glyph unicode="&#x2126;" horiz-adv-x="1597" d="M123 0v80h459q-10 4 -26.5 12t-64 39t-91 67.5t-96.5 99t-91 133t-64 170t-26 208.5q0 168 50.5 305t140 228.5t214 140.5t271.5 49q148 0 272 -49t214 -140t140 -228t50 -306q0 -86 -15.5 -166t-42.5 -142t-61 -118.5t-72.5 -98t-76.5 -76.5t-72 -58t-61 -39.5 t-42 -23.5l-16 -7h459v-80h-514q-60 0 -60 57q0 38 33 58q204 102 324 278.5t120 415.5q0 299 -157.5 468t-421.5 169q-263 0 -421.5 -169.5t-158.5 -467.5q0 -239 120.5 -415.5t324.5 -278.5q32 -19 32 -58q0 -57 -59 -57h-514z" />
<glyph unicode="&#x212e;" horiz-adv-x="1560" d="M59 627q0 175 96.5 324t262.5 236t360 87q149 0 283.5 -53t230 -142.5t151.5 -212.5t56 -258h-1165q-10 0 -10 -8v-352q0 -23 16 -39q156 -162 440 -162q304 0 463 184h105q-98 -116 -248.5 -182.5t-321.5 -66.5q-194 0 -360 86.5t-262.5 235t-96.5 323.5zM324 686 q0 -12 10 -12h893q8 0 8 12v324q0 23 -18 41q-166 163 -437 163t-438 -170q-18 -15 -18 -43v-315z" />
<glyph unicode="&#x2153;" d="M59 823v68h226v561h-58q-52 0 -106 -20l-21 67q59 23 125 23h76q61 0 61 -60v-571h177v-68h-480zM176 0l785 1524h83l-782 -1524h-86zM649 39l17 70l45 -15q116 -35 190 -35q73 0 113.5 32t40.5 87q0 46 -45 94l-45 47h-142v66h142l39 51q30 40 30 94q0 49 -33.5 79 t-101.5 30q-79 0 -174 -31l-47 -16l-14 67l45 15q104 35 190 35q103 0 156 -46t53 -131q0 -69 -43 -126l-39 -52l45 -47q59 -62 59 -127q0 -86 -63 -137t-166 -51q-101 0 -207 33z" />
<glyph unicode="&#x2154;" d="M59 866q0 22 21 39l262 244q58 55 80 92t22 94q0 63 -39.5 95t-103.5 32q-92 0 -174 -32l-47 -17l-14 68l45 16q104 35 192 35q94 0 154.5 -49.5t60.5 -147.5q0 -65 -28.5 -118.5t-98.5 -116.5l-227 -211h360v-66h-420q-45 0 -45 43zM172 0l784 1524h84l-782 -1524h-86z M649 39l17 70l45 -15q116 -35 190 -35q73 0 113.5 32t40.5 87q0 46 -45 94l-45 47h-142v66h142l39 51q30 40 30 94q0 49 -33.5 79t-101.5 30q-79 0 -174 -31l-47 -16l-14 67l45 15q104 35 190 35q103 0 156 -46t53 -131q0 -69 -43 -126l-39 -52l45 -47q59 -62 59 -127 q0 -86 -63 -137t-166 -51q-101 0 -207 33z" />
<glyph unicode="&#x2155;" d="M59 823v68h226v561h-58q-52 0 -106 -20l-21 67q59 23 125 23h76q61 0 61 -60v-571h177v-68h-480zM176 0l785 1524h83l-782 -1524h-86zM651 39l17 67l47 -14q98 -31 166 -31q83 0 126.5 45t43.5 121q0 154 -166 154q-54 0 -125 -19l-72 -20v356h406v-69h-334v-199 q70 21 131 21q111 0 172 -55.5t61 -168.5q0 -108 -64.5 -171.5t-178.5 -63.5q-92 0 -187 33z" />
<glyph unicode="&#x2156;" d="M59 866q0 22 21 39l262 244q58 55 80 92t22 94q0 63 -39.5 95t-103.5 32q-92 0 -174 -32l-47 -17l-14 68l45 16q104 35 192 35q94 0 154.5 -49.5t60.5 -147.5q0 -65 -28.5 -118.5t-98.5 -116.5l-227 -211h360v-66h-420q-45 0 -45 43zM172 0l784 1524h84l-782 -1524h-86z M651 39l17 67l47 -14q98 -31 166 -31q83 0 126.5 45t43.5 121q0 154 -166 154q-54 0 -125 -19l-72 -20v356h406v-69h-334v-199q70 21 131 21q111 0 172 -55.5t61 -168.5q0 -108 -64.5 -171.5t-178.5 -63.5q-92 0 -187 33z" />
<glyph unicode="&#x2157;" d="M55 862l17 70l45 -14q116 -35 190 -35q73 0 113.5 31.5t40.5 86.5q0 47 -45 95l-45 47h-142v65h142l39 52q30 40 30 94q0 49 -33 78.5t-102 29.5q-83 0 -174 -30l-47 -17l-14 68l45 14q104 35 190 35q103 0 156 -46t53 -130q0 -70 -43 -127l-39 -51l45 -48 q60 -63 60 -126q0 -86 -63.5 -137.5t-166.5 -51.5q-101 0 -207 33zM158 0l784 1524h84l-782 -1524h-86zM651 39l17 67l47 -14q98 -31 166 -31q83 0 126.5 45t43.5 121q0 154 -166 154q-54 0 -125 -19l-72 -20v356h406v-69h-334v-199q70 21 131 21q111 0 172 -55.5t61 -168.5 q0 -108 -64.5 -171.5t-178.5 -63.5q-92 0 -187 33z" />
<glyph unicode="&#x2158;" d="M39 995q0 19 14 37l324 469q17 29 51 29q45 0 45 -45v-465h84v-66h-84v-131h-74v131h-319q-41 0 -41 41zM131 1020h268v383zM164 0l784 1524h84l-782 -1524h-86zM651 39l17 67l47 -14q98 -31 166 -31q83 0 126.5 45t43.5 121q0 154 -166 154q-54 0 -125 -19l-72 -20v356 h406v-69h-334v-199q70 21 131 21q111 0 172 -55.5t61 -168.5q0 -108 -64.5 -171.5t-178.5 -63.5q-92 0 -187 33z" />
<glyph unicode="&#x2159;" d="M59 823v68h226v561h-58q-52 0 -106 -20l-21 67q59 23 125 23h76q61 0 61 -60v-571h177v-68h-480zM186 0l785 1524h84l-783 -1524h-86zM664 227v256q0 99 59.5 161.5t163.5 62.5q69 0 186 -31l43 -10l-14 -70l-53 14q-110 27 -162 27q-72 0 -110 -41t-38 -113v-65 q98 33 156 33q117 0 176 -59.5t59 -166.5q0 -102 -59.5 -166.5t-169.5 -64.5q-112 0 -174.5 63.5t-62.5 169.5zM739 229q0 -78 43 -124t121 -46q73 0 113.5 46.5t40.5 119.5t-40 114.5t-126 41.5q-55 0 -152 -31v-121z" />
<glyph unicode="&#x215a;" d="M57 862l17 68l47 -15q95 -30 166 -30q83 0 126.5 45t43.5 121q0 153 -166 153q-57 0 -125 -18l-72 -21v357h406v-70h-334v-199q70 21 131 21q111 0 172 -55.5t61 -167.5q0 -108 -64.5 -172t-178.5 -64q-92 0 -187 33zM162 0l784 1524h84l-782 -1524h-86zM664 227v256 q0 99 59.5 161.5t163.5 62.5q69 0 186 -31l43 -10l-14 -70l-53 14q-110 27 -162 27q-72 0 -110 -41t-38 -113v-65q98 33 156 33q117 0 176 -59.5t59 -166.5q0 -102 -59.5 -166.5t-169.5 -64.5q-112 0 -174.5 63.5t-62.5 169.5zM739 229q0 -78 43 -124t121 -46 q73 0 113.5 46.5t40.5 119.5t-40 114.5t-126 41.5q-55 0 -152 -31v-121z" />
<glyph unicode="&#x215b;" d="M59 823v68h226v561h-58q-52 0 -106 -20l-21 67q59 23 125 23h76q61 0 61 -60v-571h177v-68h-480zM188 0l785 1524h84l-783 -1524h-86zM647 174q0 77 55 129l50 49l-41 54q-43 55 -43 124q0 79 58.5 129t160.5 50q104 0 162.5 -50t58.5 -129q0 -69 -43 -124l-39 -54 l49 -49q55 -58 55 -129q0 -85 -64.5 -134.5t-176.5 -49.5q-111 0 -176.5 49.5t-65.5 134.5zM723 174q0 -53 42.5 -85t123.5 -32q80 0 122 32t42 85q0 51 -39 90l-49 53h-152l-51 -53q-39 -39 -39 -90zM743 530q0 -52 31 -94l39 -53h152l36 51q33 42 33 96q0 47 -36.5 78 t-108.5 31t-109 -31.5t-37 -77.5z" />
<glyph unicode="&#x215c;" d="M55 862l17 70l45 -14q116 -35 190 -35q73 0 113.5 31.5t40.5 86.5q0 47 -45 95l-45 47h-142v65h142l39 52q30 40 30 94q0 49 -33 78.5t-102 29.5q-83 0 -174 -30l-47 -17l-14 68l45 14q104 35 190 35q103 0 156 -46t53 -130q0 -70 -43 -127l-39 -51l45 -48 q60 -63 60 -126q0 -86 -63.5 -137.5t-166.5 -51.5q-101 0 -207 33zM164 0l784 1524h84l-782 -1524h-86zM647 174q0 77 55 129l50 49l-41 54q-43 55 -43 124q0 79 58.5 129t160.5 50q104 0 162.5 -50t58.5 -129q0 -69 -43 -124l-39 -54l49 -49q55 -58 55 -129 q0 -85 -64.5 -134.5t-176.5 -49.5q-111 0 -176.5 49.5t-65.5 134.5zM723 174q0 -53 42.5 -85t123.5 -32q80 0 122 32t42 85q0 51 -39 90l-49 53h-152l-51 -53q-39 -39 -39 -90zM743 530q0 -52 31 -94l39 -53h152l36 51q33 42 33 96q0 47 -36.5 78t-108.5 31t-109 -31.5 t-37 -77.5z" />
<glyph unicode="&#x215d;" d="M57 862l17 68l47 -15q95 -30 166 -30q83 0 126.5 45t43.5 121q0 153 -166 153q-57 0 -125 -18l-72 -21v357h406v-70h-334v-199q70 21 131 21q111 0 172 -55.5t61 -167.5q0 -108 -64.5 -172t-178.5 -64q-92 0 -187 33zM166 0l784 1524h84l-782 -1524h-86zM647 174 q0 77 55 129l50 49l-41 54q-43 55 -43 124q0 79 58.5 129t160.5 50q104 0 162.5 -50t58.5 -129q0 -69 -43 -124l-39 -54l49 -49q55 -58 55 -129q0 -85 -64.5 -134.5t-176.5 -49.5q-111 0 -176.5 49.5t-65.5 134.5zM723 174q0 -53 42.5 -85t123.5 -32q80 0 122 32t42 85 q0 51 -39 90l-49 53h-152l-51 -53q-39 -39 -39 -90zM743 530q0 -52 31 -94l39 -53h152l36 51q33 42 33 96q0 47 -36.5 78t-108.5 31t-109 -31.5t-37 -77.5z" />
<glyph unicode="&#x215e;" d="M68 1452v70h417q23 0 36.5 -12t13.5 -31q0 -17 -9 -35l-266 -621h-82l273 629h-383zM137 0l785 1524h84l-783 -1524h-86zM647 174q0 77 55 129l50 49l-41 54q-43 55 -43 124q0 79 58.5 129t160.5 50q104 0 162.5 -50t58.5 -129q0 -69 -43 -124l-39 -54l49 -49 q55 -58 55 -129q0 -85 -64.5 -134.5t-176.5 -49.5q-111 0 -176.5 49.5t-65.5 134.5zM723 174q0 -53 42.5 -85t123.5 -32q80 0 122 32t42 85q0 51 -39 90l-49 53h-152l-51 -53q-39 -39 -39 -90zM743 530q0 -52 31 -94l39 -53h152l36 51q33 42 33 96q0 47 -36.5 78t-108.5 31 t-109 -31.5t-37 -77.5z" />
<glyph unicode="&#x215f;" horiz-adv-x="593" d="M59 823v68h226v561h-58q-52 0 -106 -20l-21 67q59 23 125 23h76q61 0 61 -60v-571h177v-68h-480zM162 0l784 1524h84l-782 -1524h-86z" />
<glyph unicode="&#x2202;" d="M111 479q0 223 124.5 350t362.5 127q142 0 375 -84v187q0 188 -94.5 287.5t-272.5 99.5q-118 0 -354 -66l-84 -24l-18 86l81 24q244 68 377 68q213 0 334 -127t121 -348v-565q0 -227 -129 -366.5t-352 -139.5q-224 0 -347.5 135.5t-123.5 355.5zM205 479q0 -185 99 -297 t278 -112q188 0 289.5 115t101.5 313v290q-132 43 -215.5 62.5t-153.5 19.5q-106 0 -184.5 -28.5t-124.5 -82t-68 -123t-22 -157.5z" />
<glyph unicode="&#x2206;" d="M49 0l463 1483q21 53 74 53q58 0 76 -53l477 -1483h-1090zM174 80h840l-428 1343z" />
<glyph unicode="&#x220f;" horiz-adv-x="1339" d="M66 1438v86h1206v-86h-250v-1438h-98v1438h-502v-1438h-98v1438h-258z" />
<glyph unicode="&#x2211;" d="M78 -307q0 35 18 59l586 826l-586 825q-18 24 -18 59q0 27 17 44.5t46 17.5h955v-303h-88v213h-820l611 -854l-611 -859h836v226h88v-314h-971q-29 0 -46 16.5t-17 43.5z" />
<glyph unicode="&#x2212;" d="M127 563v90h936v-90h-936z" />
<glyph unicode="&#x2215;" horiz-adv-x="40" d="M-414 0l785 1524h84l-783 -1524h-86z" />
<glyph unicode="&#x2219;" horiz-adv-x="753" d="M317 752q0 36 18.5 56.5t51.5 20.5t51.5 -20.5t18.5 -56.5q0 -37 -19 -58.5t-51 -21.5t-51 21.5t-19 58.5z" />
<glyph unicode="&#x221a;" d="M27 1030v84h249l287 -1001l367 1411h260v-84h-186l-377 -1409q-15 -51 -64 -51q-52 0 -67 51l-297 999h-172z" />
<glyph unicode="&#x221e;" horiz-adv-x="1638" d="M102 608q0 193 96 310.5t259 117.5q107 0 202 -49l164 -84l164 84q95 49 203 49q163 0 258.5 -117t95.5 -311q0 -191 -96.5 -309.5t-257.5 -118.5q-112 0 -203 49l-162 84l-166 -84q-91 -49 -202 -49q-161 0 -258 118.5t-97 309.5zM186 608q0 -164 75.5 -255t195.5 -91 q88 0 180 43l145 70v467l-145 69q-92 43 -180 43q-121 0 -196 -90.5t-75 -255.5zM864 375l146 -70q92 -43 180 -43q119 0 194.5 91t75.5 255q0 165 -74.5 255.5t-195.5 90.5q-88 0 -180 -43l-146 -69v-467z" />
<glyph unicode="&#x222b;" d="M274 -291q97 2 148 65t51 183v1264q0 169 79.5 256.5t225.5 87.5q64 0 203 -29l-14 -84q-129 27 -189 27q-111 0 -163 -64t-52 -201v-1259q0 -154 -77 -240t-212 -86v80z" />
<glyph unicode="&#x2248;" d="M109 723q48 112 120.5 163.5t155.5 51.5q89 0 172 -64l131 -94q62 -47 123 -47q131 0 201 170l71 -47q-88 -213 -274 -213q-89 0 -172 59l-131 97q-68 49 -123 49q-127 0 -203 -174zM127 373q93 215 274 215q87 0 174 -62l130 -94q68 -49 122 -49q131 0 201 172l72 -49 q-88 -211 -273 -211q-89 0 -172 59l-133 95q-61 49 -121 49q-61 0 -111 -38.5t-93 -133.5z" />
<glyph unicode="&#x2260;" d="M127 389v88h385l123 268h-508v89h545l157 340h72l-158 -340h322v-89h-358l-121 -268h479v-88h-518l-144 -305h-71l141 305h-346z" />
<glyph unicode="&#x2264;" d="M109 659q0 48 47 66l925 348v-102l-870 -314l870 -307v-98l-927 344q-45 16 -45 63zM131 0v84h950v-84h-950z" />
<glyph unicode="&#x2265;" d="M106 252v98l873 307l-873 314v102l928 -348q45 -19 45 -66t-45 -63zM109 0v84h950v-84h-950z" />
<glyph unicode="&#x25ca;" d="M66 760l458 743q27 37 70 37q44 0 68 -37l458 -743l-458 -744q-26 -39 -70 -39q-42 0 -68 39zM168 760l428 -697l426 697l-426 696z" />
<glyph unicode="&#xe000;" horiz-adv-x="1116" d="M0 0v1116h1116v-1116h-1116z" />
<glyph unicode="&#xf6c3;" horiz-adv-x="1069" d="M467 -354l70 250h100l-78 -273q-11 -43 -53 -43q-25 0 -36.5 18.5t-2.5 47.5z" />
<glyph unicode="&#xfb04;" horiz-adv-x="1867" d="M61 1010v82h191v125q0 172 89 260t249 88q77 0 168 -19.5t130 -32.5t120 -43q86 95 247 95q120 0 357 -37l92 28v-1556h-92v1444q-214 37 -357 37q-120 0 -178.5 -65.5t-58.5 -203.5v-120h362v-82h-362v-1010h-92v1010h-584v-1010h-90v1010h-191zM342 1092h584v125 q0 113 41 184q-224 84 -377 84q-248 0 -248 -273v-120z" />
<glyph horiz-adv-x="604" d="M76 223v250q0 110 59 173t168 63q108 0 163.5 -62.5t55.5 -173.5v-246q0 -115 -55 -176t-164 -61t-168 61.5t-59 171.5zM152 227q0 -80 37 -125t112 -45q148 0 148 170v244q0 170 -148 170q-75 0 -112 -45t-37 -125v-244z" />
<glyph horiz-adv-x="604" d="M66 0v68h225v561h-58q-50 0 -106 -21l-21 68q56 22 125 22h76q62 0 62 -59v-571h176v-68h-479z" />
<glyph horiz-adv-x="604" d="M66 43q0 23 20 39l262 244q59 55 81 92t22 94q0 63 -40 95t-104 32q-89 0 -174 -33l-47 -16l-14 67l45 17q104 35 192 35q94 0 154.5 -49.5t60.5 -147.5q0 -65 -28.5 -119t-98.5 -117l-227 -210h360v-66h-419q-45 0 -45 43z" />
<glyph horiz-adv-x="604" d="M61 39l17 70l45 -15q116 -35 190 -35q73 0 113.5 32t40.5 87q0 46 -45 94l-45 47h-141v66h141l39 51q30 40 30 94q0 49 -33.5 79t-101.5 30q-79 0 -174 -31l-47 -16l-14 67l45 15q104 35 190 35q103 0 156 -46t53 -131q0 -69 -43 -126l-39 -52l45 -47q60 -63 60 -127 q0 -86 -63.5 -137t-166.5 -51q-101 0 -207 33z" />
<glyph horiz-adv-x="604" d="M45 172q0 20 14 37l324 469q17 29 51 29q45 0 45 -45v-465h84v-66h-84v-131h-73v131h-320q-41 0 -41 41zM137 197h269v383z" />
<glyph horiz-adv-x="604" d="M63 39l17 67l47 -14q98 -31 166 -31q83 0 126.5 45t43.5 121q0 154 -166 154q-54 0 -125 -19l-72 -20v356h406v-69h-334v-199q71 21 131 21q111 0 172.5 -56t61.5 -168q0 -108 -64.5 -171.5t-179.5 -63.5q-92 0 -187 33z" />
<glyph horiz-adv-x="604" d="M76 227v256q0 99 59.5 161.5t163.5 62.5q69 0 186 -31l43 -10l-14 -70l-53 14q-110 27 -162 27q-72 0 -109.5 -41t-37.5 -113v-65q98 33 155 33q117 0 176.5 -59.5t59.5 -166.5q0 -102 -60 -166.5t-170 -64.5q-112 0 -174.5 63.5t-62.5 169.5zM152 229q0 -78 42.5 -124 t120.5 -46q73 0 113.5 46.5t40.5 119.5t-40 114.5t-126 41.5q-54 0 -151 -31v-121z" />
<glyph horiz-adv-x="604" d="M74 629v69h418q23 0 36 -12t13 -31q0 -16 -9 -34l-266 -621h-82l273 629h-383z" />
<glyph horiz-adv-x="604" d="M59 174q0 76 56 129l49 49l-41 54q-43 55 -43 124q0 79 58.5 129t160.5 50q104 0 162.5 -50t58.5 -129q0 -69 -43 -124l-39 -54l49 -49q56 -59 56 -129q0 -85 -65 -134.5t-177 -49.5q-111 0 -176.5 49.5t-65.5 134.5zM135 174q0 -53 42.5 -85t123.5 -32q80 0 122 32 t42 85q0 51 -39 90l-49 53h-152l-51 -53q-39 -39 -39 -90zM156 530q0 -54 30 -94l39 -53h152l37 51q32 40 32 96q0 47 -36.5 78t-108.5 31t-108.5 -31t-36.5 -78z" />
<glyph horiz-adv-x="604" d="M63 475q0 101 60.5 166.5t169.5 65.5q112 0 174.5 -64.5t62.5 -169.5v-256q0 -99 -59 -161t-162 -62q-66 0 -186 29l-43 12l12 69l53 -14q96 -27 162 -27q72 0 110 41t38 113v64q-92 -31 -156 -31q-118 0 -177 58.5t-59 166.5zM139 475q0 -156 166 -156q60 0 150 29v121 q0 79 -42.5 124.5t-119.5 45.5q-73 0 -113.5 -45.5t-40.5 -118.5z" />
<glyph horiz-adv-x="604" d="M72 262q0 115 54 185t140 81v113h74v-111q37 -2 119 -24l43 -12l-15 -68l-47 14q-84 23 -133 23q-75 0 -118.5 -52t-43.5 -149q0 -95 44 -147t120 -52q53 0 127 21l51 14l15 -61l-43 -14q-70 -25 -119 -25v-115h-74v115q-87 11 -140.5 79t-53.5 185z" />
<glyph horiz-adv-x="604" d="M57 53l17 68l49 -21q98 -37 182 -37q73 0 116.5 32.5t43.5 92.5q0 50 -25 76.5t-82 36.5l-129 29q-170 41 -170 178q0 87 57.5 136.5t147.5 55.5v113h74v-113q69 -5 156 -36l47 -17l-17 -69l-51 20q-101 37 -176 37t-118.5 -32t-43.5 -91q0 -49 25.5 -75t81.5 -38 l131 -28q168 -37 168 -178q0 -87 -58.5 -138t-146.5 -57v-113h-74v113q-63 5 -158 37z" />
<glyph horiz-adv-x="604" d="M39 240v63h72v96h-72v62h72q3 131 69 190.5t178 59.5q54 0 152 -27l43 -12l-14 -70l-45 14q-76 23 -136 23q-81 0 -125 -39t-45 -139h242v-62h-242v-96h242v-63h-242q5 -179 170 -179q53 0 134 23l47 14l14 -67l-45 -15q-80 -26 -150 -26q-112 0 -178 59.5t-69 190.5h-72 z" />
<glyph horiz-adv-x="442" d="M74 274v72h288v-72h-288z" />
<glyph horiz-adv-x="604" d="M66 276v68h192v199h74v-199h192v-68h-192v-200h-74v200h-192z" />
<glyph horiz-adv-x="604" d="M68 276v70h454v-70h-454z" />
<glyph horiz-adv-x="604" d="M63 182v70h461v-70h-461zM63 365v71h461v-71h-461z" />
<glyph horiz-adv-x="317" d="M43 319q0 362 221 383v-65q-145 -29 -145 -318q0 -75 10 -132.5t24 -90t35 -54.5t38 -30t38 -12v-66q-33 3 -61.5 13.5t-59 38t-52 68.5t-35 109t-13.5 156z" />
<glyph horiz-adv-x="317" d="M29 0q21 4 38 12t38 30t35 54.5t24 90t10 132.5q0 289 -145 318v65q221 -21 221 -383q0 -88 -14 -156t-35.5 -109t-51.5 -68.5t-59 -38t-61 -13.5v66z" />
<glyph horiz-adv-x="253" d="M55 -90l54 192h79l-57 -208q-10 -33 -39 -33q-47 0 -37 49z" />
<glyph horiz-adv-x="253" d="M76 45q0 53 49 53q51 0 51 -53t-51 -53q-49 0 -49 53z" />
<glyph d="M68 365v84h165q-6 49 -6 108q0 55 6 105h-165v83h178q42 184 164.5 281.5t300.5 97.5q102 0 303 -55l80 -20l-19 -86l-82 22q-185 51 -278 51q-146 0 -241 -73.5t-132 -217.5h512v-83h-526q-6 -50 -6 -105q0 -59 6 -108h526v-84h-512q36 -143 132.5 -216t240.5 -73 q86 0 278 53l82 23l19 -86l-80 -23q-7 -2 -20 -5q-182 -47 -265 -50h-18q-179 0 -301 95.5t-164 281.5h-178z" />
<glyph d="M139 471v573q0 232 119 364t342 132q220 0 335.5 -131.5t115.5 -366.5v-567q0 -235 -115.5 -366.5t-335.5 -131.5q-222 0 -341.5 131.5t-119.5 362.5zM229 475q0 -176 70 -280l545 1179q-88 82 -248 82q-185 0 -276 -108.5t-91 -307.5v-565zM358 133q87 -72 238 -72 q185 0 275 107.5t90 306.5v565q0 166 -62 269z" />
<glyph d="M139 471v573q0 232 119 364t342 132q220 0 335.5 -131.5t115.5 -366.5v-567q0 -235 -115.5 -366.5t-335.5 -131.5q-222 0 -341.5 131.5t-119.5 362.5zM229 475q0 -197 91.5 -305.5t275.5 -108.5q185 0 275 107.5t90 306.5v565q0 200 -90 308t-275 108t-276 -108.5 t-91 -307.5v-565z" />
<glyph d="M150 0v86h471v1348h-138q-138 0 -217 -35l-24 88q40 17 108 27t127 10h150q92 0 92 -88v-1350h387v-86h-956z" />
<glyph d="M127 61q0 37 27 64l563 551q133 129 189.5 228.5t56.5 221.5q0 86 -27.5 149.5t-77 99.5t-110.5 53.5t-134 17.5q-134 0 -372 -72l-86 -26l-19 86l84 26q232 74 395 74q89 0 165 -22.5t139 -69.5t99 -128.5t36 -189.5q0 -132 -62 -249.5t-209 -258.5l-553 -534h828v-82 h-873q-29 0 -44 16.5t-15 44.5z" />
<glyph d="M115 80l20 86l101 -29q237 -69 382 -69q175 0 276 78.5t101 228.5q0 69 -22.5 121.5t-73.5 103.5l-123 125h-282v82h284l94 129q82 114 82 227q0 134 -87.5 208.5t-245.5 74.5q-131 0 -371 -70l-82 -24l-18 86l79 24q237 72 394 72q197 0 310.5 -95.5t113.5 -275.5 q0 -134 -91 -256l-102 -135l123 -129q57 -60 83.5 -122t26.5 -142q0 -188 -129.5 -292.5t-336.5 -104.5q-167 0 -406 69z" />
<glyph d="M84 369q0 28 22 57l701 1063q31 45 78 45q65 0 65 -70v-1073h180v-84h-180v-307h-90v307h-717q-29 0 -44 17t-15 45zM190 391h670v1014z" />
<glyph d="M123 76l18 86l95 -27q232 -65 356 -65q197 0 299 113t102 298q0 393 -395 393q-118 0 -299 -53l-102 -30v733h819v-90h-733v-535q204 62 325 62q227 0 351 -118.5t124 -361.5q0 -226 -132 -361.5t-359 -135.5q-155 0 -377 65z" />
<glyph d="M139 494v565q0 221 121 348t334 127q133 0 377 -68l82 -24l-19 -86l-84 24q-236 66 -354 66q-178 0 -272.5 -99.5t-94.5 -287.5v-187q233 84 375 84q242 0 365 -125.5t123 -351.5q0 -218 -123 -354.5t-346 -136.5q-224 0 -354 139.5t-130 366.5zM229 498 q0 -197 104 -312.5t292 -115.5q178 0 275 112t97 297q0 181 -96 285t-303 104q-121 0 -369 -80v-290z" />
<glyph d="M147 1438v86h889q31 0 48.5 -16t17.5 -44q0 -14 -15 -59l-581 -1405h-100l598 1438h-857z" />
<glyph d="M104 373q0 81 26.5 144.5t82.5 123.5l121 129l-101 135q-88 123 -88 256q0 178 122 276.5t325 98.5q205 0 328.5 -98.5t123.5 -276.5q0 -135 -90 -256l-100 -135l121 -129q57 -60 83.5 -123t26.5 -145q0 -189 -132.5 -291t-356.5 -102q-223 0 -357.5 102t-134.5 291z M197 373q0 -151 105.5 -229t291.5 -78q188 0 293.5 78t105.5 229q0 68 -22.5 119.5t-73.5 105.5l-121 125h-364l-119 -125q-51 -53 -73.5 -105t-22.5 -120zM238 1161q0 -115 81 -227l93 -129h366l92 129q82 119 82 227q0 133 -96 210t-262 77q-167 0 -261.5 -76.5 t-94.5 -210.5z" />
<glyph d="M111 1040q0 219 123 356.5t346 137.5t353 -139.5t130 -368.5v-563q0 -222 -121 -348.5t-334 -126.5q-147 0 -379 67l-82 23l19 86l84 -23q239 -67 356 -67q177 0 271 100.5t94 288.5v186q-239 -86 -375 -86q-241 0 -363 125.5t-122 351.5zM203 1040q0 -181 97.5 -285 t303.5 -104q119 0 367 80v291q0 198 -103.5 313t-292.5 115q-178 0 -275 -112.5t-97 -297.5z" />
<glyph d="M145 557q0 257 117.5 402.5t317.5 160.5v258h90v-258q82 -4 262 -51l80 -22l-17 -86l-82 22q-196 53 -280 53q-187 0 -289 -121.5t-102 -357.5q0 -237 102.5 -358t290.5 -121q89 0 278 51l82 23l17 -86l-80 -21q-161 -46 -262 -53v-264h-90v264q-201 14 -318 157.5 t-117 407.5z" />
<glyph d="M106 100l23 86l90 -30q264 -88 412 -88q103 0 184.5 32t133.5 105t52 178q0 120 -64 191.5t-200 103.5l-288 70q-334 77 -334 378q0 99 37.5 177.5t101 126t141.5 72.5t164 26v248h88v-250q58 -4 121.5 -17.5t102 -25.5t122.5 -39l88 -31l-20 -88l-90 31 q-86 29 -136 44.5t-122.5 28.5t-139.5 13q-73 0 -137.5 -18.5t-117 -55t-83 -98t-30.5 -140.5q0 -119 63 -189.5t199 -102.5l289 -70q336 -80 336 -381q0 -99 -36 -176.5t-98.5 -125.5t-141 -73.5t-169.5 -27.5v-248h-88v250q-142 9 -362 84z" />
<glyph d="M68 571v82h161v217h-161v82h161q0 290 136 439t366 149q102 0 303 -55l80 -21l-18 -88l-82 23q-185 51 -281 51q-195 0 -300 -122.5t-105 -375.5h526v-82h-528v-217h528v-82h-526q0 -253 105 -375t300 -122q96 0 281 51l82 22l18 -88l-80 -20q-201 -55 -303 -55 q-230 0 -366 148.5t-136 438.5h-161z" />
<glyph d="M139 471v166q0 232 119 364t342 132q220 0 335.5 -131.5t115.5 -366.5v-160q0 -235 -115.5 -366.5t-335.5 -131.5q-222 0 -341.5 131.5t-119.5 362.5zM229 475q0 -197 91.5 -305.5t275.5 -108.5q185 0 275 107.5t90 306.5v158q0 200 -90 308t-275 108t-276 -108.5 t-91 -307.5v-158z" />
<glyph d="M150 0v86h471v938h-138q-138 0 -217 -35l-24 88q40 17 108 27t127 10h150q92 0 92 -88v-940h387v-86h-956z" />
<glyph d="M127 61q0 49 41 72l537 305q129 73 187 155t58 181q0 135 -90.5 200.5t-249.5 65.5q-135 0 -370 -71l-86 -27l-19 86l84 27q229 73 393 73q201 0 315.5 -89.5t114.5 -262.5q0 -128 -71.5 -228.5t-218.5 -182.5l-502 -283h809v-82h-873q-29 0 -44 16.5t-15 44.5z" />
<glyph d="M115 -281l20 86l101 -30q233 -68 382 -68q175 0 276 74.5t101 222.5q0 69 -23 119t-75 102l-119 119h-284v84h284l94 123q82 114 82 221q0 133 -87.5 204t-245.5 71q-124 0 -371 -72l-82 -23l-18 86l79 23q244 74 394 74q197 0 310.5 -92t113.5 -271q0 -130 -93 -252 l-98 -129l119 -123q58 -61 85 -120.5t27 -139.5q0 -187 -128.5 -287t-337.5 -100q-176 0 -406 70z" />
<glyph d="M84 61q0 29 22 58l701 962q29 45 78 45q65 0 65 -69v-975h180v-82h-180v-365h-90v365h-717q-59 0 -59 61zM190 82h670v917z" />
<glyph d="M123 -289l18 86l95 -26q236 -66 356 -66q198 0 299.5 108t101.5 293q0 197 -100.5 288t-294.5 91q-118 0 -299 -53l-102 -29v711h819v-90h-733v-514q200 61 325 61q475 0 475 -465q0 -226 -131.5 -356.5t-359.5 -130.5q-152 0 -377 66z" />
<glyph d="M139 494v565q0 221 121 348t334 127q140 0 377 -66l82 -24l-19 -86l-84 24q-236 66 -354 66q-178 0 -272.5 -100.5t-94.5 -288.5v-187q233 84 375 84q242 0 365 -125.5t123 -351.5q0 -218 -123 -354.5t-346 -136.5q-224 0 -354 139.5t-130 366.5zM229 498 q0 -197 104 -312.5t292 -115.5q178 0 275 112t97 297q0 181 -96 285t-303 104q-121 0 -369 -80v-290z" />
<glyph d="M147 1028v86h889q31 0 48.5 -15.5t17.5 -43.5q0 -15 -15 -60l-581 -1360h-100l598 1393h-857z" />
<glyph d="M104 373q0 81 26.5 144.5t82.5 123.5l121 129l-101 135q-88 131 -88 256q0 178 122 276.5t325 98.5q205 0 328.5 -98.5t123.5 -276.5q0 -127 -90 -256l-100 -135l121 -129q57 -60 83.5 -123t26.5 -145q0 -189 -132.5 -291t-356.5 -102q-223 0 -357.5 102t-134.5 291z M197 373q0 -151 105.5 -229t291.5 -78q188 0 293.5 78t105.5 229q0 68 -22.5 119.5t-73.5 105.5l-121 125h-364l-119 -125q-51 -54 -73.5 -105.5t-22.5 -119.5zM238 1161q0 -110 81 -227l93 -129h366l92 129q82 119 82 227q0 133 -96 210t-262 77q-167 0 -261.5 -76.5 t-94.5 -210.5z" />
<glyph d="M111 645q0 218 122.5 351.5t346.5 133.5t353.5 -135.5t129.5 -363.5v-543q0 -220 -120.5 -343.5t-334.5 -123.5q-138 0 -379 66l-82 24l21 84l84 -22q236 -66 354 -66q178 0 271.5 97t93.5 284v176q-239 -86 -375 -86q-242 0 -363.5 121t-121.5 346zM203 645 q0 -180 97 -279.5t304 -99.5q119 0 367 80v281q0 197 -102 308.5t-291 111.5q-179 0 -277 -109t-98 -293z" />
<glyph d="M145 557q0 257 117.5 402.5t317.5 160.5v258h90v-258q82 -4 262 -51l80 -22l-17 -86l-82 22q-196 53 -280 53q-187 0 -289 -121.5t-102 -357.5q0 -237 102.5 -358t290.5 -121q89 0 278 51l82 23l17 -86l-80 -21q-161 -46 -262 -53v-262h-90v262q-201 14 -318 157.5 t-117 407.5z" />
<glyph d="M186 72l19 84l80 -21q226 -63 352 -63q131 0 212 54.5t81 162.5q0 85 -53.5 134.5t-176.5 70.5l-215 38q-290 52 -290 285q0 76 29.5 135t81 96t118 56.5t145.5 21.5v252h88v-256q105 -8 293 -57l76 -23l-18 -86l-78 23q-214 59 -346 59t-214.5 -54.5t-82.5 -162.5 q0 -84 52 -133t175 -72l215 -38q293 -52 293 -283q0 -75 -28.5 -134t-79 -95.5t-115.5 -56.5t-142 -23v-250h-88v252q-124 9 -305 61z" />
<glyph d="M68 365v84h165q-6 49 -6 108q0 55 6 105h-165v83h178q42 184 164.5 281.5t300.5 97.5q102 0 303 -55l80 -20l-19 -86l-82 22q-185 51 -278 51q-146 0 -241 -73.5t-132 -217.5h512v-83h-526q-6 -50 -6 -105q0 -59 6 -108h526v-84h-512q36 -143 132.5 -216t240.5 -73 q86 0 278 53l82 23l19 -86l-80 -23q-7 -2 -20 -5q-182 -47 -265 -50h-18q-179 0 -301 95.5t-164 281.5h-178z" />
<glyph d="M139 471v166q0 232 119 364t342 132q220 0 335.5 -131.5t115.5 -366.5v-160q0 -235 -115.5 -366.5t-335.5 -131.5q-222 0 -341.5 131.5t-119.5 362.5zM229 475q0 -201 93 -307l503 815q-87 66 -229 66q-185 0 -276 -108.5t-91 -307.5v-158zM377 119q86 -58 219 -58 q185 0 275 107.5t90 306.5v158q0 193 -82 297z" />
<glyph d="M139 471v166q0 232 119 364t342 132q220 0 335.5 -131.5t115.5 -366.5v-160q0 -235 -115.5 -366.5t-335.5 -131.5q-222 0 -341.5 131.5t-119.5 362.5zM229 475q0 -197 91.5 -305.5t275.5 -108.5q185 0 275 107.5t90 306.5v158q0 200 -90 308t-275 108t-276 -108.5 t-91 -307.5v-158z" />
<glyph d="M150 0v86h471v938h-138q-138 0 -217 -35l-24 88q40 17 108 27t127 10h150q92 0 92 -88v-940h387v-86h-956z" />
<glyph d="M127 61q0 49 41 72l537 305q129 73 187 155t58 181q0 135 -90.5 200.5t-249.5 65.5q-135 0 -370 -71l-86 -27l-19 86l84 27q229 73 393 73q201 0 315.5 -89.5t114.5 -262.5q0 -128 -71.5 -228.5t-218.5 -182.5l-502 -283h809v-82h-873q-29 0 -44 16.5t-15 44.5z" />
<glyph d="M115 -281l20 86l101 -30q233 -68 382 -68q175 0 276 74.5t101 222.5q0 69 -23 119t-75 102l-119 119h-284v84h284l94 123q82 114 82 221q0 133 -87.5 204t-245.5 71q-124 0 -371 -72l-82 -23l-18 86l79 23q244 74 394 74q197 0 310.5 -92t113.5 -271q0 -130 -93 -252 l-98 -129l119 -123q58 -61 85 -120.5t27 -139.5q0 -187 -128.5 -287t-337.5 -100q-176 0 -406 70z" />
<glyph d="M84 61q0 29 22 58l701 962q29 45 78 45q65 0 65 -69v-975h180v-82h-180v-365h-90v365h-717q-59 0 -59 61zM190 82h670v917z" />
<glyph d="M123 -289l18 86l95 -26q236 -66 356 -66q198 0 299.5 108t101.5 293q0 197 -100.5 288t-294.5 91q-118 0 -299 -53l-102 -29v711h819v-90h-733v-514q200 61 325 61q475 0 475 -465q0 -226 -131.5 -356.5t-359.5 -130.5q-152 0 -377 66z" />
<glyph d="M139 494v565q0 221 121 348t334 127q140 0 377 -66l82 -24l-19 -86l-84 24q-236 66 -354 66q-178 0 -272.5 -100.5t-94.5 -288.5v-187q233 84 375 84q242 0 365 -125.5t123 -351.5q0 -218 -123 -354.5t-346 -136.5q-224 0 -354 139.5t-130 366.5zM229 498 q0 -197 104 -312.5t292 -115.5q178 0 275 112t97 297q0 181 -96 285t-303 104q-121 0 -369 -80v-290z" />
<glyph d="M147 1028v86h889q31 0 48.5 -15.5t17.5 -43.5q0 -15 -15 -60l-581 -1360h-100l598 1393h-857z" />
<glyph d="M104 373q0 81 26.5 144.5t82.5 123.5l121 129l-101 135q-88 131 -88 256q0 178 122 276.5t325 98.5q205 0 328.5 -98.5t123.5 -276.5q0 -127 -90 -256l-100 -135l121 -129q57 -60 83.5 -123t26.5 -145q0 -189 -132.5 -291t-356.5 -102q-223 0 -357.5 102t-134.5 291z M197 373q0 -151 105.5 -229t291.5 -78q188 0 293.5 78t105.5 229q0 68 -22.5 119.5t-73.5 105.5l-121 125h-364l-119 -125q-51 -54 -73.5 -105.5t-22.5 -119.5zM238 1161q0 -110 81 -227l93 -129h366l92 129q82 119 82 227q0 133 -96 210t-262 77q-167 0 -261.5 -76.5 t-94.5 -210.5z" />
<glyph d="M111 645q0 218 122.5 351.5t346.5 133.5t353.5 -135.5t129.5 -363.5v-543q0 -220 -120.5 -343.5t-334.5 -123.5q-138 0 -379 66l-82 24l21 84l84 -22q236 -66 354 -66q178 0 271.5 97t93.5 284v176q-239 -86 -375 -86q-242 0 -363.5 121t-121.5 346zM203 645 q0 -180 97 -279.5t304 -99.5q119 0 367 80v281q0 197 -102 308.5t-291 111.5q-179 0 -277 -109t-98 -293z" />
<glyph d="M145 557q0 257 117.5 402.5t317.5 160.5v258h90v-258q82 -4 262 -51l80 -22l-17 -86l-82 22q-196 53 -280 53q-187 0 -289 -121.5t-102 -357.5q0 -237 102.5 -358t290.5 -121q89 0 278 51l82 23l17 -86l-80 -21q-161 -46 -262 -53v-262h-90v262q-201 14 -318 157.5 t-117 407.5z" />
<glyph d="M186 72l19 84l80 -21q226 -63 352 -63q131 0 212 54.5t81 162.5q0 85 -53.5 134.5t-176.5 70.5l-215 38q-290 52 -290 285q0 76 29.5 135t81 96t118 56.5t145.5 21.5v252h88v-256q105 -8 293 -57l76 -23l-18 -86l-78 23q-214 59 -346 59t-214.5 -54.5t-82.5 -162.5 q0 -84 52 -133t175 -72l215 -38q293 -52 293 -283q0 -75 -28.5 -134t-79 -95.5t-115.5 -56.5t-142 -23v-250h-88v252q-124 9 -305 61z" />
<glyph horiz-adv-x="604" d="M72 57q0 115 54 185.5t140 81.5v112h74v-110q33 -2 119 -25l43 -12l-15 -68l-47 15q-80 22 -133 22q-75 0 -118.5 -52t-43.5 -149q0 -95 44 -146.5t120 -51.5q57 0 127 20l51 15l15 -62l-43 -14q-70 -25 -119 -25v-115h-74v115q-87 11 -140.5 79t-53.5 185z" />
<glyph horiz-adv-x="604" d="M57 -152l17 68l49 -20q98 -37 182 -37q73 0 116.5 32.5t43.5 92.5q0 49 -25 75t-82 37l-129 29q-170 41 -170 178q0 87 57.5 137t147.5 56v112h74v-112q66 -5 156 -37l47 -17l-17 -69l-51 20q-101 37 -176 37t-118.5 -32t-43.5 -91q0 -49 25 -74.5t82 -37.5l131 -29 q168 -37 168 -178q0 -87 -58.5 -138t-146.5 -57v-112h-74v112q-63 5 -158 37z" />
<glyph horiz-adv-x="604" d="M39 35v63h72v97h-72v61h72q3 131 69 190.5t178 59.5q54 0 152 -27l43 -12l-14 -70l-45 15q-73 22 -136 22q-81 0 -125 -39t-45 -139h242v-61h-242v-97h242v-63h-242q5 -178 170 -178q57 0 134 22l47 15l14 -68l-45 -14q-83 -27 -150 -27q-112 0 -178 59.5t-69 190.5h-72z " />
<glyph horiz-adv-x="442" d="M74 70v71h288v-71h-288z" />
<glyph horiz-adv-x="604" d="M66 72v67h192v199h74v-199h192v-67h-192v-201h-74v201h-192z" />
<glyph horiz-adv-x="604" d="M68 72v69h454v-69h-454z" />
<glyph horiz-adv-x="604" d="M63 -23v70h461v-70h-461zM63 160v71h461v-71h-461z" />
<glyph horiz-adv-x="253" d="M55 -295l54 193h79l-57 -209q-10 -33 -39 -33q-47 0 -37 49z" />
<glyph horiz-adv-x="253" d="M76 -160q0 54 49 54q51 0 51 -54q0 -53 -51 -53q-49 0 -49 53z" />
<glyph horiz-adv-x="604" d="M76 18v250q0 110 59 173t168 63q108 0 163.5 -62.5t55.5 -173.5v-245q0 -115 -55 -176.5t-164 -61.5t-168 61.5t-59 171.5zM152 23q0 -74 28 -115l201 510q-30 18 -80 18q-75 0 -112 -45t-37 -125v-243zM225 -131q32 -16 76 -16q148 0 148 170v243q0 68 -27 111z" />
<glyph horiz-adv-x="604" d="M76 223v250q0 110 59 173t168 63q108 0 163.5 -62.5t55.5 -173.5v-246q0 -115 -55 -176t-164 -61t-168 61.5t-59 171.5zM152 227q0 -75 28 -116l201 512q-30 18 -80 18q-75 0 -112 -45t-37 -125v-244zM225 74q34 -17 76 -17q148 0 148 170v244q0 67 -27 111z" />
<glyph horiz-adv-x="604" d="M76 1047v249q0 110 59 173t168 63q108 0 163.5 -62.5t55.5 -173.5v-245q0 -115 -55 -176.5t-164 -61.5t-168 62t-59 172zM152 1051q0 -80 37 -125t112 -45q148 0 148 170v243q0 170 -148 170q-75 0 -112 -45t-37 -125v-243z" />
<glyph horiz-adv-x="604" d="M66 823v68h225v561h-58q-52 0 -106 -20l-21 67q59 23 125 23h76q62 0 62 -60v-571h176v-68h-479z" />
<glyph horiz-adv-x="604" d="M66 866q0 23 20 39l262 244q59 55 81 92t22 94q0 63 -40 95t-104 32q-92 0 -174 -32l-47 -17l-14 68l45 16q104 35 192 35q94 0 154.5 -49.5t60.5 -147.5q0 -65 -28.5 -118.5t-98.5 -116.5l-227 -211h360v-66h-419q-45 0 -45 43z" />
<glyph horiz-adv-x="604" d="M61 862l17 70l45 -14q116 -35 190 -35q73 0 113.5 31.5t40.5 86.5q0 47 -45 95l-45 47h-141v65h141l39 52q30 40 30 94q0 49 -33 78.5t-102 29.5q-82 0 -174 -30l-47 -17l-14 68l45 14q104 35 190 35q103 0 156 -46t53 -130q0 -70 -43 -127l-39 -51l45 -48 q60 -63 60 -126q0 -86 -63.5 -137.5t-166.5 -51.5q-101 0 -207 33z" />
<glyph horiz-adv-x="604" d="M45 995q0 19 14 37l324 469q17 29 51 29q45 0 45 -45v-465h84v-66h-84v-131h-73v131h-320q-41 0 -41 41zM137 1020h269v383z" />
<glyph horiz-adv-x="604" d="M63 862l17 68l47 -15q95 -30 166 -30q83 0 126.5 45t43.5 121q0 153 -166 153q-57 0 -125 -18l-72 -21v357h406v-70h-334v-199q71 21 131 21q111 0 172.5 -55.5t61.5 -167.5q0 -108 -65 -172t-179 -64q-92 0 -187 33z" />
<glyph horiz-adv-x="604" d="M76 1051v256q0 99 59.5 161t163.5 62q69 0 186 -31l43 -10l-14 -70l-53 15q-106 26 -162 26q-72 0 -109.5 -40.5t-37.5 -112.5v-66q98 33 155 33q117 0 176.5 -59t59.5 -166q0 -102 -60 -167t-170 -65q-112 0 -174.5 64t-62.5 170zM152 1053q0 -78 42.5 -124t120.5 -46 q73 0 113.5 46.5t40.5 119.5q0 155 -166 155q-57 0 -151 -30v-121z" />
<glyph horiz-adv-x="604" d="M74 1452v70h418q23 0 36 -12t13 -31q0 -17 -9 -35l-266 -621h-82l273 629h-383z" />
<glyph horiz-adv-x="604" d="M59 997q0 76 56 129l49 50l-41 53q-43 55 -43 125q0 79 58.5 128.5t160.5 49.5q104 0 162.5 -49.5t58.5 -128.5q0 -70 -43 -125l-39 -53l49 -50q56 -59 56 -129q0 -85 -65 -134.5t-177 -49.5q-111 0 -176.5 49.5t-65.5 134.5zM135 997q0 -53 42.5 -84.5t123.5 -31.5 t122.5 31.5t41.5 84.5q0 51 -39 90l-49 54h-152l-51 -54q-39 -39 -39 -90zM156 1354q0 -54 30 -94l39 -54h152l37 51q32 40 32 97q0 46 -36.5 77t-108.5 31t-108.5 -31t-36.5 -77z" />
<glyph horiz-adv-x="604" d="M63 1298q0 101 60.5 166.5t169.5 65.5q112 0 174.5 -64.5t62.5 -169.5v-256q0 -99 -59 -161t-162 -62q-66 0 -186 29l-43 12l12 70l53 -15q93 -26 162 -26q72 0 110 40.5t38 112.5v64q-92 -31 -156 -31q-118 0 -177 58.5t-59 166.5zM139 1298q0 -155 166 -155 q63 0 150 28v121q0 79 -42.5 124.5t-119.5 45.5q-73 0 -113.5 -45.5t-40.5 -118.5z" />
<glyph horiz-adv-x="604" d="M72 1085q0 115 54 185.5t140 81.5v112h74v-110q33 -2 119 -25l43 -12l-15 -68l-47 15q-80 22 -133 22q-75 0 -118.5 -52t-43.5 -149q0 -95 44 -146.5t120 -51.5q57 0 127 20l51 15l15 -62l-43 -14q-70 -25 -119 -25v-114h-74v114q-87 11 -140.5 79t-53.5 185z" />
<glyph horiz-adv-x="604" d="M57 877l17 67l49 -20q98 -37 182 -37q73 0 116.5 32.5t43.5 92.5q0 49 -25 75t-82 37l-129 29q-170 41 -170 178q0 87 57.5 137t147.5 56v112h74v-112q66 -5 156 -37l47 -17l-17 -69l-51 20q-101 37 -176 37t-118.5 -32t-43.5 -91q0 -49 25 -74.5t82 -37.5l131 -29 q168 -37 168 -178q0 -87 -58.5 -138t-146.5 -57v-112h-74v112q-63 5 -158 37z" />
<glyph horiz-adv-x="604" d="M39 1063v63h72v97h-72v61h72q3 131 69 190.5t178 59.5q54 0 152 -27l43 -12l-14 -70l-45 15q-73 22 -136 22q-81 0 -125 -39t-45 -139h242v-61h-242v-97h242v-63h-242q5 -178 170 -178q57 0 134 22l47 15l14 -68l-45 -14q-83 -27 -150 -27q-112 0 -178 59.5t-69 190.5 h-72z" />
<glyph horiz-adv-x="442" d="M74 1098v71h288v-71h-288z" />
<glyph horiz-adv-x="604" d="M66 1100v67h192v199h74v-199h192v-67h-192v-201h-74v201h-192z" />
<glyph horiz-adv-x="604" d="M68 1100v69h454v-69h-454z" />
<glyph horiz-adv-x="604" d="M63 1006v69h461v-69h-461zM63 1188v72h461v-72h-461z" />
<glyph horiz-adv-x="317" d="M43 1143q0 362 221 383v-66q-145 -29 -145 -317q0 -291 145 -320v-65q-33 3 -61.5 13.5t-59 38t-52 68.5t-35 109t-13.5 156z" />
<glyph horiz-adv-x="317" d="M29 758v65q145 29 145 320q0 288 -145 317v66q221 -21 221 -383q0 -88 -14 -156t-35.5 -109t-51.5 -68.5t-59 -38t-61 -13.5z" />
<glyph horiz-adv-x="253" d="M55 733l54 193h79l-57 -209q-10 -33 -39 -33q-47 0 -37 49z" />
<glyph horiz-adv-x="253" d="M76 868q0 54 49 54q51 0 51 -54q0 -53 -51 -53q-49 0 -49 53z" />
<glyph horiz-adv-x="604" d="M76 1047v249q0 110 59 173t168 63q108 0 163.5 -62.5t55.5 -173.5v-245q0 -115 -55 -176.5t-164 -61.5t-168 62t-59 172zM152 1051q0 -76 28 -117l201 512q-30 18 -80 18q-75 0 -112 -45t-37 -125v-243zM225 897q32 -16 76 -16q148 0 148 170v243q0 68 -27 111z" />
<glyph horiz-adv-x="604" d="M72 1286q0 115 54 185t140 81v113h74v-111q37 -2 119 -24l43 -12l-15 -68l-47 14q-84 23 -133 23q-75 0 -118.5 -52t-43.5 -149q0 -95 44 -147t120 -52q53 0 127 21l51 14l15 -61l-43 -14q-70 -25 -119 -25v-115h-74v115q-87 11 -140.5 79t-53.5 185z" />
<glyph horiz-adv-x="604" d="M57 1077l17 68l49 -21q98 -37 182 -37q73 0 116.5 32.5t43.5 92.5q0 50 -25 76.5t-82 36.5l-129 29q-170 41 -170 178q0 87 57.5 136.5t147.5 55.5v113h74v-113q69 -5 156 -36l47 -17l-17 -69l-51 20q-101 37 -176 37t-118.5 -32t-43.5 -91q0 -49 25.5 -75t81.5 -38 l131 -28q168 -37 168 -178q0 -87 -58.5 -138t-146.5 -57v-113h-74v113q-63 5 -158 37z" />
<glyph horiz-adv-x="604" d="M39 1264v63h72v96h-72v62h72q3 131 69 190.5t178 59.5q54 0 152 -27l43 -12l-14 -70l-45 14q-76 23 -136 23q-81 0 -125 -39t-45 -139h242v-62h-242v-96h242v-63h-242q5 -179 170 -179q53 0 134 23l47 14l14 -67l-45 -15q-80 -26 -150 -26q-112 0 -178 59.5t-69 190.5 h-72z" />
<glyph horiz-adv-x="442" d="M74 1298v72h288v-72h-288z" />
<glyph horiz-adv-x="253" d="M55 934l54 192h79l-57 -208q-10 -33 -39 -33q-47 0 -37 49z" />
<glyph horiz-adv-x="253" d="M76 1069q0 53 49 53q51 0 51 -53t-51 -53q-49 0 -49 53z" />
<glyph horiz-adv-x="604" d="M76 1247v250q0 110 59 173t168 63q108 0 163.5 -62.5t55.5 -173.5v-246q0 -115 -55 -176t-164 -61t-168 61.5t-59 171.5zM152 1251q0 -69 28 -114l201 510q-34 18 -80 18q-75 0 -112 -45t-37 -125v-244zM225 1098q34 -17 76 -17q148 0 148 170v244q0 69 -27 113z" />
<glyph horiz-adv-x="1081" d="M440 1679q0 25 21 37l170 139h145l-254 -200q-24 -17 -41 -17q-19 0 -30 12.5t-11 28.5z" />
<glyph horiz-adv-x="1071" d="M242 1862h88q4 -64 70 -104t167 -40q103 0 168.5 39t71.5 105h86q-4 -103 -98.5 -163.5t-227.5 -60.5t-226 60t-99 164z" />
<glyph horiz-adv-x="1071" d="M268 1855h133l174 -141l177 141h133l-246 -194q-31 -23 -64 -23q-31 0 -61 23z" />
<glyph horiz-adv-x="1071" d="M268 1638l246 195q28 22 61 22q35 0 64 -22l246 -195h-133l-177 142l-174 -142h-133z" />
<glyph horiz-adv-x="1112" d="M330 1759q0 36 18.5 57t50.5 21t51 -21.5t19 -56.5q0 -37 -19 -58.5t-51 -21.5t-50.5 21.5t-18.5 58.5zM711 1759q0 36 18.5 57t50.5 21t51 -21.5t19 -56.5q0 -37 -19 -58.5t-51 -21.5t-50.5 21.5t-18.5 58.5z" />
<glyph horiz-adv-x="1071" d="M473 1759q0 35 19 56.5t51 21.5q33 0 52 -21t19 -57q0 -37 -19 -58.5t-52 -21.5q-32 0 -51 21.5t-19 58.5z" />
<glyph horiz-adv-x="1081" d="M410 1855h147l170 -139q21 -12 21 -37q0 -16 -11 -28.5t-30 -12.5q-16 0 -43 17z" />
<glyph horiz-adv-x="1071" d="M242 1673q0 17 20 37l172 145h135l-245 -204q-24 -17 -43 -17q-18 0 -28.5 11.5t-10.5 27.5zM588 1665q0 19 22 35l176 155h142l-260 -213q-16 -16 -41 -16q-19 0 -29 11.5t-10 27.5z" />
<glyph horiz-adv-x="1071" d="M244 1694v90h602v-90h-602z" />
<glyph horiz-adv-x="1071" d="M377 1808q0 78 54.5 126t135.5 48q84 0 139.5 -48t55.5 -126q0 -75 -57 -124.5t-138 -49.5q-79 0 -134.5 49.5t-55.5 124.5zM442 1808q0 -51 34.5 -81.5t90.5 -30.5q58 0 94.5 31t36.5 81q0 51 -36.5 83t-94.5 32q-57 0 -91 -32t-34 -83z" />
<glyph horiz-adv-x="1071" d="M164 1700q36 87 97 128.5t128 41.5q79 0 141 -43l93 -62q53 -36 104 -36q100 0 156 124l69 -38q-34 -86 -95 -127t-128 -41q-75 0 -143 45l-92 61q-52 35 -105 35q-100 0 -156 -127z" />
<glyph horiz-adv-x="1093" d="M440 1360q0 20 19 39l172 164h137l-246 -226q-21 -18 -41 -18q-19 0 -30 13t-11 28z" />
<glyph horiz-adv-x="1071" d="M242 1556h88q4 -84 70 -135t167 -51q102 0 168 50.5t72 135.5h86q-4 -119 -97.5 -192.5t-228.5 -73.5t-227 73.5t-98 192.5z" />
<glyph horiz-adv-x="1071" d="M268 1559h129l178 -193l181 193h129l-250 -248q-25 -25 -60 -25t-57 25z" />
<glyph horiz-adv-x="1071" d="M371 -369l18 60q62 -27 137 -27q53 0 90 19.5t37 64.5q0 49 -45 68.5t-141 17.5l-8 12l82 154h59l-61 -117q82 0 133 -32t51 -101q0 -71 -53.5 -110t-141.5 -39q-84 0 -157 30z" />
<glyph horiz-adv-x="1071" d="M268 1294l248 246q27 27 59 27q33 0 60 -27l250 -246h-129l-181 193l-178 -193h-129z" />
<glyph horiz-adv-x="1081" d="M467 -354l70 250h100l-78 -273q-11 -43 -53 -43q-25 0 -36.5 18.5t-2.5 47.5z" />
<glyph horiz-adv-x="1153" d="M330 1489q0 37 18.5 58.5t50.5 21.5t51 -21.5t19 -58.5q0 -35 -19 -56.5t-51 -21.5t-50.5 21t-18.5 57zM709 1489q0 37 18.5 58.5t50.5 21.5q34 0 53 -21.5t19 -58.5q0 -36 -19.5 -57t-52.5 -21q-32 0 -50.5 21t-18.5 57z" />
<glyph horiz-adv-x="1071" d="M473 1489q0 37 19 58.5t51 21.5q33 0 52 -21.5t19 -58.5q0 -36 -19 -57t-52 -21q-32 0 -51 21.5t-19 56.5z" />
<glyph horiz-adv-x="1081" d="M391 1563h137l172 -164q19 -19 19 -39q0 -15 -11 -28t-30 -13q-20 0 -41 18z" />
<glyph horiz-adv-x="1071" d="M219 1343q0 17 21 41l178 179h135l-252 -242q-21 -18 -41 -18t-30.5 11.5t-10.5 28.5zM563 1329q0 20 21 41l188 193h135l-262 -256q-22 -19 -41 -19q-20 0 -30.5 12t-10.5 29z" />
<glyph horiz-adv-x="1071" d="M244 1393v88h602v-88h-602z" />
<glyph horiz-adv-x="1087" d="M358 -182q0 114 138 188l63 6l8 -12q-127 -65 -127 -166q0 -108 152 -108q92 0 170 28l14 -67q-82 -33 -188 -33q-103 0 -166.5 42t-63.5 122z" />
<glyph horiz-adv-x="1071" d="M367 1458q0 87 57 141t143 54q87 0 145 -54t58 -141q0 -85 -58.5 -140.5t-144.5 -55.5q-84 0 -142 55.5t-58 140.5zM432 1458q0 -61 37.5 -99t97.5 -38q61 0 100.5 38t39.5 99q0 58 -39 95.5t-101 37.5q-61 0 -98 -37t-37 -96z" />
<glyph horiz-adv-x="1071" d="M143 1364q35 95 100 140.5t134 45.5q81 0 141 -47l100 -73q56 -41 107 -41q102 0 160 137l69 -39q-34 -94 -98 -139t-133 -45q-78 0 -141 49l-101 73q-53 39 -106 39q-105 0 -162 -139z" />
<glyph horiz-adv-x="1196" d="M66 0l466 1130q19 50 70 50q52 0 70 -47l456 -1133h-100l-110 268h-642l-110 -268h-100zM309 350h580l-289 717z" />
<glyph d="M168 80v1012q0 38 22 58.5t62 20.5h438q148 0 232 -70.5t84 -205.5q0 -112 -74 -205l-78 -96l98 -92q103 -93 103 -209q0 -133 -94.5 -213t-258.5 -80h-446q-41 0 -64.5 21.5t-23.5 58.5zM262 82h445q124 0 190 56t66 151q0 85 -82 164l-105 94h-514v-465zM262 631h514 l74 98q61 79 61 166q0 90 -53.5 142.5t-169.5 52.5h-426v-459z" />
<glyph horiz-adv-x="1181" d="M127 584q0 149 41.5 264t115.5 186.5t172 107.5t216 36q139 0 325 -62l78 -24l-22 -88l-80 26q-177 57 -301 57q-210 0 -328.5 -124.5t-118.5 -378.5q0 -256 119 -382t328 -126q118 0 301 59l80 25l22 -88l-78 -25q-196 -59 -325 -59q-121 0 -218.5 34.5t-171.5 105 t-114.5 186.5t-40.5 270z" />
<glyph horiz-adv-x="1269" d="M168 82v1005q0 39 23 61.5t65 22.5h338q252 0 400.5 -156.5t148.5 -432.5q0 -275 -151 -428.5t-400 -153.5h-336q-42 0 -65 21.5t-23 60.5zM264 84h326q215 0 336 130.5t121 367.5q0 235 -124.5 370t-342.5 135h-316v-1003z" />
<glyph horiz-adv-x="1075" d="M168 82v1005q0 39 23 61.5t65 22.5h690v-86h-682v-444h600v-86h-600v-471h684v-84h-692q-42 0 -65 21.5t-23 60.5z" />
<glyph horiz-adv-x="1030" d="M168 0v1090q0 37 22.5 59t63.5 22h674v-86h-664v-464h606v-84h-606v-537h-96z" />
<glyph horiz-adv-x="1261" d="M127 582q0 149 42 263.5t118.5 186t178.5 108t226 36.5q147 0 342 -60l80 -24l-22 -88l-82 24q-189 59 -318 59q-220 0 -343.5 -125t-123.5 -380q0 -130 35.5 -228.5t100.5 -159.5t152 -91.5t194 -30.5q135 0 317 43v348h-315v84h325q40 0 61 -21t21 -59v-344 q0 -69 -76 -88q-171 -49 -333 -49q-126 0 -230 35.5t-183 106t-123 186.5t-44 268z" />
<glyph horiz-adv-x="1243" d="M168 0v1171h94v-536h717v536h94v-1171h-94v551h-717v-551h-94z" />
<glyph horiz-adv-x="434" d="M168 0v1171h96v-1171h-96z" />
<glyph horiz-adv-x="677" d="M76 18l14 91q119 -29 164 -29q89 0 129.5 47.5t40.5 148.5v895h94v-899q0 -137 -68.5 -207.5t-197.5 -70.5q-65 0 -176 24z" />
<glyph horiz-adv-x="1148" d="M168 0v1171h94v-735l647 735h125l-364 -405l387 -766h-103l-356 694l-248 -278q-46 -51 -67 -93t-21 -98v-225h-94z" />
<glyph horiz-adv-x="1005" d="M168 80v1091h96v-1087h633v-84h-643q-41 0 -63.5 21.5t-22.5 58.5z" />
<glyph horiz-adv-x="1497" d="M168 0v1114q0 32 20.5 48t49.5 16q62 0 81 -56l429 -1016l436 1018q23 54 78 54q28 0 46.5 -16t18.5 -48v-1114h-90v1028l-430 -995q-14 -39 -62 -39q-45 0 -61 39l-426 995v-1028h-90z" />
<glyph horiz-adv-x="1376" d="M127 584q0 279 153.5 436.5t409.5 157.5t406.5 -156t150.5 -438q0 -285 -153 -441.5t-412 -156.5q-252 0 -403.5 158.5t-151.5 439.5zM221 584q0 -244 126 -380t341 -136q216 0 341.5 134.5t125.5 381.5q0 242 -126 375t-345 133q-215 0 -339 -133.5t-124 -374.5z" />
<glyph horiz-adv-x="1110" d="M168 0v1092q0 36 22 57.5t62 21.5h383q155 0 253.5 -95t98.5 -255q0 -162 -100.5 -257t-265.5 -95h-361v-469h-92zM260 551h361q130 0 204 71.5t74 198.5q0 124 -73 196.5t-195 72.5h-371v-539z" />
<glyph horiz-adv-x="1374" d="M127 584q0 279 153.5 436.5t409.5 157.5t406.5 -156t150.5 -438q0 -95 -20 -178.5t-60.5 -155t-108 -124.5t-157.5 -81q59 -21 92.5 -31t83.5 -19t99 -9h49v-84h-49q-135 0 -263 51q-44 16 -69 24t-67 15.5t-85 7.5q-258 0 -411.5 152t-153.5 432zM223 584 q0 -243 124.5 -371.5t342.5 -128.5q219 0 340 127t121 373q0 242 -124 375t-341 133q-215 0 -339 -133.5t-124 -374.5z" />
<glyph horiz-adv-x="1153" d="M168 0v1094q0 37 22 57t62 20h420q161 0 246.5 -78.5t85.5 -222.5q0 -124 -97 -239l-98 -117l258 -514h-104l-242 483h-459v-483h-94zM262 565h479l84 101q84 106 84 202q0 222 -239 222h-408v-525z" />
<glyph horiz-adv-x="1116" d="M133 80l23 86l69 -23q210 -71 377 -71q55 0 103.5 12.5t90.5 38.5t66.5 72.5t24.5 107.5q0 164 -215 209l-242 51q-293 62 -293 297q0 80 32 143t85.5 100.5t118.5 57t137 19.5q173 0 399 -72l70 -23l-23 -86l-69 23q-203 72 -375 72q-55 0 -104 -13.5t-89 -40.5t-63 -72 t-23 -104q0 -169 216 -215l241 -51q143 -31 218 -100.5t75 -192.5q0 -80 -32.5 -142.5t-87 -99.5t-120.5 -56t-139 -19q-183 0 -403 69z" />
<glyph horiz-adv-x="1097" d="M96 1087v84h903v-84h-401v-1087h-96v1087h-406z" />
<glyph horiz-adv-x="1251" d="M158 414v757h94v-757q0 -167 95 -260t278 -93t277.5 92.5t94.5 260.5v757h95v-757q0 -204 -122.5 -320.5t-344.5 -116.5q-223 0 -345 116t-122 321z" />
<glyph horiz-adv-x="1159" d="M66 1171h102l416 -1060l411 1060h99l-447 -1134q-15 -47 -67 -47q-48 0 -64 47z" />
<glyph horiz-adv-x="1587" d="M82 1171h92l213 -1056l346 1013q12 43 64 43q51 0 63 -43l338 -1017l217 1060h90l-233 -1136q-4 -25 -23 -39t-47 -14q-57 0 -69 49l-336 1024l-348 -1024q-17 -47 -72 -47q-56 0 -66 53z" />
<glyph horiz-adv-x="1191" d="M102 0l435 594l-424 577h116l373 -509l363 509h112l-413 -577l426 -594h-117l-375 526l-381 -526h-115z" />
<glyph horiz-adv-x="1148" d="M66 1171h114l400 -577l391 577h112l-456 -661v-510h-99v506z" />
<glyph horiz-adv-x="1126" d="M123 59q0 32 18 50l738 981h-738v81h789q30 0 45.5 -15.5t15.5 -41.5q0 -27 -18 -51l-737 -981h768v-82h-822q-59 0 -59 59z" />
<glyph horiz-adv-x="1214" d="M121 283q0 68 21 121t61.5 90.5t83.5 62.5t104 49q-81 83 -121.5 149t-40.5 148q0 133 92.5 208t239.5 75q146 0 232 -72t86 -199q0 -44 -11 -82t-26.5 -65.5t-45.5 -54t-53 -42.5t-66 -35.5t-67.5 -28.5t-72.5 -27l344 -355q110 132 110 334v143h92v-147 q0 -241 -139 -393l158 -162h-119l-100 102q-156 -122 -383 -122q-180 0 -279.5 86t-99.5 217zM217 285q0 -97 71 -160.5t212 -63.5q191 0 321 105l-372 381q-111 -43 -171.5 -102t-60.5 -160zM322 903q0 -63 36.5 -120t120.5 -144q39 14 59.5 21.5t55 21t53.5 25t45 28 t40.5 34t29 40t20.5 49t6 57.5q0 88 -58 139.5t-169 51.5q-119 0 -179 -53.5t-60 -149.5z" />
<glyph horiz-adv-x="1613" d="M186 555q0 183 83.5 327t231.5 224t335 80q169 0 304 -68t212.5 -193t77.5 -284q0 -176 -91.5 -284.5t-218.5 -108.5q-36 0 -86 18.5t-73 18.5q-28 0 -102 -12.5t-118 -12.5q-123 0 -188.5 73t-65.5 187q0 142 88.5 241t243.5 99q73 0 185 -14l8 57h82l-76 -553 q4 -2 19.5 -8t26 -9.5t27.5 -7t33 -3.5q90 0 154.5 85t64.5 234q0 209 -142.5 336t-364.5 127q-250 0 -407 -153t-157 -396q0 -218 129.5 -358t354.5 -140q91 0 209 32t172 32q46 0 98 -27l72 -37l-35 -65l-68 31q-27 16 -69 16t-161.5 -29.5t-221.5 -29.5q-130 0 -238 45 t-179 123t-110 182.5t-39 224.5zM571 518q0 -84 44 -134t133 -50q40 0 188 22l57 414q-93 18 -174 18q-121 0 -184.5 -77t-63.5 -193z" />
<glyph horiz-adv-x="1044" d="M137 369v432q0 180 101 281.5t288 101.5t283 -101t96 -286v-424q0 -188 -95.5 -289.5t-283.5 -101.5q-187 0 -288 102t-101 285zM229 371q0 -303 297 -303q289 0 289 305v422q0 146 -71.5 224.5t-217.5 78.5q-151 0 -224 -79t-73 -224v-424z" />
<glyph horiz-adv-x="1044" d="M137 0v86h393v997h-108q-101 0 -180 -34l-27 84q40 17 99.5 27.5t103.5 10.5h125q86 0 86 -79v-1006h319v-86h-811z" />
<glyph horiz-adv-x="1044" d="M129 59q0 32 29 58l460 415q108 96 154.5 167.5t46.5 160.5q0 62 -22 108.5t-62 72.5t-88.5 38.5t-107.5 12.5q-131 0 -318 -58l-63 -20l-23 90l66 18q207 60 340 60q75 0 140 -18t118 -55t83.5 -101t30.5 -148q0 -97 -53.5 -190.5t-171.5 -198.5l-434 -385h664v-86h-732 q-26 0 -41.5 15.5t-15.5 43.5z" />
<glyph horiz-adv-x="1044" d="M111 68l20 88l68 -19q214 -63 344 -63q147 0 224 59.5t77 159.5q0 51 -20 88.5t-64 77.5l-94 86h-240v84h242l73 90q68 77 68 176q0 92 -67 144.5t-203 52.5q-137 0 -318 -58l-63 -18l-23 88l66 18q199 60 340 60q177 0 269.5 -74.5t92.5 -210.5q0 -115 -82 -215l-73 -90 l92 -84q100 -90 100 -211q0 -140 -106.5 -225.5t-290.5 -85.5q-149 0 -369 63z" />
<glyph horiz-adv-x="1044" d="M86 283q0 25 20 57l586 797q30 43 76 43q63 0 63 -64v-807h156v-86h-156v-223h-94v223h-590q-61 0 -61 60zM201 309h536v733z" />
<glyph horiz-adv-x="1044" d="M119 66l22 88l64 -19q205 -61 317 -61q157 0 238.5 83.5t81.5 215.5q0 282 -316 282q-123 0 -239 -34l-101 -27v577h691v-90h-603v-376q156 38 261 38q193 0 297 -91.5t104 -278.5q0 -174 -110.5 -280.5t-303.5 -106.5q-140 0 -342 61z" />
<glyph horiz-adv-x="1044" d="M133 377v432q0 164 103 267.5t282 103.5q132 0 336 -58l64 -16l-23 -90l-64 20q-178 56 -311 56q-145 0 -219 -75.5t-74 -207.5v-127q190 55 301 55q205 0 308.5 -95.5t103.5 -270.5q0 -168 -104.5 -274.5t-294.5 -106.5t-299 106t-109 281zM227 379q0 -141 83 -223 t233 -82q144 0 222.5 81.5t78.5 215.5q0 132 -77.5 206t-242.5 74q-99 0 -297 -55v-217z" />
<glyph horiz-adv-x="1044" d="M133 1087v84h750q61 0 61 -55q0 -17 -16 -53l-477 -1063h-103l490 1087h-705z" />
<glyph horiz-adv-x="1044" d="M104 285q0 115 86 204l101 101l-74 90q-78 96 -78 209q0 136 101.5 215.5t279.5 79.5q180 0 281.5 -79.5t101.5 -215.5q0 -114 -76 -205l-75 -94l102 -101q86 -86 86 -204q0 -140 -110 -220.5t-306 -80.5q-195 0 -307.5 80.5t-112.5 220.5zM199 285q0 -101 85 -159 t240 -58q154 0 237 58t83 159q0 49 -18.5 87t-59.5 79l-94 92h-301l-95 -92q-77 -77 -77 -166zM233 889q0 -90 62 -168l78 -94h299l76 94q61 73 61 168q0 93 -72.5 150t-214.5 57q-143 0 -216 -57t-73 -150z" />
<glyph horiz-adv-x="1044" d="M109 799q0 168 103.5 274.5t293.5 106.5q191 0 300 -105.5t109 -281.5v-433q0 -164 -103 -267t-282 -103q-135 0 -335 57l-64 16l21 91l65 -19q187 -57 311 -57q145 0 219 75t74 207v127q-190 -55 -301 -55q-206 0 -308.5 95t-102.5 272zM203 799q0 -132 78 -206.5 t243 -74.5q96 0 297 55v218q0 141 -83 223t-232 82q-144 0 -223.5 -81.5t-79.5 -215.5z" />
<glyph horiz-adv-x="1044" d="M111 82l24 90l70 -25q199 -71 338 -71q128 0 213.5 58.5t85.5 168.5q0 84 -50 136t-159 75l-236 49q-140 28 -210 100.5t-70 196.5q0 73 31 133t82.5 98.5t116.5 60t136 24.5v184h90v-186q120 -7 295 -68l68 -25l-25 -88l-69 25q-188 69 -334 69q-129 0 -213 -57.5 t-84 -167.5q0 -86 48 -136.5t159 -74.5l235 -49q142 -32 212.5 -103t70.5 -194q0 -73 -31 -133t-83 -98t-116.5 -59.5t-136.5 -26.5v-185h-90v187q-53 3 -107 14t-86.5 21t-105.5 34z" />
<glyph horiz-adv-x="1044" d="M76 428v84h133v147h-133v84h133q3 215 116 328t308 113q116 0 264 -45l59 -19l-16 -90l-66 21q-136 43 -239 43q-158 0 -242.5 -87t-85.5 -264h441v-84h-443v-147h443v-84h-441q3 -350 328 -350q106 0 239 43l66 20l16 -90l-59 -18q-148 -45 -264 -45q-194 0 -307.5 113 t-116.5 327h-133z" />
<glyph horiz-adv-x="419" d="M145 63q0 37 19 58.5t51 21.5q34 0 53 -21.5t19 -58.5t-19 -57t-53 -20q-33 0 -51.5 20.5t-18.5 56.5zM168 424v747h94v-729z" />
<glyph horiz-adv-x="419" d="M143 1110q0 37 19 58.5t53 21.5q32 0 51 -21.5t19 -58.5t-19 -57.5t-51 -20.5q-34 0 -53 20.5t-19 57.5zM168 0v733l94 19v-752h-94z" />
<glyph horiz-adv-x="823" d="M82 1116l59 19q138 41 275 41q146 0 230.5 -68t84.5 -186q0 -86 -30.5 -144.5t-98.5 -118.5l-162 -141v-125l-96 -14v113q0 36 7.5 55.5t31.5 40.5l147 125q61 52 84 96t23 111q0 77 -56.5 122t-166.5 45q-136 0 -252 -36l-64 -19zM324 63q0 37 18.5 58.5t50.5 21.5 t51 -21.5t19 -58.5q0 -36 -18.5 -56.5t-51.5 -20.5q-32 0 -50.5 20t-18.5 57z" />
<glyph horiz-adv-x="823" d="M88 238q0 86 31 144.5t100 119.5l162 139v127l94 14v-112q0 -39 -6.5 -58.5t-30.5 -38.5l-149 -127q-60 -53 -83.5 -96t-23.5 -110q0 -76 58.5 -122t165.5 -46q134 0 253 37l64 20l16 -84l-61 -18q-129 -41 -275 -41t-230.5 67t-84.5 185zM356 1096q0 37 19 58.5t53 21.5 q32 0 51 -21.5t19 -58.5t-19 -57.5t-51 -20.5q-34 0 -53 20.5t-19 57.5z" />
<glyph horiz-adv-x="524" d="M119 498v69q58 -1 90.5 25.5t32.5 66.5q0 37 -25 88.5t-50.5 108.5t-25.5 109q0 97 64 151.5t170 54.5h65v-81h-65q-69 0 -107.5 -32t-38.5 -95q0 -59 49.5 -155.5t49.5 -148.5q0 -27 -8.5 -50.5t-21 -37t-25 -23t-21.5 -12.5l-8 -4q3 -1 9 -3.5t20.5 -12.5t25.5 -23 t20 -35.5t9 -49.5q0 -52 -49.5 -149.5t-49.5 -156.5q0 -63 38.5 -94t107.5 -31h65v-81h-65q-106 0 -170 53.5t-64 150.5q0 41 16 86.5t34.5 78.5t34.5 72.5t16 70.5q0 39 -33 65t-90 25z" />
<glyph horiz-adv-x="524" d="M82 -23h65q68 0 106 31t38 94q0 59 -48 156.5t-48 149.5q0 27 8.5 49.5t20 35.5t23.5 22.5t21 12.5l8 4q-3 1 -8.5 3.5t-19.5 13t-24.5 23.5t-19.5 36.5t-9 50.5q0 52 48 148.5t48 155.5q0 63 -38 95t-106 32h-65v81h65q106 0 170 -54.5t64 -151.5q0 -52 -25.5 -109 t-51 -108.5t-25.5 -88.5q0 -40 32.5 -66.5t91.5 -25.5v-69q-59 1 -91.5 -25t-32.5 -65q0 -38 25.5 -90t51 -109t25.5 -109q0 -96 -64.5 -150t-169.5 -54h-65v81z" />
<glyph horiz-adv-x="534" d="M147 -100v1271h304v-81h-211v-1108h211v-82h-304z" />
<glyph horiz-adv-x="534" d="M84 -18h211v1108h-211v81h303v-1271h-303v82z" />
<glyph horiz-adv-x="534" d="M94 535q0 148 22 261t55.5 180t83 110.5t96 60.5t102.5 22v-82q-263 -40 -263 -552q0 -132 17.5 -233t44 -160t63.5 -98t69.5 -53.5t68.5 -19.5v-82q-44 4 -82.5 17.5t-81 41t-76 76t-61.5 116.5t-43 169t-15 226z" />
<glyph horiz-adv-x="534" d="M82 -29q36 5 68.5 19.5t69.5 53.5t63 98t43.5 160t17.5 233q0 512 -262 552v82q56 -5 102.5 -22t95 -60.5t82 -110.5t55 -180t21.5 -261q0 -149 -22 -264t-56.5 -183.5t-83.5 -113.5t-95 -62.5t-99 -22.5v82z" />
<glyph horiz-adv-x="692" d="M115 573q0 32 28 60l326 321h121l-387 -381l393 -378h-121l-332 319q-28 28 -28 59z" />
<glyph horiz-adv-x="1122" d="M117 573q0 32 28 60l326 321h121l-385 -381l391 -378h-121l-332 319q-28 28 -28 59zM545 573q0 34 26 60l328 321h119l-385 -381l391 -378h-119l-334 319q-26 26 -26 59z" />
<glyph horiz-adv-x="1122" d="M96 195l393 378l-387 381h121l326 -321q29 -29 29 -60q0 -30 -29 -59l-332 -319h-121zM524 195l391 378l-385 381h119l328 -321q27 -27 27 -60q0 -32 -27 -59l-334 -319h-119z" />
<glyph horiz-adv-x="692" d="M96 195l393 378l-387 381h121l326 -321q29 -29 29 -60q0 -30 -29 -59l-332 -319h-121z" />
<glyph horiz-adv-x="845" d="M131 537v92h582v-92h-582z" />
<glyph horiz-adv-x="425" d="M115 -158l92 344h104l-102 -368q-12 -43 -51 -43q-27 0 -39 19.5t-4 47.5z" />
<glyph horiz-adv-x="425" d="M147 63q0 37 19 58.5t51 21.5q34 0 53 -21.5t19 -58.5t-19 -57t-53 -20q-33 0 -51.5 20.5t-18.5 56.5z" />
<glyph horiz-adv-x="419" d="M115 -158l92 344h104l-102 -368q-12 -43 -51 -43q-27 0 -39 19.5t-4 47.5zM180 866q0 37 19 58.5t51 21.5t50.5 -21.5t18.5 -58.5t-18.5 -57.5t-50.5 -20.5t-51 20.5t-19 57.5z" />
<glyph horiz-adv-x="419" d="M147 63q0 37 19 58.5t51 21.5q34 0 53 -21.5t19 -58.5t-19 -57t-53 -20q-33 0 -51.5 20.5t-18.5 56.5zM147 866q0 37 19 58.5t51 21.5q34 0 53 -21.5t19 -58.5t-19 -57.5t-53 -20.5q-32 0 -51 20.5t-19 57.5z" />
<glyph horiz-adv-x="419" d="M109 844l100 358q12 43 51 43q27 0 39 -19.5t4 -47.5l-90 -334h-104z" />
<glyph horiz-adv-x="772" d="M109 844l100 358q12 43 51 43q27 0 39 -19.5t4 -47.5l-90 -334h-104zM463 844l100 358q12 43 49 43q29 0 41 -19t4 -48l-90 -334h-104z" />
<glyph horiz-adv-x="419" d="M113 893l92 340h104l-102 -365q-12 -43 -49 -43q-28 0 -40.5 19.5t-4.5 48.5z" />
<glyph horiz-adv-x="772" d="M113 893l92 338h104l-102 -363q-12 -43 -49 -43q-28 0 -40.5 19.5t-4.5 48.5zM467 893l90 338h105l-101 -363q-12 -43 -51 -43q-27 0 -39 20t-4 48z" />
<glyph horiz-adv-x="419" d="M113 -158l94 344h104l-104 -368q-12 -43 -49 -43q-29 0 -41 19t-4 48z" />
<glyph horiz-adv-x="772" d="M113 -160l94 346h104l-104 -370q-12 -43 -49 -43q-29 0 -41 19t-4 48zM467 -160l92 346h105l-103 -370q-12 -43 -51 -43q-27 0 -39 19.5t-4 47.5z" />
<glyph horiz-adv-x="415" d="M156 1235h108l-12 -395h-86z" />
<glyph horiz-adv-x="747" d="M147 1235h105l-12 -395h-82zM498 1235h104l-10 -395h-82z" />
<glyph horiz-adv-x="1280" d="M168 0v1116q0 30 17 46t44 16q47 0 72 -39l719 -1000v1032h90v-1114q0 -31 -16.5 -47t-44.5 -16q-47 0 -72 39l-719 999v-1032h-90z" />
<glyph horiz-adv-x="1765" d="M66 0l475 1102q32 69 104 69h987v-84h-680v-444h613v-84h-613v-475h684v-84h-694q-40 0 -62 21t-22 57v190h-575l-115 -268h-102zM317 350h541v737h-227z" />
<glyph horiz-adv-x="1910" d="M127 582q0 274 147.5 431.5t397.5 157.5h1106v-86h-682v-444h600v-86h-600v-471h688v-84h-1110q-248 0 -397.5 154.5t-149.5 427.5zM221 582q0 -235 121.5 -366.5t335.5 -131.5h323v1003h-315q-219 0 -342 -136t-123 -369z" />
<glyph horiz-adv-x="1376" d="M127 584q0 279 153.5 436.5t409.5 157.5q146 0 264 -56l72 123h92l-96 -162q108 -73 166.5 -200t58.5 -299q0 -285 -153 -441.5t-412 -156.5q-155 0 -274 61l-74 -127h-92l98 168q-102 75 -157.5 202t-55.5 294zM221 584q0 -281 166 -418l520 878q-98 48 -223 48 q-215 0 -339 -133.5t-124 -374.5zM453 121q100 -53 235 -53q216 0 341.5 134.5t125.5 381.5q0 291 -180 422z" />
<glyph horiz-adv-x="1101" d="M168 0v1171h94v-206h375q154 0 253 -96t99 -257q0 -162 -100.5 -256t-265.5 -94h-361v-262h-94zM262 344h359q130 0 204 71.5t74 198.5q0 124 -72.5 196.5t-193.5 72.5h-371v-539z" />
<glyph horiz-adv-x="1277" d="M53 557v84h113v446q0 38 24.5 61t65.5 23h336q252 0 400.5 -156.5t148.5 -432.5q0 -275 -151 -428.5t-400 -153.5h-334q-41 0 -65.5 22t-24.5 60v475h-113zM262 86h326q215 0 334.5 129.5t119.5 366.5q0 234 -122.5 368.5t-341.5 134.5h-316v-444h393v-84h-393v-471z" />
<glyph horiz-adv-x="1181" d="M119 582q0 141 38 251.5t107 182t160.5 111t204.5 47.5v186h90v-186q137 -8 295 -60l80 -27l-21 -88l-82 27q-184 59 -313 59q-217 0 -338 -125t-121 -378t122 -378.5t337 -125.5q129 0 313 59l82 27l21 -90l-80 -25q-167 -52 -295 -59v-187h-90v187q-113 7 -205 46 t-161 110.5t-106.5 182t-37.5 253.5z" />
<glyph horiz-adv-x="1044" d="M125 528v90h346v338h92v-338h355v-90h-355v-340h-92v340h-346z" />
<glyph horiz-adv-x="1044" d="M127 526v90h786v-90h-786z" />
<glyph horiz-adv-x="1044" d="M123 383v92h792v-92h-792zM123 653v92h792v-92h-792z" />
<glyph horiz-adv-x="1196" d="M66 0l466 1130q19 50 70 50q52 0 70 -47l456 -1133h-100l-110 268h-642l-110 -268h-100zM309 350h580l-289 717zM434 1563h137l172 -164q19 -19 19 -39q0 -15 -11 -28t-30 -13q-20 0 -41 18z" />
<glyph horiz-adv-x="1196" d="M66 0l466 1130q19 50 70 50q52 0 70 -47l456 -1133h-100l-110 268h-642l-110 -268h-100zM309 350h580l-289 717zM473 1360q0 20 19 39l172 164h137l-246 -226q-21 -18 -41 -18q-19 0 -30 13t-11 28z" />
<glyph horiz-adv-x="1196" d="M66 0l466 1130q19 50 70 50q52 0 70 -47l456 -1133h-100l-110 268h-642l-110 -268h-100zM295 1294l248 246q27 27 59 27q33 0 60 -27l249 -246h-129l-180 193l-178 -193h-129zM309 350h580l-289 717z" />
<glyph horiz-adv-x="1196" d="M66 0l466 1130q19 50 70 50q52 0 70 -47l456 -1133h-100l-110 268h-642l-110 -268h-100zM188 1364q35 95 100 140.5t134 45.5q81 0 141 -47l101 -73q56 -41 106 -41q102 0 160 137l69 -39q-34 -94 -98 -139t-133 -45q-78 0 -141 49l-101 73q-53 39 -106 39 q-105 0 -162 -139zM309 350h580l-289 717z" />
<glyph horiz-adv-x="1196" d="M66 0l466 1130q19 50 70 50q52 0 70 -47l456 -1133h-100l-110 268h-642l-110 -268h-100zM309 350h580l-289 717zM344 1489q0 37 19 58.5t51 21.5t50.5 -21.5t18.5 -58.5q0 -36 -18.5 -57t-50.5 -21t-51 21.5t-19 56.5zM723 1489q0 37 19 58.5t51 21.5q33 0 52 -21.5 t19 -58.5q0 -36 -19 -57t-52 -21q-32 0 -51 21.5t-19 56.5z" />
<glyph horiz-adv-x="1196" d="M66 0l466 1130q19 50 70 50q52 0 70 -47l456 -1133h-100l-110 268h-642l-110 -268h-100zM309 350h580l-289 717zM399 1458q0 86 57.5 140.5t143.5 54.5q87 0 145 -54t58 -141q0 -85 -58.5 -140.5t-144.5 -55.5q-84 0 -142.5 55.5t-58.5 140.5zM465 1458q0 -61 37.5 -99 t97.5 -38q61 0 100 38t39 99q0 59 -39 96t-100 37t-98 -37t-37 -96z" />
<glyph horiz-adv-x="1196" d="M66 0l466 1130q19 50 70 50q52 0 70 -47l456 -1133h-100l-110 268h-642l-110 -268h-100zM297 1393v88h602v-88h-602zM309 350h580l-289 717z" />
<glyph horiz-adv-x="1196" d="M66 0l466 1130q19 50 70 50q52 0 70 -47l456 -1133h-100l-110 268h-642l-110 -268h-100zM276 1556h89q4 -84 70 -135t167 -51q102 0 168 50.5t72 135.5h86q-4 -119 -97.5 -192.5t-228.5 -73.5t-227.5 73.5t-98.5 192.5zM309 350h580l-289 717z" />
<glyph horiz-adv-x="1196" d="M66 0l466 1130q19 50 70 50q52 0 70 -47l456 -1133h-2q-62 -31 -93.5 -74.5t-31.5 -91.5q0 -108 152 -108q92 0 170 28l14 -67q-83 -33 -188 -33q-103 0 -166 42t-63 122q0 114 129 182h-21l-110 268h-642l-110 -268h-100zM309 350h580l-289 717z" />
<glyph horiz-adv-x="1181" d="M127 584q0 149 41.5 264t115.5 186.5t172 107.5t216 36q139 0 325 -62l78 -24l-22 -88l-80 26q-177 57 -301 57q-210 0 -328.5 -124.5t-118.5 -378.5q0 -256 119 -382t328 -126q118 0 301 59l80 25l22 -88l-78 -25q-172 -53 -301 -59l-55 -105q82 0 133 -32t51 -101 q0 -72 -53.5 -110.5t-140.5 -38.5q-85 0 -158 30l19 60q62 -27 137 -27q53 0 90 19.5t37 64.5q0 49 -45.5 68.5t-141.5 17.5l-8 12l76 142q-114 5 -205.5 42t-160.5 108t-106.5 184t-37.5 262z" />
<glyph horiz-adv-x="1181" d="M127 584q0 149 41.5 264t115.5 186.5t172 107.5t216 36q139 0 325 -62l78 -24l-22 -88l-80 26q-177 57 -301 57q-210 0 -328.5 -124.5t-118.5 -378.5q0 -256 119 -382t328 -126q118 0 301 59l80 25l22 -88l-78 -25q-196 -59 -325 -59q-121 0 -218.5 34.5t-171.5 105 t-114.5 186.5t-40.5 270zM553 1360q0 21 18 39l172 164h138l-246 -226q-21 -18 -41 -18q-19 0 -30 13t-11 28z" />
<glyph horiz-adv-x="1181" d="M127 584q0 149 41.5 264t115.5 186.5t172 107.5t216 36q139 0 325 -62l78 -24l-22 -88l-80 26q-177 57 -301 57q-210 0 -328.5 -124.5t-118.5 -378.5q0 -256 119 -382t328 -126q118 0 301 59l80 25l22 -88l-78 -25q-196 -59 -325 -59q-121 0 -218.5 34.5t-171.5 105 t-114.5 186.5t-40.5 270zM367 1294l247 246q27 27 60 27q32 0 59 -27l250 -246h-129l-180 193l-178 -193h-129z" />
<glyph horiz-adv-x="1181" d="M127 584q0 149 41.5 264t115.5 186.5t172 107.5t216 36q139 0 325 -62l78 -24l-22 -88l-80 26q-177 57 -301 57q-210 0 -328.5 -124.5t-118.5 -378.5q0 -256 119 -382t328 -126q118 0 301 59l80 25l22 -88l-78 -25q-196 -59 -325 -59q-121 0 -218.5 34.5t-171.5 105 t-114.5 186.5t-40.5 270zM600 1489q0 37 19 58.5t51 21.5q33 0 52 -21.5t19 -58.5q0 -36 -19 -57t-52 -21q-32 0 -51 21.5t-19 56.5z" />
<glyph horiz-adv-x="1181" d="M127 584q0 149 41.5 264t115.5 186.5t172 107.5t216 36q139 0 325 -62l78 -24l-22 -88l-80 26q-177 57 -301 57q-210 0 -328.5 -124.5t-118.5 -378.5q0 -256 119 -382t328 -126q118 0 301 59l80 25l22 -88l-78 -25q-196 -59 -325 -59q-121 0 -218.5 34.5t-171.5 105 t-114.5 186.5t-40.5 270zM365 1559h129l178 -193l180 193h129l-250 -248q-25 -25 -59 -25q-36 0 -58 25z" />
<glyph horiz-adv-x="1269" d="M168 82v1005q0 39 23 61.5t65 22.5h338q252 0 400.5 -156.5t148.5 -432.5q0 -275 -151 -428.5t-400 -153.5h-336q-42 0 -65 21.5t-23 60.5zM264 84h326q215 0 336 130.5t121 367.5q0 235 -124.5 370t-342.5 135h-316v-1003zM281 1559h129l178 -193l180 193h129l-250 -248 q-25 -25 -59 -25q-36 0 -58 25z" />
<glyph horiz-adv-x="1277" d="M53 557v84h113v446q0 38 24.5 61t65.5 23h336q252 0 400.5 -156.5t148.5 -432.5q0 -275 -151 -428.5t-400 -153.5h-334q-41 0 -65.5 22t-24.5 60v475h-113zM262 86h326q215 0 334.5 129.5t119.5 366.5q0 234 -122.5 368.5t-341.5 134.5h-316v-444h393v-84h-393v-471z" />
<glyph horiz-adv-x="1075" d="M168 82v1005q0 39 23 61.5t65 22.5h690v-86h-682v-444h600v-86h-600v-471h684v-84h-692q-42 0 -65 21.5t-23 60.5zM330 1563h137l172 -164q18 -18 18 -39q0 -15 -11 -28t-30 -13q-20 0 -41 18z" />
<glyph horiz-adv-x="1075" d="M168 82v1005q0 39 23 61.5t65 22.5h690v-86h-682v-444h600v-86h-600v-471h684v-84h-692q-42 0 -65 21.5t-23 60.5zM473 1360q0 20 19 39l172 164h137l-246 -226q-21 -18 -41 -18q-19 0 -30 13t-11 28z" />
<glyph horiz-adv-x="1075" d="M168 82v1005q0 39 23 61.5t65 22.5h690v-86h-682v-444h600v-86h-600v-471h684v-84h-692q-42 0 -65 21.5t-23 60.5zM256 1294l248 246q27 27 59 27q33 0 60 -27l249 -246h-129l-180 193l-178 -193h-129z" />
<glyph horiz-adv-x="1075" d="M168 82v1005q0 39 23 61.5t65 22.5h690v-86h-682v-444h600v-86h-600v-471h684v-84h-692q-42 0 -65 21.5t-23 60.5zM301 1489q0 37 19 58.5t51 21.5t50.5 -21.5t18.5 -58.5q0 -36 -18.5 -57t-50.5 -21t-51 21.5t-19 56.5zM680 1489q0 37 19 58.5t51 21.5q33 0 52 -21.5 t19 -58.5q0 -36 -19 -57t-52 -21q-32 0 -51 21.5t-19 56.5z" />
<glyph horiz-adv-x="1075" d="M168 82v1005q0 39 23 61.5t65 22.5h690v-86h-682v-444h600v-86h-600v-471h684v-84h-692q-42 0 -65 21.5t-23 60.5zM260 1393v88h602v-88h-602z" />
<glyph horiz-adv-x="1075" d="M168 82v1005q0 39 23 61.5t65 22.5h690v-86h-682v-444h600v-86h-600v-471h684v-84h-692q-42 0 -65 21.5t-23 60.5zM236 1556h88q4 -84 70 -135t167 -51q102 0 168 50.5t72 135.5h86q-4 -119 -97.5 -192.5t-228.5 -73.5t-227 73.5t-98 192.5z" />
<glyph horiz-adv-x="1075" d="M168 82v1005q0 39 23 61.5t65 22.5h690v-86h-682v-444h600v-86h-600v-471h684v-84h-692q-42 0 -65 21.5t-23 60.5zM500 1489q0 37 18.5 58.5t50.5 21.5q34 0 53 -21.5t19 -58.5q0 -36 -19.5 -57t-52.5 -21q-32 0 -50.5 21t-18.5 57z" />
<glyph horiz-adv-x="1075" d="M168 82v1005q0 39 23 61.5t65 22.5h690v-86h-682v-444h600v-86h-600v-471h684v-84h-117q-126 -64 -126 -166q0 -108 151 -108q92 0 170 28l14 -67q-82 -33 -188 -33q-103 0 -166 42t-63 122q0 112 125 182h-492q-42 0 -65 21.5t-23 60.5z" />
<glyph horiz-adv-x="1075" d="M168 82v1005q0 39 23 61.5t65 22.5h690v-86h-682v-444h600v-86h-600v-471h684v-84h-692q-42 0 -65 21.5t-23 60.5zM262 1559h129l178 -193l181 193h129l-250 -248q-25 -25 -60 -25t-57 25z" />
<glyph horiz-adv-x="1261" d="M127 582q0 149 42 263.5t118.5 186t178.5 108t226 36.5q147 0 342 -60l80 -24l-22 -88l-82 24q-189 59 -318 59q-220 0 -343.5 -125t-123.5 -380q0 -130 35.5 -228.5t100.5 -159.5t152 -91.5t194 -30.5q135 0 317 43v348h-315v84h325q40 0 61 -21t21 -59v-344 q0 -69 -76 -88q-171 -49 -333 -49q-126 0 -230 35.5t-183 106t-123 186.5t-44 268zM377 1294l248 246q27 27 59 27t59 -27l250 -246h-129l-180 193l-178 -193h-129z" />
<glyph horiz-adv-x="1261" d="M127 582q0 149 42 263.5t118.5 186t178.5 108t226 36.5q147 0 342 -60l80 -24l-22 -88l-82 24q-189 59 -318 59q-220 0 -343.5 -125t-123.5 -380q0 -130 35.5 -228.5t100.5 -159.5t152 -91.5t194 -30.5q135 0 317 43v348h-315v84h325q40 0 61 -21t21 -59v-344 q0 -69 -76 -88q-171 -49 -333 -49q-126 0 -230 35.5t-183 106t-123 186.5t-44 268zM352 1556h88q4 -84 70.5 -135t167.5 -51q102 0 168 50.5t72 135.5h86q-4 -119 -97.5 -192.5t-228.5 -73.5t-227.5 73.5t-98.5 192.5z" />
<glyph horiz-adv-x="1261" d="M127 582q0 149 42 263.5t118.5 186t178.5 108t226 36.5q147 0 342 -60l80 -24l-22 -88l-82 24q-189 59 -318 59q-220 0 -343.5 -125t-123.5 -380q0 -130 35.5 -228.5t100.5 -159.5t152 -91.5t194 -30.5q135 0 317 43v348h-315v84h325q40 0 61 -21t21 -59v-344 q0 -69 -76 -88q-171 -49 -333 -49q-126 0 -230 35.5t-183 106t-123 186.5t-44 268zM604 1493q0 37 19 58.5t51 21.5q33 0 52 -21.5t19 -58.5q0 -36 -19 -57t-52 -21q-32 0 -51 21.5t-19 56.5z" />
<glyph horiz-adv-x="1261" d="M127 582q0 149 42 263.5t118.5 186t178.5 108t226 36.5q147 0 342 -60l80 -24l-22 -88l-82 24q-189 59 -318 59q-220 0 -343.5 -125t-123.5 -380q0 -130 35.5 -228.5t100.5 -159.5t152 -91.5t194 -30.5q135 0 317 43v348h-315v84h325q40 0 61 -21t21 -59v-344 q0 -69 -76 -88q-171 -49 -333 -49q-126 0 -230 35.5t-183 106t-123 186.5t-44 268zM559 -354l70 250h100l-78 -273q-11 -43 -53 -43q-25 0 -36.5 18.5t-2.5 47.5z" />
<glyph horiz-adv-x="1243" d="M168 0v1171h94v-536h717v536h94v-1171h-94v551h-717v-551h-94zM319 1294l248 246q27 27 60 27q32 0 59 -27l250 -246h-129l-180 193l-178 -193h-130z" />
<glyph horiz-adv-x="1239" d="M31 842v84h137v245h94v-245h717v245h94v-245h141v-84h-141v-842h-94v551h-717v-551h-94v842h-137zM262 635h717v207h-717v-207z" />
<glyph horiz-adv-x="1112" d="M168 0v1171h96v-1171h-96zM510 18l14 91q119 -29 164 -29q89 0 129.5 47.5t40.5 148.5v895h94v-899q0 -137 -68.5 -207.5t-197.5 -70.5q-65 0 -176 24z" />
<glyph horiz-adv-x="434" d="M-4 1563h137l172 -164q19 -19 19 -39q0 -15 -11 -28t-30 -13q-20 0 -41 18zM168 0v1171h96v-1171h-96z" />
<glyph horiz-adv-x="434" d="M109 1360q0 21 18 39l172 164h137l-246 -226q-21 -18 -40 -18t-30 13t-11 28zM168 0v1171h96v-1171h-96z" />
<glyph horiz-adv-x="434" d="M-90 1294l248 246q27 27 59 27t59 -27l250 -246h-129l-180 193l-178 -193h-129zM168 0v1171h96v-1171h-96z" />
<glyph horiz-adv-x="434" d="M-41 1489q0 37 19 58.5t51 21.5t50.5 -21.5t18.5 -58.5q0 -36 -18.5 -57t-50.5 -21t-51 21.5t-19 56.5zM168 0v1171h96v-1171h-96zM338 1489q0 37 19 58.5t51 21.5q33 0 52 -21.5t19 -58.5q0 -36 -19 -57t-52 -21q-32 0 -51 21.5t-19 56.5z" />
<glyph horiz-adv-x="434" d="M-193 1364q35 95 100 140.5t134 45.5q81 0 141 -47l101 -73q56 -41 106 -41q102 0 160 137l69 -39q-34 -94 -98 -139t-133 -45q-78 0 -141 49l-101 73q-53 39 -106 39q-105 0 -162 -139zM168 0v1171h96v-1171h-96z" />
<glyph horiz-adv-x="434" d="M-84 1393v88h602v-88h-602zM168 0v1171h96v-1171h-96z" />
<glyph horiz-adv-x="434" d="M-109 1556h89q4 -84 70 -135t167 -51q102 0 168 50.5t72 135.5h86q-4 -119 -97.5 -192.5t-228.5 -73.5t-227.5 73.5t-98.5 192.5zM168 0v1171h96v-1171h-96z" />
<glyph horiz-adv-x="434" d="M55 -182q0 112 125 182h-12v1171h96v-1171q-127 -65 -127 -166q0 -108 152 -108q92 0 170 28l14 -67q-82 -33 -188 -33q-103 0 -166.5 42t-63.5 122z" />
<glyph horiz-adv-x="434" d="M147 1489q0 37 19 58.5t51 21.5q34 0 53 -21.5t19 -58.5q0 -36 -19.5 -57t-52.5 -21q-32 0 -51 21.5t-19 56.5zM168 0v1171h96v-1171h-96z" />
<glyph horiz-adv-x="1005" d="M45 506v94l123 66v505h96v-452l322 174v-94l-322 -174v-541h633v-84h-643q-41 0 -63.5 21.5t-22.5 58.5v491z" />
<glyph horiz-adv-x="677" d="M76 18l14 91q119 -29 164 -29q89 0 129.5 47.5t40.5 148.5v895h94v-899q0 -137 -68.5 -207.5t-197.5 -70.5q-65 0 -176 24zM164 1294l248 246q27 27 59 27t59 -27l250 -246h-129l-180 193l-178 -193h-129z" />
<glyph horiz-adv-x="1148" d="M168 0v1171h94v-735l647 735h125l-364 -405l387 -766h-103l-356 694l-248 -278q-46 -51 -67 -93t-21 -98v-225h-94zM477 -354l70 250h100l-78 -273q-11 -43 -53 -43q-25 0 -36.5 18.5t-2.5 47.5z" />
<glyph horiz-adv-x="1005" d="M168 80v1091h96v-1087h633v-84h-643q-41 0 -63.5 21.5t-22.5 58.5zM440 1360q0 20 19 39l172 164h137l-246 -226q-21 -18 -41 -18q-19 0 -30 13t-11 28z" />
<glyph horiz-adv-x="1005" d="M168 80v1091h96v-1087h633v-84h-643q-41 0 -63.5 21.5t-22.5 58.5zM399 -354l70 250h100l-77 -273q-11 -43 -54 -43q-25 0 -36.5 18.5t-2.5 47.5z" />
<glyph horiz-adv-x="1005" d="M168 80v1091h96v-1087h633v-84h-643q-41 0 -63.5 21.5t-22.5 58.5zM522 889l103 360h98l-111 -385q-12 -43 -49 -43q-27 0 -38 19.5t-3 48.5z" />
<glyph horiz-adv-x="1005" d="M168 80v1091h96v-1087h633v-84h-643q-41 0 -63.5 21.5t-22.5 58.5zM606 606q0 36 19 55t47 19q31 0 49 -18.5t18 -55.5q0 -35 -18 -53t-49 -18q-28 0 -47 18t-19 53z" />
<glyph horiz-adv-x="1280" d="M168 0v1116q0 30 17 46t44 16q47 0 72 -39l719 -1000v1032h90v-1114q0 -31 -16.5 -47t-44.5 -16q-47 0 -72 39l-719 999v-1032h-90zM246 1364q36 95 100 140.5t133 45.5q82 0 142 -47l100 -73q56 -41 106 -41q102 0 160 137l70 -39q-34 -94 -98.5 -139t-133.5 -45 q-78 0 -141 49l-100 73q-53 39 -107 39q-105 0 -162 -139z" />
<glyph horiz-adv-x="1280" d="M168 0v1116q0 30 17 46t44 16q47 0 72 -39l719 -1000v1032h90v-1114q0 -31 -16.5 -47t-44.5 -16q-47 0 -72 39l-719 999v-1032h-90zM582 1360q0 21 18 39l172 164h137l-245 -226q-21 -18 -41 -18q-19 0 -30 13t-11 28z" />
<glyph horiz-adv-x="1280" d="M168 0v1116q0 30 17 46t44 16q47 0 72 -39l719 -1000v1032h90v-1114q0 -31 -16.5 -47t-44.5 -16q-47 0 -72 39l-719 999v-1032h-90zM512 -354l70 250h100l-78 -273q-11 -43 -53 -43q-25 0 -36.5 18.5t-2.5 47.5z" />
<glyph horiz-adv-x="1280" d="M168 0v1116q0 30 17 46t44 16q47 0 72 -39l719 -1000v1032h90v-1114q0 -31 -16.5 -47t-44.5 -16q-47 0 -72 39l-719 999v-1032h-90zM342 1559h129l178 -193l180 193h129l-249 -248q-25 -25 -60 -25t-57 25z" />
<glyph horiz-adv-x="1376" d="M127 584q0 279 153.5 436.5t409.5 157.5t406.5 -156t150.5 -438q0 -285 -153 -441.5t-412 -156.5q-252 0 -403.5 158.5t-151.5 439.5zM221 584q0 -244 126 -380t341 -136q216 0 341.5 134.5t125.5 381.5q0 242 -126 375t-345 133q-215 0 -339 -133.5t-124 -374.5z M487 1563h138l172 -164q18 -18 18 -39q0 -15 -11 -28t-30 -13q-20 0 -41 18z" />
<glyph horiz-adv-x="1376" d="M127 584q0 279 153.5 436.5t409.5 157.5t406.5 -156t150.5 -438q0 -285 -153 -441.5t-412 -156.5q-252 0 -403.5 158.5t-151.5 439.5zM221 584q0 -244 126 -380t341 -136q216 0 341.5 134.5t125.5 381.5q0 242 -126 375t-345 133q-215 0 -339 -133.5t-124 -374.5z M547 1360q0 21 18 39l172 164h137l-245 -226q-21 -18 -41 -18q-19 0 -30 13t-11 28z" />
<glyph horiz-adv-x="1376" d="M127 584q0 279 153.5 436.5t409.5 157.5t406.5 -156t150.5 -438q0 -285 -153 -441.5t-412 -156.5q-252 0 -403.5 158.5t-151.5 439.5zM221 584q0 -244 126 -380t341 -136q216 0 341.5 134.5t125.5 381.5q0 242 -126 375t-345 133q-215 0 -339 -133.5t-124 -374.5z M383 1294l248 246q27 27 59 27q33 0 60 -27l249 -246h-129l-180 193l-178 -193h-129z" />
<glyph horiz-adv-x="1376" d="M127 584q0 279 153.5 436.5t409.5 157.5t406.5 -156t150.5 -438q0 -285 -153 -441.5t-412 -156.5q-252 0 -403.5 158.5t-151.5 439.5zM221 584q0 -244 126 -380t341 -136q216 0 341.5 134.5t125.5 381.5q0 242 -126 375t-345 133q-215 0 -339 -133.5t-124 -374.5z M291 1364q36 95 100 140.5t133 45.5q82 0 142 -47l100 -73q56 -41 106 -41q102 0 160 137l70 -39q-34 -94 -98.5 -139t-133.5 -45q-78 0 -141 49l-100 73q-53 39 -107 39q-105 0 -162 -139z" />
<glyph horiz-adv-x="1376" d="M127 584q0 279 153.5 436.5t409.5 157.5t406.5 -156t150.5 -438q0 -285 -153 -441.5t-412 -156.5q-252 0 -403.5 158.5t-151.5 439.5zM221 584q0 -244 126 -380t341 -136q216 0 341.5 134.5t125.5 381.5q0 242 -126 375t-345 133q-215 0 -339 -133.5t-124 -374.5z M430 1489q0 37 19 58.5t51 21.5t50.5 -21.5t18.5 -58.5q0 -36 -18.5 -57t-50.5 -21t-51 21.5t-19 56.5zM809 1489q0 37 19 58.5t51 21.5q33 0 52 -21.5t19 -58.5q0 -36 -19 -57t-52 -21q-32 0 -51 21.5t-19 56.5z" />
<glyph horiz-adv-x="1280" d="M168 0v1116q0 30 17 46t44 16q41 0 72 -39l719 -973v1005h90v-1253q0 -136 -71.5 -212.5t-196.5 -76.5v80q87 1 132.5 55t45.5 154v88l-762 1028v-1034h-90z" />
<glyph horiz-adv-x="1376" d="M127 584q0 279 153.5 436.5t409.5 157.5t406.5 -156t150.5 -438q0 -285 -153 -441.5t-412 -156.5q-252 0 -403.5 158.5t-151.5 439.5zM221 584q0 -244 126 -380t341 -136q216 0 341.5 134.5t125.5 381.5q0 242 -126 375t-345 133q-215 0 -339 -133.5t-124 -374.5z M385 1393v88h602v-88h-602z" />
<glyph horiz-adv-x="1376" d="M127 584q0 279 153.5 436.5t409.5 157.5t406.5 -156t150.5 -438q0 -285 -153 -441.5t-412 -156.5q-252 0 -403.5 158.5t-151.5 439.5zM221 584q0 -244 126 -380t341 -136q216 0 341.5 134.5t125.5 381.5q0 242 -126 375t-345 133q-215 0 -339 -133.5t-124 -374.5z M365 1556h88q4 -84 70 -135t167 -51q102 0 168 50.5t72 135.5h86q-4 -119 -97.5 -192.5t-228.5 -73.5t-227 73.5t-98 192.5z" />
<glyph horiz-adv-x="1376" d="M127 584q0 279 153.5 436.5t409.5 157.5t406.5 -156t150.5 -438q0 -285 -153 -441.5t-412 -156.5q-252 0 -403.5 158.5t-151.5 439.5zM221 584q0 -244 126 -380t341 -136q216 0 341.5 134.5t125.5 381.5q0 242 -126 375t-345 133q-215 0 -339 -133.5t-124 -374.5z M432 1343q0 17 21 41l178 179h135l-252 -242q-21 -18 -41 -18t-30.5 11.5t-10.5 28.5zM776 1329q0 20 21 41l188 193h135l-262 -256q-22 -19 -41 -19q-20 0 -30.5 12t-10.5 29z" />
<glyph horiz-adv-x="1153" d="M168 0v1094q0 37 22 57t62 20h420q161 0 246.5 -78.5t85.5 -222.5q0 -124 -97 -239l-98 -117l258 -514h-104l-242 483h-459v-483h-94zM262 565h479l84 101q84 106 84 202q0 222 -239 222h-408v-525zM471 1360q0 21 18 39l173 164h137l-246 -226q-21 -18 -41 -18 q-19 0 -30 13t-11 28z" />
<glyph horiz-adv-x="1153" d="M168 0v1094q0 37 22 57t62 20h420q161 0 246.5 -78.5t85.5 -222.5q0 -124 -97 -239l-98 -117l258 -514h-104l-242 483h-459v-483h-94zM262 565h479l84 101q84 106 84 202q0 222 -239 222h-408v-525zM446 -354l70 250h100l-77 -273q-11 -43 -54 -43q-25 0 -36.5 18.5 t-2.5 47.5z" />
<glyph horiz-adv-x="1153" d="M168 0v1094q0 37 22 57t62 20h420q161 0 246.5 -78.5t85.5 -222.5q0 -124 -97 -239l-98 -117l258 -514h-104l-242 483h-459v-483h-94zM260 1559h129l178 -193l181 193h129l-250 -248q-25 -25 -60 -25t-57 25zM262 565h479l84 101q84 106 84 202q0 222 -239 222h-408v-525 z" />
<glyph horiz-adv-x="1116" d="M133 80l23 86l69 -23q210 -71 377 -71q55 0 103.5 12.5t90.5 38.5t66.5 72.5t24.5 107.5q0 164 -215 209l-242 51q-293 62 -293 297q0 80 32 143t85.5 100.5t118.5 57t137 19.5q173 0 399 -72l70 -23l-23 -86l-69 23q-203 72 -375 72q-55 0 -104 -13.5t-89 -40.5t-63 -72 t-23 -104q0 -169 216 -215l241 -51q143 -31 218 -100.5t75 -192.5q0 -80 -32.5 -142.5t-87 -99.5t-120.5 -56t-139 -19q-183 0 -403 69zM457 1360q0 21 18 39l172 164h137l-245 -226q-21 -18 -41 -18q-19 0 -30 13t-11 28z" />
<glyph horiz-adv-x="1116" d="M133 80l23 86l69 -23q210 -71 377 -71q55 0 103.5 12.5t90.5 38.5t66.5 72.5t24.5 107.5q0 164 -215 209l-242 51q-293 62 -293 297q0 80 32 143t85.5 100.5t118.5 57t137 19.5q173 0 399 -72l70 -23l-23 -86l-69 23q-203 72 -375 72q-55 0 -104 -13.5t-89 -40.5t-63 -72 t-23 -104q0 -169 216 -215l241 -51q143 -31 218 -100.5t75 -192.5q0 -80 -32.5 -142.5t-87 -99.5t-120.5 -56t-139 -19q-183 0 -403 69zM256 1294l248 246q27 27 59 27q33 0 60 -27l249 -246h-129l-180 193l-178 -193h-129z" />
<glyph horiz-adv-x="1116" d="M133 80l23 86l69 -23q210 -71 377 -71q55 0 103.5 12.5t90.5 38.5t66.5 72.5t24.5 107.5q0 164 -215 209l-242 51q-293 62 -293 297q0 80 32 143t85.5 100.5t118.5 57t137 19.5q173 0 399 -72l70 -23l-23 -86l-69 23q-203 72 -375 72q-55 0 -104 -13.5t-89 -40.5t-63 -72 t-23 -104q0 -169 216 -215l241 -51q143 -31 218 -100.5t75 -192.5q0 -80 -32.5 -142.5t-87 -99.5t-120.5 -56t-139 -19l-55 -105q82 0 133 -32t51 -101q0 -72 -53.5 -110.5t-140.5 -38.5q-85 0 -158 30l18 60q62 -27 138 -27q53 0 90 19.5t37 64.5q0 49 -45.5 68.5 t-141.5 17.5l-8 12l76 144q-157 8 -344 67z" />
<glyph horiz-adv-x="1116" d="M133 80l23 86l69 -23q210 -71 377 -71q55 0 103.5 12.5t90.5 38.5t66.5 72.5t24.5 107.5q0 164 -215 209l-242 51q-293 62 -293 297q0 80 32 143t85.5 100.5t118.5 57t137 19.5q173 0 399 -72l70 -23l-23 -86l-69 23q-203 72 -375 72q-55 0 -104 -13.5t-89 -40.5t-63 -72 t-23 -104q0 -169 216 -215l241 -51q143 -31 218 -100.5t75 -192.5q0 -80 -32.5 -142.5t-87 -99.5t-120.5 -56t-139 -19q-183 0 -403 69zM438 -354l70 250h100l-78 -273q-11 -43 -53 -43q-25 0 -36.5 18.5t-2.5 47.5z" />
<glyph horiz-adv-x="1116" d="M133 80l23 86l69 -23q210 -71 377 -71q55 0 103.5 12.5t90.5 38.5t66.5 72.5t24.5 107.5q0 164 -215 209l-242 51q-293 62 -293 297q0 80 32 143t85.5 100.5t118.5 57t137 19.5q173 0 399 -72l70 -23l-23 -86l-69 23q-203 72 -375 72q-55 0 -104 -13.5t-89 -40.5t-63 -72 t-23 -104q0 -169 216 -215l241 -51q143 -31 218 -100.5t75 -192.5q0 -80 -32.5 -142.5t-87 -99.5t-120.5 -56t-139 -19q-183 0 -403 69zM268 1559h129l178 -193l181 193h129l-250 -248q-25 -25 -60 -25t-57 25z" />
<glyph horiz-adv-x="1097" d="M96 1087v84h903v-84h-401v-1087h-96v1087h-406zM426 -354l70 250h100l-78 -273q-11 -43 -53 -43q-25 0 -36.5 18.5t-2.5 47.5z" />
<glyph horiz-adv-x="1097" d="M96 1087v84h903v-84h-401v-1087h-96v1087h-406zM242 1559h129l178 -193l180 193h129l-250 -248q-25 -25 -59 -25q-35 0 -57 25z" />
<glyph horiz-adv-x="1097" d="M96 1087v84h903v-84h-401v-446h301v-84h-301v-557h-96v557h-307v84h307v446h-406z" />
<glyph horiz-adv-x="1251" d="M158 414v757h94v-757q0 -167 95 -260t278 -93t277.5 92.5t94.5 260.5v757h95v-757q0 -204 -122.5 -320.5t-344.5 -116.5q-223 0 -345 116t-122 321zM395 1563h137l173 -164q18 -18 18 -39q0 -15 -11 -28t-30 -13q-20 0 -41 18z" />
<glyph horiz-adv-x="1251" d="M158 414v757h94v-757q0 -167 95 -260t278 -93t277.5 92.5t94.5 260.5v757h95v-757q0 -204 -122.5 -320.5t-344.5 -116.5q-223 0 -345 116t-122 321zM545 1360q0 21 18 39l172 164h137l-245 -226q-21 -18 -41 -18q-19 0 -30 13t-11 28z" />
<glyph horiz-adv-x="1251" d="M158 414v757h94v-757q0 -167 95 -260t278 -93t277.5 92.5t94.5 260.5v757h95v-757q0 -204 -122.5 -320.5t-344.5 -116.5q-223 0 -345 116t-122 321zM326 1294l247 246q27 27 60 27q32 0 59 -27l250 -246h-129l-180 193l-178 -193h-129z" />
<glyph horiz-adv-x="1251" d="M158 414v757h94v-757q0 -167 95 -260t278 -93t277.5 92.5t94.5 260.5v757h95v-757q0 -204 -122.5 -320.5t-344.5 -116.5q-223 0 -345 116t-122 321zM371 1489q0 37 18.5 58.5t50.5 21.5t51 -21.5t19 -58.5q0 -35 -19 -56.5t-51 -21.5t-50.5 21t-18.5 57zM750 1489 q0 37 18.5 58.5t50.5 21.5q34 0 53 -21.5t19 -58.5q0 -36 -19.5 -57t-52.5 -21q-32 0 -50.5 21t-18.5 57z" />
<glyph horiz-adv-x="1251" d="M158 414v757h94v-757q0 -167 95 -260t278 -93t277.5 92.5t94.5 260.5v757h95v-757q0 -204 -122.5 -320.5t-344.5 -116.5q-223 0 -345 116t-122 321zM225 1364q35 95 100 140.5t134 45.5q81 0 141 -47l100 -73q56 -41 107 -41q102 0 160 137l69 -39q-34 -94 -98 -139 t-133 -45q-78 0 -141 49l-101 73q-53 39 -106 39q-105 0 -162 -139z" />
<glyph horiz-adv-x="1251" d="M158 414v757h94v-757q0 -167 95 -260t278 -93t277.5 92.5t94.5 260.5v757h95v-757q0 -204 -122.5 -320.5t-344.5 -116.5q-223 0 -345 116t-122 321zM326 1393v88h602v-88h-602z" />
<glyph horiz-adv-x="1251" d="M158 414v757h94v-757q0 -167 95 -260t278 -93t277.5 92.5t94.5 260.5v757h95v-757q0 -204 -122.5 -320.5t-344.5 -116.5q-223 0 -345 116t-122 321zM305 1556h88q4 -84 70.5 -135t167.5 -51q102 0 167.5 50t71.5 136h86q-4 -119 -97 -192.5t-228 -73.5t-227.5 73.5 t-98.5 192.5z" />
<glyph horiz-adv-x="1251" d="M158 414v757h94v-757q0 -167 95 -260t278 -93t277.5 92.5t94.5 260.5v757h95v-757q0 -204 -122.5 -320.5t-344.5 -116.5q-223 0 -345 116t-122 321zM426 1458q0 86 57.5 140.5t143.5 54.5q87 0 144.5 -54t57.5 -141q0 -85 -58 -140.5t-144 -55.5q-84 0 -142.5 55.5 t-58.5 140.5zM492 1458q0 -61 37.5 -99t97.5 -38q61 0 100 38t39 99q0 59 -39 96t-100 37t-98 -37t-37 -96z" />
<glyph horiz-adv-x="1251" d="M158 414v757h94v-757q0 -167 95 -260t278 -93t277.5 92.5t94.5 260.5v757h95v-757q0 -204 -122.5 -320.5t-344.5 -116.5q-223 0 -345 116t-122 321zM389 1343q0 17 21 41l178 179h135l-252 -242q-21 -18 -41 -18t-30.5 11.5t-10.5 28.5zM733 1329q0 20 21 41l188 193h135 l-262 -256q-22 -19 -41 -19q-20 0 -30.5 12t-10.5 29z" />
<glyph horiz-adv-x="1251" d="M158 414v757h94v-757q0 -167 95 -260t278 -93t277.5 92.5t94.5 260.5v757h95v-757q0 -149 -66.5 -252.5t-189.5 -149.5q-127 -65 -127 -166q0 -108 151 -108q89 0 170 29l14 -68q-82 -33 -188 -33q-103 0 -166 42t-63 122q0 90 82 154q-47 -7 -84 -7q-223 0 -345 116 t-122 321z" />
<glyph horiz-adv-x="1587" d="M82 1171h92l213 -1056l346 1013q12 43 64 43q51 0 63 -43l338 -1017l217 1060h90l-233 -1136q-4 -25 -23 -39t-47 -14q-57 0 -69 49l-336 1024l-348 -1024q-17 -47 -72 -47q-56 0 -66 53zM492 1294l247 246q27 27 60 27q32 0 59 -27l250 -246h-129l-180 193l-178 -193 h-129z" />
<glyph horiz-adv-x="1587" d="M82 1171h92l213 -1056l346 1013q12 43 64 43q51 0 63 -43l338 -1017l217 1060h90l-233 -1136q-4 -25 -23 -39t-47 -14q-57 0 -69 49l-336 1024l-348 -1024q-17 -47 -72 -47q-56 0 -66 53zM539 1489q0 37 18.5 58.5t50.5 21.5t51 -21.5t19 -58.5q0 -35 -19 -56.5 t-51 -21.5t-50.5 21t-18.5 57zM918 1489q0 37 18.5 58.5t50.5 21.5q34 0 53 -21.5t19 -58.5q0 -36 -19.5 -57t-52.5 -21q-32 0 -50.5 21t-18.5 57z" />
<glyph horiz-adv-x="1587" d="M82 1171h92l213 -1056l346 1013q12 43 64 43q51 0 63 -43l338 -1017l217 1060h90l-233 -1136q-4 -25 -23 -39t-47 -14q-57 0 -69 49l-336 1024l-348 -1024q-17 -47 -72 -47q-56 0 -66 53zM721 1360q0 21 18 39l172 164h138l-246 -226q-21 -18 -41 -18q-19 0 -30 13 t-11 28z" />
<glyph horiz-adv-x="1587" d="M82 1171h92l213 -1056l346 1013q12 43 64 43q51 0 63 -43l338 -1017l217 1060h90l-233 -1136q-4 -25 -23 -39t-47 -14q-57 0 -69 49l-336 1024l-348 -1024q-17 -47 -72 -47q-56 0 -66 53zM598 1563h137l172 -164q19 -19 19 -39q0 -15 -11 -28t-30 -13q-20 0 -41 18z" />
<glyph horiz-adv-x="1148" d="M66 1171h114l400 -577l391 577h112l-456 -661v-510h-99v506zM520 1360q0 20 19 39l172 164h137l-246 -226q-21 -18 -41 -18q-19 0 -30 13t-11 28z" />
<glyph horiz-adv-x="1148" d="M66 1171h114l400 -577l391 577h112l-456 -661v-510h-99v506zM322 1489q0 37 18.5 58.5t50.5 21.5t51 -21.5t19 -58.5q0 -35 -19 -56.5t-51 -21.5t-50.5 21t-18.5 57zM700 1489q0 37 19 58.5t51 21.5q34 0 53 -21.5t19 -58.5q0 -36 -19.5 -57t-52.5 -21q-32 0 -51 21.5 t-19 56.5z" />
<glyph horiz-adv-x="1148" d="M66 1171h114l400 -577l391 577h112l-456 -661v-510h-99v506zM272 1294l248 246q27 27 60 27q32 0 59 -27l250 -246h-129l-180 193l-179 -193h-129z" />
<glyph horiz-adv-x="1148" d="M66 1171h114l400 -577l391 577h112l-456 -661v-510h-99v506zM350 1563h137l172 -164q19 -19 19 -39q0 -15 -11 -28t-30 -13q-20 0 -41 18z" />
<glyph horiz-adv-x="1126" d="M123 59q0 32 18 50l738 981h-738v81h789q30 0 45.5 -15.5t15.5 -41.5q0 -27 -18 -51l-737 -981h768v-82h-822q-59 0 -59 59zM258 1559h129l178 -193l180 193h129l-249 -248q-25 -25 -60 -25t-57 25z" />
<glyph horiz-adv-x="1126" d="M123 59q0 32 18 50l738 981h-738v81h789q30 0 45.5 -15.5t15.5 -41.5q0 -27 -18 -51l-737 -981h768v-82h-822q-59 0 -59 59zM485 1360q0 20 19 39l172 164h137l-246 -226q-21 -18 -41 -18q-19 0 -30 13t-11 28z" />
<glyph horiz-adv-x="1126" d="M123 59q0 32 18 50l738 981h-738v81h789q30 0 45.5 -15.5t15.5 -41.5q0 -27 -18 -51l-737 -981h768v-82h-822q-59 0 -59 59zM502 1489q0 37 18.5 58.5t50.5 21.5q34 0 53 -21.5t19 -58.5q0 -36 -19.5 -57t-52.5 -21q-32 0 -50.5 21t-18.5 57z" />
<glyph horiz-adv-x="1177" d="M164 0v834q0 77 24.5 140.5t74.5 112t133 75t194 26.5q166 0 277.5 -59.5t142.5 -137.5l-310 -368q171 -6 268 -84t97 -215q0 -150 -99 -243t-284 -93q-109 0 -240 41l-39 12l23 86l39 -12q132 -41 221 -41q138 0 211.5 68.5t73.5 181.5q0 108 -81.5 165.5t-223.5 57.5 h-27q-49 0 -49 49q0 22 16 41l297 350q-33 45 -117 80t-196 35q-93 0 -159.5 -21.5t-103 -60.5t-53 -86t-16.5 -105v-829h-94z" />
<glyph horiz-adv-x="1044" d="M137 369v432q0 180 101 281.5t288 101.5t283 -101t96 -286v-424q0 -188 -95.5 -289.5t-283.5 -101.5q-187 0 -288 102t-101 285zM229 371q0 -157 82 -236l359 936q-66 27 -144 27q-151 0 -224 -79t-73 -224v-424zM385 90q61 -22 141 -22q289 0 289 305v422q0 150 -76 229 z" />
<glyph horiz-adv-x="1044" d="M137 369v432q0 180 101 281.5t288 101.5t283 -101t96 -286v-424q0 -188 -95.5 -289.5t-283.5 -101.5q-187 0 -288 102t-101 285zM229 371q0 -303 297 -303q289 0 289 305v422q0 146 -71.5 224.5t-217.5 78.5q-151 0 -224 -79t-73 -224v-424z" />
<glyph horiz-adv-x="1044" d="M137 0v86h393v997h-108q-101 0 -180 -34l-27 84q40 17 99.5 27.5t103.5 10.5h125q86 0 86 -79v-1006h319v-86h-811z" />
<glyph horiz-adv-x="1044" d="M129 59q0 32 29 58l460 415q108 96 154.5 167.5t46.5 160.5q0 62 -22 108.5t-62 72.5t-88.5 38.5t-107.5 12.5q-131 0 -318 -58l-63 -20l-23 90l66 18q207 60 340 60q75 0 140 -18t118 -55t83.5 -101t30.5 -148q0 -97 -53.5 -190.5t-171.5 -198.5l-434 -385h664v-86h-732 q-26 0 -41.5 15.5t-15.5 43.5z" />
<glyph horiz-adv-x="1044" d="M111 68l20 88l68 -19q214 -63 344 -63q147 0 224 59.5t77 159.5q0 51 -20 88.5t-64 77.5l-94 86h-240v84h242l73 90q68 77 68 176q0 92 -67 144.5t-203 52.5q-137 0 -318 -58l-63 -18l-23 88l66 18q199 60 340 60q177 0 269.5 -74.5t92.5 -210.5q0 -115 -82 -215l-73 -90 l92 -84q100 -90 100 -211q0 -140 -106.5 -225.5t-290.5 -85.5q-149 0 -369 63z" />
<glyph horiz-adv-x="1044" d="M86 283q0 25 20 57l586 797q30 43 76 43q63 0 63 -64v-807h156v-86h-156v-223h-94v223h-590q-61 0 -61 60zM201 309h536v733z" />
<glyph horiz-adv-x="1044" d="M119 66l22 88l64 -19q205 -61 317 -61q157 0 238.5 83.5t81.5 215.5q0 282 -316 282q-123 0 -239 -34l-101 -27v577h691v-90h-603v-376q156 38 261 38q193 0 297 -91.5t104 -278.5q0 -174 -110.5 -280.5t-303.5 -106.5q-140 0 -342 61z" />
<glyph horiz-adv-x="1044" d="M133 377v432q0 164 103 267.5t282 103.5q132 0 336 -58l64 -16l-23 -90l-64 20q-178 56 -311 56q-145 0 -219 -75.5t-74 -207.5v-127q190 55 301 55q205 0 308.5 -95.5t103.5 -270.5q0 -168 -104.5 -274.5t-294.5 -106.5t-299 106t-109 281zM227 379q0 -141 83 -223 t233 -82q144 0 222.5 81.5t78.5 215.5q0 132 -77.5 206t-242.5 74q-99 0 -297 -55v-217z" />
<glyph horiz-adv-x="1044" d="M133 1087v84h750q61 0 61 -55q0 -17 -16 -53l-477 -1063h-103l490 1087h-705z" />
<glyph horiz-adv-x="1044" d="M104 285q0 115 86 204l101 101l-74 90q-78 96 -78 209q0 136 101.5 215.5t279.5 79.5q180 0 281.5 -79.5t101.5 -215.5q0 -114 -76 -205l-75 -94l102 -101q86 -86 86 -204q0 -140 -110 -220.5t-306 -80.5q-195 0 -307.5 80.5t-112.5 220.5zM199 285q0 -101 85 -159 t240 -58q154 0 237 58t83 159q0 49 -18.5 87t-59.5 79l-94 92h-301l-95 -92q-77 -77 -77 -166zM233 889q0 -90 62 -168l78 -94h299l76 94q61 73 61 168q0 93 -72.5 150t-214.5 57q-143 0 -216 -57t-73 -150z" />
<glyph horiz-adv-x="1044" d="M109 799q0 168 103.5 274.5t293.5 106.5q191 0 300 -105.5t109 -281.5v-433q0 -164 -103 -267t-282 -103q-135 0 -335 57l-64 16l21 91l65 -19q187 -57 311 -57q145 0 219 75t74 207v127q-190 -55 -301 -55q-206 0 -308.5 95t-102.5 272zM203 799q0 -132 78 -206.5 t243 -74.5q96 0 297 55v218q0 141 -83 223t-232 82q-144 0 -223.5 -81.5t-79.5 -215.5z" />
<glyph horiz-adv-x="1181" d="M119 582q0 141 38 251.5t107 182t160.5 111t204.5 47.5v186h90v-186q137 -8 295 -60l80 -27l-21 -88l-82 27q-184 59 -313 59q-217 0 -338 -125t-121 -378t122 -378.5t337 -125.5q129 0 313 59l82 27l21 -90l-80 -25q-167 -52 -295 -59v-187h-90v187q-113 7 -205 46 t-161 110.5t-106.5 182t-37.5 253.5z" />
<glyph horiz-adv-x="1044" d="M111 82l24 90l70 -25q199 -71 338 -71q128 0 213.5 58.5t85.5 168.5q0 84 -50 136t-159 75l-236 49q-140 28 -210 100.5t-70 196.5q0 73 31 133t82.5 98.5t116.5 60t136 24.5v184h90v-186q120 -7 295 -68l68 -25l-25 -88l-69 25q-188 69 -334 69q-129 0 -213 -57.5 t-84 -167.5q0 -86 48 -136.5t159 -74.5l235 -49q142 -32 212.5 -103t70.5 -194q0 -73 -31 -133t-83 -98t-116.5 -59.5t-136.5 -26.5v-185h-90v187q-53 3 -107 14t-86.5 21t-105.5 34z" />
<glyph horiz-adv-x="1044" d="M76 428v84h133v147h-133v84h133q3 215 116 328t308 113q116 0 264 -45l59 -19l-16 -90l-66 21q-136 43 -239 43q-158 0 -242.5 -87t-85.5 -264h441v-84h-443v-147h443v-84h-441q3 -350 328 -350q106 0 239 43l66 20l16 -90l-59 -18q-148 -45 -264 -45q-194 0 -307.5 113 t-116.5 327h-133z" />
<glyph horiz-adv-x="790" d="M94 1018q0 104 72.5 151.5t189.5 47.5h215v90q0 153 -168 153q-92 0 -217 -37l-47 -14l-14 70l47 14q134 39 231 39q110 0 176 -55t66 -170v-365l84 -51l-33 -57l-63 36q-33 20 -72 9l-59 -15q-110 -28 -189 -28q-103 0 -161 48t-58 134zM172 1022q0 -117 147 -117 q82 0 173 23l79 20v201h-217q-182 0 -182 -127z" />
<glyph horiz-adv-x="794" d="M123 942v838l76 16v-307q124 41 207 41q146 0 219 -90t73 -258q0 -156 -80.5 -249t-224.5 -93q-93 0 -215 34q-26 4 -40.5 22.5t-14.5 45.5zM199 942q122 -33 192 -33q116 0 174 74.5t58 200.5q0 274 -222 274q-66 0 -202 -39v-477z" />
<glyph horiz-adv-x="702" d="M92 1184q0 167 81 257.5t216 90.5q74 0 186 -33l54 -16l-17 -72l-53 16q-102 31 -168 31q-106 0 -162.5 -69t-56.5 -205q0 -137 57 -207t162 -70q66 0 168 31l53 16l17 -71l-54 -15q-121 -32 -186 -32q-137 0 -217 88t-80 260z" />
<glyph horiz-adv-x="792" d="M92 1180q0 167 75.5 258.5t219.5 91.5q71 0 205 -43v295l76 14v-854q0 -58 -56 -68q-136 -34 -217 -34q-145 0 -224 90.5t-79 249.5zM168 1182q0 -126 57.5 -199.5t173.5 -73.5q68 0 193 33v477q-145 39 -203 39q-221 0 -221 -276z" />
<glyph horiz-adv-x="780" d="M92 1182q0 174 84.5 263t214.5 89q137 0 217 -87t80 -249q0 -49 -45 -49h-475q6 -119 73 -180.5t171 -61.5q80 0 190 35l60 21l16 -70l-57 -19q-125 -38 -209 -38q-146 0 -233 87.5t-87 258.5zM168 1217h442q-2 116 -57.5 182.5t-161.5 66.5q-97 0 -158 -65.5t-65 -183.5 z" />
<glyph horiz-adv-x="516" d="M59 1444v67h111v66q0 103 50.5 157t141.5 54q41 0 134 -19l-13 -69q-85 18 -121 18q-60 0 -88 -35t-28 -110v-62h217v-67h-217v-600h-76v600h-111z" />
<glyph horiz-adv-x="788" d="M90 1311q0 101 73.5 156t201.5 55h81q82 0 109 8l156 41l18 -64l-164 -41q1 -1 10.5 -7.5t17 -12.5t18.5 -19.5t19 -28t13.5 -37t5.5 -48.5q0 -104 -74 -156.5t-204 -52.5q-23 0 -53 4l-29 4q14 -20 14 -49q0 -37 -35 -82h244q103 0 155 -41.5t52 -112.5 q0 -95 -84 -147.5t-256 -52.5q-58 0 -106.5 9.5t-88.5 29t-63 55t-23 82.5q0 66 54 133l51 61q33 42 33 68q0 22 -15 40.5t-36.5 35.5t-43 37.5t-36.5 54.5t-15 78zM164 1311q0 -80 54 -113t151 -33q206 0 206 148q0 145 -204 145q-207 0 -207 -147zM172 803 q0 -111 213 -111q260 0 260 133q0 90 -135 90h-291q-47 -50 -47 -112z" />
<glyph horiz-adv-x="761" d="M123 844v936l76 16v-309q128 43 204 43q65 0 113 -19t75 -53.5t39.5 -77t12.5 -94.5v-442h-76v440q0 174 -170 174q-74 0 -198 -41v-573h-76z" />
<glyph horiz-adv-x="344" d="M117 1733q0 25 14.5 41t38.5 16q26 0 40.5 -16t14.5 -41q0 -28 -14.5 -45t-40.5 -17q-25 0 -39 17t-14 45zM133 844v680h78v-680h-78z" />
<glyph horiz-adv-x="362" d="M37 627v69q115 3 115 140v688h77v-690q0 -97 -51 -151t-141 -56zM135 1733q0 25 15 41t40 16q24 0 39 -16t15 -41q0 -28 -14.5 -45t-39.5 -17t-40 17t-15 45z" />
<glyph horiz-adv-x="731" d="M123 844v936l76 16v-661l356 389h102l-225 -240l244 -440h-90l-213 385l-119 -129q-30 -30 -42.5 -54.5t-12.5 -68.5v-133h-76z" />
<glyph horiz-adv-x="323" d="M121 844v936l78 18v-954h-78z" />
<glyph horiz-adv-x="1126" d="M123 844v577q0 55 55 74q106 35 195 35q117 0 170 -62q134 62 235 62q114 0 168.5 -62t54.5 -170v-454h-75v448q0 166 -154 166q-75 0 -192 -47q22 -40 22 -113v-454h-76v448q0 81 -36 124.5t-121 43.5q-64 0 -170 -33v-583h-76z" />
<glyph horiz-adv-x="808" d="M92 1184q0 165 84.5 256.5t226.5 91.5q143 0 226.5 -91.5t83.5 -256.5q0 -164 -85 -256t-227 -92q-143 0 -226 92t-83 256zM170 1184q0 -134 61.5 -206.5t171.5 -72.5q111 0 172.5 72.5t61.5 206.5q0 133 -62.5 206.5t-173.5 73.5q-109 0 -170 -73.5t-61 -206.5z" />
<glyph horiz-adv-x="792" d="M123 616v809q0 57 55 70q137 35 215 35q146 0 225.5 -90t79.5 -250q0 -166 -75.5 -257t-221.5 -91q-74 0 -202 41v-250zM199 950q131 -35 202 -39q114 0 168 73.5t54 205.5q0 124 -58 197t-174 73q-67 0 -192 -33v-477z" />
<glyph horiz-adv-x="790" d="M92 1186q0 157 81.5 250.5t225.5 93.5q79 0 213 -35q56 -12 56 -70v-792l-74 -17v265q-128 -41 -209 -41q-146 0 -219.5 89.5t-73.5 256.5zM170 1186q0 -275 221 -275q65 0 203 39v477q-124 31 -193 31q-117 0 -174 -73t-57 -199z" />
<glyph horiz-adv-x="495" d="M123 844v577q0 58 59 74q114 35 267 35v-74q-146 0 -250 -31v-581h-76z" />
<glyph horiz-adv-x="724" d="M102 889l15 72l53 -15q139 -41 219 -41q67 0 110.5 30t43.5 89q0 45 -30.5 72.5t-98.5 40.5l-127 22q-88 17 -134.5 63.5t-46.5 116.5q0 94 66.5 143.5t163.5 49.5q117 0 233 -37l54 -16l-17 -70l-53 16q-127 37 -217 35q-67 0 -110.5 -30t-43.5 -89q0 -89 127 -112 l125 -25q184 -34 184 -178q0 -93 -66 -141.5t-163 -48.5q-94 0 -235 38z" />
</font>
</defs>
</svg>
